<svg width="99" height="99" viewBox="0 0 99 99" fill="none" xmlns="http://www.w3.org/2000/svg">
<rect y="0.00585938" width="98.6012" height="98.6012" rx="49.3006" fill="#633CFF"/>
<g clip-path="url(#clip0_275_21809)">
<path d="M21.3645 56.546C23.7294 56.546 25.5032 55.6246 26.5214 54.3741L24.5506 52.6628C23.7623 53.5514 22.7769 53.9792 21.4302 53.9792C18.7367 53.9792 17.0944 51.9389 17.0944 49.4707C17.0944 47.0026 18.7367 44.8965 21.3645 44.8965C22.5798 44.8965 23.5981 45.3243 24.4192 46.1799L26.3572 44.5016C25.109 43.0866 23.5981 42.3955 21.3645 42.3955C17.1601 42.3955 14.2695 45.5876 14.2695 49.5036C14.2695 53.3868 17.3243 56.546 21.3645 56.546ZM31.4813 56.546C33.2879 56.546 34.2076 55.7891 34.7332 54.6373V56.2827H37.2952V46.147H34.7003V47.7595C34.1419 46.6735 33.2551 45.9496 31.4813 45.9496C28.6893 45.9496 26.4886 48.3519 26.4886 51.2807C26.4886 54.2095 28.6893 56.546 31.4813 56.546ZM29.1163 51.2478C29.1163 49.6682 30.2331 48.319 31.9083 48.319C33.6492 48.319 34.7332 49.6682 34.7332 51.2478C34.7332 52.8274 33.6164 54.1437 31.9083 54.1437C30.2331 54.1766 29.1163 52.7945 29.1163 51.2478ZM38.8719 56.2827H41.4996V42.0664H38.8719V56.2827ZM44.423 56.546C45.4413 56.546 46.1639 55.7562 46.1639 54.8348C46.1639 53.9133 45.4413 53.1235 44.423 53.1235C43.4048 53.1235 42.6821 53.9133 42.6821 54.8348C42.6821 55.7562 43.4376 56.546 44.423 56.546ZM51.8136 56.546C53.7844 56.546 55.1968 55.822 56.1494 54.6044L54.2443 52.959C53.7187 53.6501 53.0618 54.1766 52.0435 54.1766C50.3683 54.1766 49.2187 52.8274 49.2187 51.2478C49.2187 49.6682 50.3026 48.319 51.9778 48.319C52.8647 48.319 53.653 48.7797 54.1129 49.4707L56.1494 47.8253C55.2954 46.6406 53.7844 45.9167 51.945 45.9496C48.8574 45.9825 46.5909 48.319 46.5909 51.2807C46.5909 54.2424 48.9231 56.546 51.8136 56.546ZM61.5363 56.546C64.6567 56.546 66.9232 54.1766 66.9232 51.2478C66.9232 48.319 64.6567 45.9167 61.5363 45.9167C58.4158 45.9167 56.1494 48.319 56.1494 51.2478C56.1494 54.1766 58.4158 56.546 61.5363 56.546ZM58.7771 51.2478C58.7771 49.6682 59.8611 48.319 61.5363 48.319C63.2115 48.319 64.2954 49.6682 64.2954 51.2478C64.2954 52.8274 63.2115 54.1437 61.5363 54.1437C59.8611 54.1437 58.7771 52.8274 58.7771 51.2478ZM68.1057 56.2827H70.7334V50.7542C70.7334 49.01 71.7188 48.2531 72.8356 48.2531C74.1495 48.2531 75.0035 49.01 75.0035 50.7542V56.3156H77.6313V50.7542C77.6313 48.8126 78.4524 48.2531 79.7006 48.2531C80.8831 48.2531 81.7371 49.01 81.7371 50.7542V56.3156H84.3649V50.096C84.3649 47.5292 82.6897 45.9167 80.5218 45.9167C78.7481 45.9167 77.7627 46.6077 77.1057 47.8253C76.4488 46.6077 75.2334 45.9167 73.821 45.9167C72.2772 45.9167 71.259 46.509 70.7334 47.6279V46.147H68.1385V56.2827H68.1057Z" fill="white"/>
</g>
<defs>
<clipPath id="clip0_275_21809">
<rect width="70.0625" height="14.4796" fill="white" transform="translate(14.2695 42.0664)"/>
</clipPath>
</defs>
</svg>
