<svg width="99" height="99" viewBox="0 0 99 99" fill="none" xmlns="http://www.w3.org/2000/svg">
<rect y="0.404785" width="98.6012" height="98.6012" rx="49.3006" fill="#633CFF"/>
<path d="M60.9873 59.235C58.9414 61.0347 56.4029 63.289 51.7995 63.289H49.0337C45.6995 63.289 42.6496 62.0766 40.4899 59.8791C38.3682 57.7384 37.1937 54.7832 37.1937 51.6006V47.8307C37.1937 44.6292 38.3682 41.6929 40.4899 39.5522C42.6685 37.3547 45.6995 36.1423 49.0337 36.1423H51.7995C56.4218 36.1423 58.9603 38.3966 60.9873 40.1963C63.1091 42.0718 64.9277 43.682 69.7963 43.682C70.554 43.682 71.2931 43.6252 72.0129 43.5115C72.0129 43.4926 71.994 43.4926 71.994 43.4736C71.7098 42.7537 71.3688 42.0528 70.971 41.3708L67.7124 35.7444C64.7193 30.5727 59.2068 27.3901 53.2394 27.3901L46.7415 27.3901C40.7741 27.3901 35.2615 30.5727 32.2683 35.7444L29.01 41.3708C26.0168 46.5425 26.0168 52.9077 29.01 58.0794L32.2683 63.7058C35.2615 68.8775 40.7741 72.0601 46.7415 72.0601H53.2394C59.2068 72.0601 64.7193 68.8775 67.7124 63.7058L70.971 58.0794C71.3688 57.3974 71.7098 56.6965 71.994 55.9766C71.994 55.9577 72.0129 55.9577 72.0129 55.9388C71.2931 55.8251 70.554 55.7683 69.7963 55.7683C64.9277 55.7304 63.0901 57.3596 60.9873 59.235Z" fill="white"/>
<path d="M51.781 39.5327H49.0151C43.9381 39.5327 40.604 43.17 40.604 47.8112V51.5811C40.604 56.2224 43.9381 59.8596 49.0151 59.8596H51.781C59.1881 59.8596 58.6008 52.3199 69.7777 52.3199C70.8575 52.3199 71.8997 52.4146 72.9416 52.6041C73.2826 50.6907 73.2826 48.7205 72.9416 46.8072C71.9186 46.9966 70.8575 47.0914 69.7777 47.0914C58.6008 47.0914 59.1881 39.5327 51.781 39.5327Z" fill="white"/>
<path d="M79.3626 55.3698C77.4492 53.9679 75.2707 53.0396 72.9405 52.6039C72.9405 52.6229 72.9405 52.6418 72.9405 52.6608C72.7511 53.7595 72.4291 54.8583 72.0123 55.9191C73.9635 56.2412 75.7821 56.98 77.3166 58.0977C77.3166 58.1166 77.2977 58.1356 77.2977 58.1545C76.4073 61.0529 75.0623 63.7619 73.3194 66.2436C71.5766 68.6874 69.4927 70.847 67.0869 72.6467C62.1046 76.3786 56.1562 78.3677 49.9047 78.3677C46.0401 78.3677 42.2892 77.61 38.7467 76.1134C35.3367 74.6737 32.2677 72.6088 29.6345 69.9756C27.0013 67.3424 24.9364 64.2734 23.4967 60.8635C22.0001 57.3399 21.2424 53.5701 21.2424 49.7055C21.2424 45.8409 22.0001 42.09 23.4967 38.5475C24.9364 35.1375 27.0013 32.0686 29.6345 29.4354C32.2677 26.8022 35.3367 24.7373 38.7467 23.2975C42.2702 21.801 46.0401 21.0432 49.9047 21.0432C56.1562 21.0432 62.1046 23.0134 67.0869 26.7643C69.4927 28.564 71.5766 30.7236 73.3194 33.1674C75.0812 35.649 76.4073 38.377 77.2977 41.2565C77.2977 41.2754 77.3166 41.2944 77.3166 41.3133C75.7821 42.45 73.9635 43.1888 72.0123 43.4919C72.4291 44.5527 72.7511 45.6325 72.9405 46.7502C72.9405 46.7692 72.9405 46.7881 72.9405 46.8071C75.2707 46.3714 77.4492 45.462 79.3626 44.0412C81.2001 42.6773 80.84 41.1618 80.5558 40.2525C76.5208 27.1432 64.3208 17.6333 49.8855 17.6333C32.173 17.6333 17.8135 31.9929 17.8135 49.7055C17.8135 67.4181 32.173 81.7777 49.8855 81.7777C64.3208 81.7777 76.5208 72.2488 80.5558 59.1585C80.84 58.2492 81.2001 56.7148 79.3626 55.3698Z" fill="white"/>
</svg>
