<svg width="99" height="99" viewBox="0 0 99 99" fill="none" xmlns="http://www.w3.org/2000/svg">
<rect y="0.202148" width="98.6012" height="98.6012" rx="49.3006" fill="#633CFF"/>
<path fill-rule="evenodd" clip-rule="evenodd" d="M82.6634 49.9015C82.6634 45.144 80.365 41.3901 75.9721 41.3901C71.5607 41.3901 68.8916 45.144 68.8916 49.8643C68.8916 55.458 72.0426 58.2827 76.5653 58.2827C78.771 58.2827 80.4391 57.781 81.6996 57.0748V53.358C80.4391 53.9899 78.9934 54.3802 77.1584 54.3802C75.3604 54.3802 73.7664 53.7483 73.5625 51.5554H82.6263C82.6263 51.3138 82.6634 50.3475 82.6634 49.9015ZM73.5069 48.136C73.5069 46.0361 74.7859 45.1626 75.9536 45.1626C77.0842 45.1626 78.289 46.0361 78.289 48.136H73.5069Z" fill="white"/>
<path fill-rule="evenodd" clip-rule="evenodd" d="M61.7373 41.3901C59.9209 41.3901 58.7531 42.245 58.1044 42.8397L57.8634 41.6875H53.7856V63.3561L58.4195 62.3711L58.438 57.112C59.1053 57.5951 60.0877 58.2827 61.7188 58.2827C65.0366 58.2827 68.0579 55.6067 68.0579 49.7156C68.0394 44.3264 64.981 41.3901 61.7373 41.3901ZM60.6252 54.1943C59.5316 54.1943 58.8829 53.8041 58.438 53.3209L58.4195 46.4263C58.9014 45.8874 59.5687 45.5157 60.6252 45.5157C62.3119 45.5157 63.4797 47.4113 63.4797 49.8457C63.4797 52.3359 62.3305 54.1943 60.6252 54.1943Z" fill="white"/>
<path fill-rule="evenodd" clip-rule="evenodd" d="M47.4097 40.2941L52.062 39.2906V35.5181L47.4097 36.503V40.2941Z" fill="white"/>
<path d="M52.062 41.7056H47.4097V57.9663H52.062V41.7056Z" fill="white"/>
<path fill-rule="evenodd" clip-rule="evenodd" d="M42.4233 43.081L42.1267 41.7058H38.123V57.9665H42.7569V46.9464C43.8505 45.5154 45.704 45.7756 46.2786 45.98V41.7058C45.6855 41.4828 43.5168 41.0739 42.4233 43.081Z" fill="white"/>
<path fill-rule="evenodd" clip-rule="evenodd" d="M33.1549 37.6729L28.6323 38.6392L28.6138 53.5248C28.6138 56.2751 30.6712 58.3008 33.4144 58.3008C34.9343 58.3008 36.0465 58.022 36.6581 57.6875V53.915C36.065 54.1566 33.1364 55.0115 33.1364 52.2611V45.6638H36.6581V41.7055H33.1364L33.1549 37.6729Z" fill="white"/>
<path fill-rule="evenodd" clip-rule="evenodd" d="M20.6255 46.4263C20.6255 45.7016 21.2186 45.4228 22.201 45.4228C23.6097 45.4228 25.3891 45.8502 26.7978 46.6122V42.245C25.2593 41.6317 23.7394 41.3901 22.201 41.3901C18.4383 41.3901 15.936 43.36 15.936 46.6493C15.936 51.7784 22.9795 50.9607 22.9795 53.1722C22.9795 54.0271 22.2381 54.3058 21.2001 54.3058C19.6616 54.3058 17.6969 53.674 16.1399 52.8191L16.1399 57.242C17.8637 57.9854 19.606 58.3013 21.2001 58.3013C25.0554 58.3013 27.706 56.3872 27.706 53.0607C27.6875 47.5228 20.6255 48.5077 20.6255 46.4263Z" fill="white"/>
</svg>
