<svg width="99" height="100" viewBox="0 0 99 100" fill="none" xmlns="http://www.w3.org/2000/svg">
<rect y="0.803711" width="98.6012" height="98.6012" rx="49.3006" fill="#633CFF"/>
<path d="M56.7402 50.1175C56.7392 52.329 56.3344 54.4451 55.5975 56.4003C53.6432 57.1371 51.5253 57.542 49.3129 57.5448H49.2876C47.0771 57.542 44.9592 57.1381 43.0049 56.4012C42.268 54.4469 41.8622 52.329 41.8613 50.1175V50.0913C41.8622 47.8808 42.2671 45.7629 43.003 43.8095C44.9573 43.0717 47.0762 42.6659 49.2876 42.665H49.3129C51.5253 42.6659 53.6432 43.0717 55.5975 43.8095C56.3344 45.7629 56.7392 47.8808 56.7402 50.0913V50.1175ZM78.6462 45.1448H61.2753L73.5575 32.8617C72.5925 31.5058 71.5162 30.2341 70.3427 29.0606V29.0597C69.1692 27.8871 67.8975 26.8127 66.5426 25.8477L54.2594 38.1308V20.7599C52.652 20.4897 51.0007 20.3466 49.3157 20.3457H49.2848C47.5998 20.3466 45.9494 20.4897 44.3411 20.7599V38.1308L32.058 25.8477C30.7021 26.8127 29.4313 27.888 28.2597 29.0615L28.2531 29.0662C27.0815 30.2379 26.008 31.5077 25.043 32.8617L37.3271 45.1448H19.9562C19.9562 45.1448 19.542 48.4073 19.542 50.0942V50.1147C19.542 51.8016 19.6851 53.4548 19.9562 55.0641H37.3271L25.043 67.3472C26.9749 70.058 29.3472 72.4312 32.058 74.3621L44.3411 62.0781V79.4499C45.9485 79.7192 47.597 79.8613 49.2792 79.8632H49.3213C51.0044 79.8613 52.6548 79.7192 54.2594 79.4499L54.2594 62.0781L66.5435 74.3621C67.8984 73.3971 69.1692 72.3218 70.3427 71.1492L70.3455 71.1464C71.5172 69.9729 72.5934 68.7012 73.5575 67.3472L61.2734 55.0641L78.6462 55.0641C78.9164 53.4576 79.0576 51.8091 79.0595 50.1259V50.0829C79.0576 48.3998 78.9164 46.7513 78.6462 45.1448Z" fill="white"/>
</svg>
