<svg width="98" height="15" viewBox="0 0 98 15" fill="none" xmlns="http://www.w3.org/2000/svg">
<path d="M4.12051 14.8463C2.09819 14.8463 0.432739 13.8357 0.432739 11.5767V11.4578C0.432739 8.72321 2.81195 7.77206 5.72648 7.77206H7.09453V7.23704C7.09453 6.10754 6.61869 5.45363 5.42908 5.45363C4.35844 5.45363 3.82311 6.0481 3.76363 6.88036H0.789621C1.02754 4.38358 2.99039 3.19464 5.60752 3.19464C8.28413 3.19464 10.247 4.32413 10.247 7.11814V14.6085H7.21349V13.3006C6.61869 14.1329 5.60752 14.8463 4.12051 14.8463ZM7.09453 10.9228V9.85271H5.84544C4.29896 9.85271 3.52571 10.2688 3.52571 11.2794V11.3983C3.52571 12.1711 4.00155 12.7062 5.0722 12.7062C6.14284 12.6467 7.09453 12.0523 7.09453 10.9228ZM17.3251 14.8463C14.2322 14.8463 11.9719 12.944 11.9719 9.13934V8.961C11.9719 5.15639 14.3511 3.13519 17.3251 3.13519C19.8828 3.13519 21.9646 4.44303 22.2025 7.35593H19.2285C19.0501 6.28589 18.4553 5.57252 17.3846 5.57252C16.076 5.57252 15.1244 6.64257 15.1244 8.84211V9.19879C15.1244 11.4578 15.9571 12.4684 17.3846 12.4684C18.4553 12.4684 19.2285 11.6956 19.4069 10.4472H22.262C22.0836 13.0628 20.3586 14.8463 17.3251 14.8463ZM28.9833 14.8463C25.8903 14.8463 23.63 12.944 23.63 9.13934V8.961C23.63 5.15639 26.0092 3.13519 28.9833 3.13519C31.5409 3.13519 33.6227 4.44303 33.8606 7.35593H30.8866C30.7082 6.28589 30.1134 5.57252 29.0427 5.57252C27.7342 5.57252 26.7825 6.64257 26.7825 8.84211V9.19879C26.7825 11.4578 27.6152 12.4684 29.0427 12.4684C30.1134 12.4684 30.8866 11.6956 31.0651 10.4472H33.9201C33.7417 13.0628 32.0168 14.8463 28.9833 14.8463ZM40.7009 14.8463C37.4889 14.8463 35.2882 12.944 35.2882 9.19879V8.961C35.2882 5.21584 37.6079 3.13519 40.6414 3.13519C43.437 3.13519 45.7567 4.68082 45.7567 8.42598V9.79326H38.4406C38.5596 11.8145 39.4518 12.5873 40.7604 12.5873C41.95 12.5873 42.6042 11.9334 42.8422 11.1605H45.7567C45.3998 13.2412 43.6154 14.8463 40.7009 14.8463ZM38.5001 7.71261H42.6637C42.6042 6.0481 41.831 5.33473 40.5819 5.33473C39.6302 5.39418 38.738 5.9292 38.5001 7.71261ZM47.6601 3.43243H50.8125V5.09694C51.3478 4.0269 52.478 3.19464 54.2029 3.19464C56.2252 3.19464 57.5933 4.44303 57.5933 7.11814V14.6085H54.4408V7.59372C54.4408 6.28588 53.9055 5.69142 52.7754 5.69142C51.7047 5.69142 50.8125 6.34533 50.8125 7.77206V14.6085H47.6601V3.43243ZM63.3628 0.0439453V3.43243H65.5041V5.75086H63.3628V11.0416C63.3628 11.8739 63.7197 12.29 64.493 12.29C64.9688 12.29 65.2662 12.2306 65.5636 12.1117V14.549C65.2067 14.6679 64.5524 14.7868 63.7792 14.7868C61.3405 14.7868 60.2104 13.6573 60.2104 11.3983V5.75086H58.9018V3.43243H60.2104V1.35178L63.3628 0.0439453ZM77.2812 14.6085H74.1882V12.944C73.6529 14.014 72.5823 14.8463 70.9168 14.8463C68.8945 14.8463 67.4075 13.5979 67.4075 10.9822V3.43243H70.56V10.5661C70.56 11.8739 71.0953 12.4684 72.1659 12.4684C73.2366 12.4684 74.1288 11.755 74.1288 10.3877V3.43243H77.2812V14.6085ZM79.601 3.43243H82.7534V5.51307C83.4077 4.0269 84.4783 3.31353 86.1438 3.31353V6.40478C84.0025 6.40478 82.7534 7.0587 82.7534 8.90156V14.6679H79.601V3.43243ZM92.5082 14.8463C89.2962 14.8463 87.0955 12.944 87.0955 9.19879V8.961C87.0955 5.21584 89.4152 3.13519 92.4487 3.13519C95.2443 3.13519 97.564 4.68082 97.564 8.42598V9.79326H90.3074C90.4264 11.8145 91.3186 12.5873 92.6271 12.5873C93.8167 12.5873 94.471 11.9334 94.7089 11.1605H97.6235C97.1476 13.2412 95.4227 14.8463 92.5082 14.8463ZM90.2479 7.71261H94.471C94.4115 6.0481 93.6383 5.33473 92.3892 5.33473C91.4375 5.39418 90.5453 5.9292 90.2479 7.71261Z" fill="#ADADA3"/>
</svg>
