<svg width="179" height="16" viewBox="0 0 179 16" fill="none" xmlns="http://www.w3.org/2000/svg">
<path d="M102.283 6.72458C102.134 6.26993 102.008 5.87837 101.882 5.48681C101.802 5.48913 101.722 5.49145 101.642 5.49377C101.615 5.81965 101.565 6.1455 101.564 6.47143C101.56 9.16909 101.561 11.8668 101.571 14.5644C101.573 15.1142 101.477 15.5815 100.857 15.7349C100.231 15.8896 99.7773 15.4873 99.7693 14.7176C99.7528 13.1441 99.7667 11.5703 99.7668 9.99664C99.7671 7.57994 99.7617 5.16324 99.7683 2.74656C99.7712 1.71393 100.134 1.22821 100.958 1.10195C101.748 0.980932 102.288 1.37803 102.6 2.33007C103.588 5.3418 104.572 8.35518 105.633 11.6005C105.874 10.9391 106.061 10.4703 106.217 9.99134C107.051 7.42822 107.881 4.86385 108.703 2.29694C108.91 1.652 109.309 1.12785 109.978 1.12912C110.415 1.12994 110.92 1.41983 111.261 1.72785C111.479 1.92429 111.525 2.39015 111.526 2.73581C111.546 6.69795 111.538 10.6602 111.551 14.6224C111.553 15.2271 111.425 15.7078 110.723 15.7442C109.965 15.7834 109.764 15.2544 109.759 14.6426C109.743 12.7319 109.756 10.821 109.757 8.91012C109.758 7.6838 109.757 6.45748 109.567 5.18511C109.479 5.39392 109.373 5.59738 109.304 5.81235C108.375 8.66976 107.472 11.5358 106.507 14.3809C106.336 14.8853 105.915 15.3046 105.609 15.7632C105.347 15.332 104.997 14.9307 104.838 14.4644C103.968 11.9143 103.145 9.34825 102.283 6.72458Z" fill="#ADADA3"/>
<path d="M14.3169 1.34297C16.2485 1.09505 18.1361 0.946101 19.9484 1.57241C21.5633 2.13049 22.5776 3.36115 23.0918 4.97007C24.0102 7.8436 24.0125 10.6624 22.3894 13.3205C21.4318 14.8888 19.9352 15.5802 18.1576 15.6807C17.1218 15.7392 16.0799 15.6938 15.0408 15.6891C14.3261 15.6858 13.9478 15.342 13.9486 14.6046C13.9529 10.5044 13.9465 6.40409 13.9676 2.30393C13.9692 1.99467 14.1569 1.68638 14.3169 1.34297ZM21.4225 11.2163C21.9705 9.42487 21.9901 7.6248 21.4806 5.82498C20.6915 3.03724 18.7091 2.36681 15.7625 2.91704C15.7625 6.44353 15.7568 9.97875 15.779 13.5138C15.7801 13.695 15.988 13.9926 16.1533 14.0373C18.4738 14.6647 20.4886 13.6113 21.4225 11.2163Z" fill="#ADADA3"/>
<path d="M8.9174 14.8692C8.33923 12.4052 8.33923 12.4048 5.90765 12.4021C5.23315 12.4013 4.55768 12.4256 3.88443 12.397C3.29317 12.3718 2.93499 12.5562 2.81645 13.1876C2.70802 13.765 2.49858 14.3228 2.35175 14.894C2.20063 15.4817 1.91091 15.8902 1.23324 15.7227C0.540103 15.5513 0.490074 15.004 0.638846 14.4494C0.980394 13.1763 1.35894 11.9129 1.73533 10.6494C2.56096 7.87769 3.40341 5.11099 4.219 2.33637C4.43388 1.60534 4.83545 1.16006 5.62834 1.12372C6.45269 1.08596 6.83701 1.55139 7.05316 2.27884C8.25246 6.31501 9.46444 10.3474 10.6715 14.3813C10.8412 14.9486 10.8281 15.4816 10.1725 15.7025C9.49582 15.9305 9.1078 15.577 8.9174 14.8692ZM6.46811 5.916C6.22369 5.03399 5.97927 4.15197 5.73484 3.26997C5.6787 3.26469 5.62255 3.25942 5.56641 3.25415C4.87537 5.74311 4.18433 8.23208 3.46873 10.8095C4.97485 10.8095 6.35554 10.8095 7.82303 10.8095C7.37042 9.17187 6.93866 7.60966 6.46811 5.916Z" fill="#ADADA3"/>
<path d="M47.7668 14.7638C47.6802 15.3354 47.4912 15.7599 46.8851 15.7676C46.2806 15.7753 46.087 15.3415 45.9509 14.8561C45.8144 14.3694 45.6219 13.8917 45.5473 13.3961C45.4399 12.6833 45.0893 12.3853 44.3667 12.403C43.1592 12.4325 41.9503 12.4159 40.7423 12.4017C40.2513 12.396 39.9611 12.5679 39.8492 13.0812C39.7119 13.7112 39.5102 14.3274 39.3302 14.9478C39.1726 15.4908 38.8794 15.8921 38.2427 15.7125C37.5959 15.53 37.4723 15.0349 37.6449 14.4484C38.3976 11.8901 39.1586 9.33428 39.9176 6.77786C40.3491 5.32441 40.7971 3.87564 41.2088 2.41665C41.4194 1.67071 41.7778 1.1408 42.6308 1.11956C43.4811 1.09839 43.8839 1.58497 44.1062 2.34158C45.3168 6.46226 46.5407 10.579 47.7668 14.7638ZM41.4806 7.1734C41.1566 8.35247 40.8325 9.53154 40.4858 10.7932C41.9731 10.7932 43.3465 10.7932 44.8334 10.7932C44.113 8.21439 43.4189 5.72991 42.7247 3.24544C42.671 3.24721 42.6173 3.24898 42.5636 3.25075C42.2176 4.51484 41.8716 5.77892 41.4806 7.1734Z" fill="#ADADA3"/>
<path d="M131.513 15.6323C130.373 15.6616 129.305 15.6908 128.238 15.6899C127.031 15.6888 126.928 15.586 126.927 14.3986C126.923 10.575 126.926 6.75153 126.926 2.92801C126.926 2.67507 126.926 2.42185 126.914 2.16926C126.884 1.48798 127.243 1.19149 127.886 1.18735C128.955 1.18048 130.026 1.13572 131.091 1.19132C133.439 1.31384 135.099 2.55038 135.91 4.69095C136.909 7.32662 136.947 10.0272 135.692 12.6319C134.866 14.3467 133.491 15.361 131.513 15.6323ZM133.279 13.1963C133.279 13.1963 133.279 13.1828 133.4 13.2182C134.168 12.4234 134.88 11.6081 134.866 10.3959C134.861 9.92901 134.999 9.45987 134.988 8.99387C134.977 8.55522 134.854 8.11938 134.732 7.57682C134.728 7.49981 134.725 7.4228 134.805 7.24478C134.64 6.3924 134.592 5.49429 134.284 4.69712C133.637 3.02306 132.202 2.48433 130.531 2.47298C130.006 2.46941 129.479 2.61038 128.831 2.7508C128.788 2.76937 128.746 2.78793 128.613 2.88854C128.558 3.04293 128.455 3.19721 128.455 3.35176C128.445 6.74961 128.442 10.1475 128.463 13.5453C128.464 13.7258 128.686 13.9049 128.789 14.0943C128.789 14.0943 128.797 14.0779 128.81 14.2087C129.475 14.1719 130.141 14.1351 130.934 14.0747C131.229 14.0331 131.525 13.9916 131.908 14.0366C132.645 14.2142 133.054 13.8627 133.279 13.1963Z" fill="#ADADA3"/>
<path d="M123.387 1.72072C123.475 2.52317 123.049 2.78341 122.389 2.7882C121.041 2.798 119.692 2.81583 118.344 2.78947C117.828 2.77938 117.648 2.95364 117.661 3.46672C117.689 4.50501 117.702 5.54591 117.659 6.58318C117.63 7.28416 117.868 7.52375 118.584 7.48444C119.76 7.41976 120.942 7.44498 122.122 7.45135C122.681 7.45436 123.257 7.53619 123.271 8.26281C123.285 9.00059 122.689 9.09185 122.144 9.10469C120.909 9.13381 119.672 9.1235 118.436 9.11375C118.027 9.11053 117.697 9.1651 117.697 9.67554C117.697 11.0743 117.697 12.473 117.697 13.9972C119.064 13.9972 120.32 13.9914 121.576 14.0006C121.967 14.0035 122.399 13.9524 122.737 14.0997C123.039 14.2312 123.474 14.6626 123.426 14.8538C123.345 15.17 122.959 15.5606 122.638 15.6305C122.047 15.7594 121.41 15.6849 120.792 15.6838C119.5 15.6814 118.208 15.6659 116.916 15.6671C116.216 15.6677 115.876 15.3106 115.875 14.6355C115.871 10.5052 115.875 6.37492 115.876 2.24462C115.876 1.50461 116.276 1.16848 116.982 1.16728C118.781 1.16422 120.579 1.14742 122.376 1.19736C122.71 1.20664 123.036 1.50169 123.387 1.72072Z" fill="#ADADA3"/>
<path d="M86.7711 2.88204C86.1565 2.77675 85.6053 2.62383 85.0545 2.62548C84.104 2.62834 83.3493 3.22986 83.0866 4.0731C82.8221 4.92233 83.1057 5.80251 83.9503 6.33803C84.8007 6.87719 85.6977 7.35382 86.6098 7.78223C88.6446 8.73798 89.6263 10.2977 89.4389 12.3901C89.2893 14.0602 88.2066 15.3167 86.582 15.7291C84.7629 16.1909 83.0763 15.9174 81.5262 14.8501C81.0485 14.5212 80.6677 14.0931 81.0358 13.5173C81.4254 12.9079 81.9857 13.0482 82.5014 13.4117C83.4827 14.1034 84.5528 14.4356 85.7557 14.2154C86.6307 14.0553 87.2406 13.5665 87.5061 12.7042C87.7906 11.7801 87.5753 10.9239 86.8521 10.3305C86.1885 9.78609 85.3929 9.39988 84.6453 8.9614C84.017 8.59292 83.3377 8.30117 82.7447 7.88466C81.3583 6.91084 80.8373 5.42002 81.2488 3.81969C81.6398 2.29878 82.9327 1.23445 84.565 1.00297C86.0605 0.790896 87.4231 1.08837 88.606 2.00682C88.8502 2.19638 88.9924 2.69692 88.9444 3.01879C88.9131 3.22871 88.4706 3.42011 88.1784 3.52964C88.0405 3.58135 87.8149 3.43802 87.6438 3.35325C87.3676 3.21645 87.1038 3.05499 86.7711 2.88204Z" fill="#ADADA3"/>
<path d="M27.9988 8.9932C27.3557 6.83026 26.7268 4.73418 26.1075 2.63529C25.9345 2.04912 25.7907 1.43536 26.5705 1.16402C27.2528 0.926646 27.6526 1.24981 27.904 2.14335C28.8995 5.68269 29.9006 9.22046 30.901 12.7585C30.9278 12.8535 30.969 12.9444 31.0964 13.2873C31.4889 11.9124 31.8205 10.7678 32.1421 9.62041C32.8086 7.24259 33.4689 4.86306 34.1343 2.48494C34.1947 2.26901 34.2736 2.05822 34.3445 1.84524C34.5252 1.30218 34.8577 0.930703 35.467 1.12321C36.1091 1.32611 36.2993 1.80317 36.1032 2.45728C35.1442 5.65579 34.1947 8.85719 33.2433 12.058C33.0116 12.8377 32.8021 13.6244 32.552 14.398C32.3168 15.1255 31.9609 15.7521 31.0569 15.7557C30.1383 15.7592 29.8271 15.1307 29.6074 14.3834C29.085 12.6063 28.5478 10.8335 27.9988 8.9932Z" fill="#ADADA3"/>
<path d="M147.83 7.09859C147.688 8.70055 147.67 10.2412 148.319 11.6481C148.682 12.4349 149.221 13.243 149.896 13.7613C151.194 14.758 152.939 14.3514 153.868 12.9808C154.23 12.4463 154.626 12.0644 155.229 12.5183C155.82 12.9644 155.563 13.5076 155.199 13.9888C153.171 16.6774 149.365 16.5914 147.396 13.8145C145.191 10.7065 145.389 5.43016 147.819 2.51486C149.719 0.236723 153.816 0.495076 155.374 2.99417C155.648 3.43489 155.635 3.8512 155.183 4.1745C154.697 4.52287 154.276 4.3888 153.945 3.9402C153.217 2.95517 152.274 2.45694 151.035 2.6413C149.569 2.85962 148.854 3.93599 148.33 5.1525C148.078 5.73805 147.996 6.39683 147.83 7.09859Z" fill="#ADADA3"/>
<path d="M68.8742 14.8723C68.7375 15.5137 68.4353 15.8548 67.7982 15.7361C67.1865 15.6222 67.103 15.156 67.102 14.6518C67.095 11.0257 67.0719 7.39944 67.1034 3.77369C67.1097 3.03849 66.9209 2.74947 66.1624 2.82857C65.6074 2.88643 65.0384 2.85027 64.4787 2.81165C63.976 2.77695 63.5201 2.49349 63.6504 1.97841C63.7318 1.65674 64.2125 1.21628 64.5244 1.20782C66.8556 1.14449 69.1895 1.17487 71.5225 1.17785C72.0072 1.17846 72.431 1.38365 72.3396 1.89546C72.2798 2.23054 71.9601 2.60101 71.6542 2.78496C71.4023 2.93637 70.9996 2.84361 70.6637 2.84723C68.7086 2.86837 68.9547 2.56781 68.9406 4.51566C68.9158 7.94445 68.902 11.3733 68.8742 14.8723Z" fill="#ADADA3"/>
<path d="M176.516 15.6973C175.254 15.6979 174.075 15.7071 172.895 15.6963C171.808 15.6864 171.642 15.4876 171.644 14.4189C171.653 10.487 171.647 6.55505 171.648 2.62312C171.648 2.37065 171.571 2.06004 171.688 1.87895C171.876 1.58814 172.181 1.21423 172.465 1.1888C172.753 1.16308 173.141 1.46303 173.357 1.72545C173.503 1.90153 173.446 2.26064 173.446 2.53792C173.451 5.99241 173.45 9.4469 173.451 12.9014C173.451 13.231 173.451 13.5607 173.451 13.9944C174.755 13.9944 175.954 13.9929 177.152 13.9948C178.262 13.9965 178.901 14.3143 178.796 14.8788C178.629 15.7861 177.868 15.698 177.189 15.6937C176.992 15.6925 176.796 15.6959 176.516 15.6973Z" fill="#ADADA3"/>
<path d="M54.7428 8.23281C54.1682 7.26834 53.5936 6.30388 53.0189 5.33943C52.9653 5.34702 52.9117 5.35461 52.8581 5.3622C52.8412 5.65213 52.81 5.94204 52.8097 6.23199C52.8068 8.98634 52.8025 11.7407 52.8144 14.495C52.8174 15.1761 52.745 15.7825 51.8687 15.7577C51.071 15.7351 50.9467 15.1544 50.9463 14.5151C50.9437 10.5241 50.9501 6.53304 50.936 2.54205C50.9336 1.86048 51.069 1.2825 51.8019 1.09683C52.5284 0.912796 52.9484 1.34878 53.2668 1.94069C54.8218 4.83178 56.3825 7.71984 57.9443 10.6072C58.0567 10.8149 58.1948 11.0087 58.3209 11.209C58.3949 11.1971 58.4689 11.1852 58.543 11.1733C58.543 10.8295 58.5429 10.4856 58.543 10.1417C58.5435 7.55596 58.5207 4.96981 58.5688 2.38497C58.5763 1.98261 58.8019 1.39579 59.1097 1.22557C59.8189 0.833437 60.3884 1.29484 60.3968 2.19261C60.4146 4.10363 60.3987 6.01496 60.3989 7.92615C60.3991 10.0622 60.4036 12.1982 60.4024 14.3343C60.402 14.9424 60.3753 15.56 59.6265 15.7392C58.8794 15.918 58.5136 15.4696 58.1994 14.8645C57.0873 12.7232 55.9437 10.5982 54.8648 8.42415C55.4399 9.26347 55.965 10.1441 56.484 11.0282C57.131 12.1305 57.8335 13.2063 58.3901 14.3527C58.6485 14.8848 58.8519 15.3436 59.4918 15.2606C60.184 15.1709 60.1238 14.5925 60.1235 14.0804C60.1217 10.3726 60.1227 6.66474 60.1218 2.95691C60.1218 2.76048 60.1824 2.52085 60.0931 2.37682C59.9199 2.09755 59.66 1.87206 59.4361 1.62427C59.2143 1.89466 58.8054 2.16136 58.8 2.43601C58.7507 4.935 58.771 7.43538 58.7731 9.93535C58.7735 10.3704 58.822 10.8099 58.7713 11.2383C58.7508 11.4106 58.5335 11.6738 58.3869 11.687C58.2176 11.7023 57.9516 11.5304 57.8585 11.3657C57.1403 10.0959 56.4491 8.81076 55.7588 7.52538C54.8133 5.76487 53.8789 3.99843 52.9331 2.23808C52.7273 1.85504 52.5909 1.39036 51.96 1.54724C51.2911 1.71358 51.1775 2.184 51.1783 2.75696C51.18 4.00699 51.1792 5.25703 51.1794 6.50706C51.18 9.09131 51.1761 11.6756 51.1857 14.2598C51.1871 14.6536 51.0611 15.0508 51.8092 15.0413C52.499 15.0324 52.5348 14.7785 52.5334 14.2694C52.5255 11.4043 52.5194 8.53904 52.5462 5.67414C52.5488 5.39559 52.7799 5.11917 52.9049 4.84176C53.1191 5.04768 53.3813 5.22312 53.5361 5.46679C53.7577 5.81576 53.9114 6.21006 54.0749 6.59317C54.3067 7.13582 54.521 7.6859 54.7428 8.23281Z" fill="#ADADA3"/>
<path d="M77.4586 14.5389C77.2336 14.9912 77.0957 15.5441 76.7664 15.7048C76.1549 16.0032 75.6697 15.5616 75.6633 14.8001C75.6476 12.9201 75.6563 11.0398 75.6562 9.1597C75.656 6.91471 75.6594 4.66974 75.6557 2.42475C75.6547 1.78896 75.6039 1.11962 76.5167 1.09944C77.1581 1.08525 77.459 1.54361 77.4596 2.50814C77.4622 6.49298 77.4599 10.4778 77.4586 14.5389Z" fill="#ADADA3"/>
<path d="M140.332 14.0605C140.331 10.1878 140.327 6.39464 140.332 2.60144C140.333 2.29709 140.288 1.89827 140.454 1.71098C140.695 1.43851 141.119 1.16177 141.444 1.18496C141.687 1.20232 142.042 1.66691 142.091 1.97343C142.192 2.60347 142.123 3.26104 142.123 3.90728C142.123 7.39141 142.122 10.8756 142.123 14.3597C142.123 15.3608 141.861 15.8063 141.216 15.7551C140.375 15.6884 140.319 15.0483 140.332 14.3928C140.333 14.3085 140.332 14.2242 140.332 14.0605Z" fill="#ADADA3"/>
<path d="M168.324 15.3688C167.419 16.0592 166.874 15.8853 166.558 14.887C166.307 14.0938 166.248 13.0251 165.7 12.6025C165.183 12.2032 164.138 12.482 163.325 12.4714C162.736 12.4637 162.142 12.5101 161.557 12.4603C160.877 12.4025 160.594 12.7425 160.455 13.3379C160.314 13.9389 160.135 14.5306 159.983 15.129C159.841 15.6898 159.364 15.8834 158.955 15.7189C158.634 15.5895 158.236 15.0892 158.257 14.7805C158.309 14.044 158.564 13.3161 158.779 12.5975C159.8 9.18757 160.847 5.78555 161.855 2.37174C162.069 1.64698 162.459 1.13639 163.204 1.06908C163.984 0.998647 164.491 1.52467 164.711 2.19333C165.242 3.80851 165.676 5.45514 166.178 7.08054C166.789 9.06248 167.464 11.0254 168.037 13.018C168.248 13.7517 168.247 14.5465 168.324 15.3688ZM164.381 12.1607C165.966 11.9066 166.215 12.0715 166.605 13.6179C166.687 13.9427 166.708 14.3269 166.902 14.5677C167.129 14.8503 167.513 15.0062 167.83 15.217C167.905 14.887 168.109 14.5228 168.032 14.2328C167.704 12.9947 167.115 11.8001 166.963 10.5482C166.807 9.25762 165.94 8.29938 165.755 7.01656C165.538 5.51869 164.889 4.08638 164.473 2.61292C164.286 1.95029 163.883 1.36164 163.26 1.50754C162.784 1.61917 162.228 2.21712 162.07 2.71414C161.454 4.64404 160.991 6.62236 160.454 8.57782C160.211 9.46223 159.926 10.3352 159.661 11.2134C159.324 12.3273 158.969 13.4363 158.67 14.5602C158.62 14.7465 158.817 14.9983 158.9 15.2199C159.13 15.109 159.471 15.0575 159.569 14.8754C159.817 14.4159 160.026 13.9109 160.123 13.4C160.353 12.1989 160.457 12.0602 161.648 12.0837C162.512 12.1007 163.375 12.1657 164.381 12.1607Z" fill="#ADADA3"/>
<path d="M128.658 2.84741C128.712 6.1223 128.721 9.43822 128.733 12.7541C128.734 13.1468 128.755 13.5395 128.786 14.0083C128.686 13.9048 128.464 13.7257 128.463 13.5452C128.442 10.1474 128.445 6.74951 128.455 3.35166C128.455 3.19711 128.557 3.04283 128.658 2.84741Z" fill="#ADADA3"/>
<path d="M134.763 7.29503C134.503 6.54357 134.379 5.69938 134.045 4.94881C133.431 3.56833 132.331 2.79547 130.771 2.77384C130.215 2.76613 129.658 2.75205 129.028 2.71291C129.479 2.61013 130.006 2.46915 130.531 2.47272C132.202 2.48407 133.637 3.0228 134.284 4.69687C134.592 5.49403 134.64 6.39214 134.763 7.29503Z" fill="#ADADA3"/>
<path d="M133.339 13.2C134.449 11.5869 134.823 9.77355 134.762 7.75879C134.854 8.11892 134.977 8.55476 134.988 8.99341C134.999 9.45941 134.861 9.92854 134.866 10.3955C134.88 11.6077 134.168 12.423 133.339 13.2Z" fill="#ADADA3"/>
<path d="M131.865 13.9934C132.266 13.7047 132.71 13.4593 133.21 13.2039C133.054 13.8627 132.645 14.2142 131.865 13.9934Z" fill="#ADADA3"/>
<path d="M128.804 14.1433C129.416 14.0751 130.035 14.0722 130.73 14.0839C130.141 14.1351 129.475 14.172 128.804 14.1433Z" fill="#ADADA3"/>
<path d="M54.7497 8.2692C54.521 7.68557 54.3067 7.13549 54.0749 6.59284C53.9113 6.20974 53.7576 5.81543 53.536 5.46647C53.3813 5.2228 53.1191 5.04735 52.9049 4.84143C52.7799 5.11885 52.5488 5.39526 52.5462 5.67382C52.5194 8.53872 52.5254 11.404 52.5333 14.2691C52.5347 14.7782 52.499 15.0321 51.8091 15.0409C51.0611 15.0505 51.1871 14.6533 51.1856 14.2595C51.176 11.6753 51.1799 9.09099 51.1794 6.50674C51.1792 5.2567 51.1799 4.00666 51.1782 2.75663C51.1774 2.18367 51.2911 1.71325 51.96 1.54691C52.5908 1.39004 52.7273 1.85471 52.9331 2.23775C53.8789 3.99811 54.8133 5.76454 55.7587 7.52505C56.449 8.81043 57.1403 10.0956 57.8585 11.3654C57.9516 11.53 58.2176 11.702 58.3869 11.6867C58.5334 11.6735 58.7508 11.4103 58.7712 11.238C58.822 10.8096 58.7734 10.3701 58.7731 9.93503C58.7709 7.43506 58.7507 4.93467 58.7999 2.43568C58.8053 2.16103 59.2143 1.89433 59.436 1.62394C59.66 1.87173 59.9198 2.09723 60.093 2.37649C60.1824 2.52052 60.1218 2.76015 60.1218 2.95658C60.1227 6.66441 60.1217 10.3723 60.1235 14.0801C60.1237 14.5922 60.184 15.1706 59.4918 15.2603C58.8519 15.3433 58.6485 14.8845 58.3901 14.3524C57.8335 13.206 57.131 12.1302 56.484 11.0279C55.965 10.1437 55.4398 9.26314 54.8669 8.36585C54.8164 8.35073 54.7566 8.30593 54.7497 8.2692Z" fill="#ADADA3"/>
<path d="M164.31 12.185C163.375 12.1657 162.512 12.1007 161.648 12.0837C160.457 12.0602 160.353 12.1989 160.123 13.4C160.026 13.9109 159.817 14.4159 159.569 14.8754C159.471 15.0575 159.13 15.109 158.9 15.2199C158.817 14.9983 158.62 14.7465 158.67 14.5602C158.969 13.4363 159.324 12.3273 159.661 11.2134C159.926 10.3352 160.211 9.46223 160.454 8.57781C160.991 6.62236 161.454 4.64404 162.07 2.71413C162.228 2.21712 162.784 1.61917 163.26 1.50754C163.883 1.36164 164.286 1.95029 164.473 2.61291C164.889 4.08638 165.539 5.51869 165.755 7.01655C165.94 8.29938 166.807 9.25761 166.963 10.5482C167.115 11.8001 167.704 12.9947 168.032 14.2328C168.109 14.5228 167.905 14.887 167.83 15.217C167.513 15.0062 167.129 14.8503 166.902 14.5677C166.708 14.3269 166.687 13.9427 166.605 13.6179C166.215 12.0715 165.966 11.9066 164.31 12.185ZM163.03 3.9178C162.401 6.1987 161.773 8.47961 161.134 10.7944C162.646 10.7944 164.003 10.7944 165.487 10.7944C164.768 8.20562 164.077 5.71638 163.328 3.0178C163.185 3.42819 163.121 3.61083 163.03 3.9178Z" fill="#ADADA3"/>
</svg>
