<svg width="96" height="30" viewBox="0 0 96 30" fill="none" xmlns="http://www.w3.org/2000/svg">
<g clip-path="url(#clip0_2_292)">
<path d="M50.2658 7.584C50.2658 8.65836 49.4037 9.52381 48.3336 9.52381C47.2636 9.52381 46.4015 8.65836 46.4015 7.584C46.4015 6.50965 47.2338 5.6442 48.3336 5.6442C49.4335 5.67405 50.2658 6.53949 50.2658 7.584ZM42.2995 11.4935C42.2995 11.6725 42.2995 11.9709 42.2995 11.9709C42.2995 11.9709 41.3781 10.7772 39.4162 10.7772C36.1763 10.7772 33.6497 13.2542 33.6497 16.6862C33.6497 20.0883 36.1465 22.5951 39.4162 22.5951C41.4078 22.5951 42.2995 21.3715 42.2995 21.3715V21.8789C42.2995 22.1176 42.4779 22.2967 42.7157 22.2967H45.1234V11.0756C45.1234 11.0756 42.9238 11.0756 42.7157 11.0756C42.4779 11.0756 42.2995 11.2845 42.2995 11.4935ZM42.2995 18.6856C41.8537 19.3422 40.9619 19.9092 39.8918 19.9092C37.9895 19.9092 36.5329 18.7155 36.5329 16.6862C36.5329 14.6568 37.9895 13.4631 39.8918 13.4631C40.9322 13.4631 41.8834 14.06 42.2995 14.6867V18.6856ZM46.9069 11.0756H49.7604V22.2967H46.9069V11.0756ZM89.5321 10.7772C87.5702 10.7772 86.6488 11.9709 86.6488 11.9709V5.67405H83.7952V22.2967C83.7952 22.2967 85.9948 22.2967 86.2029 22.2967C86.4407 22.2967 86.619 22.0878 86.619 21.8789V21.3715C86.619 21.3715 87.5405 22.5951 89.5023 22.5951C92.7423 22.5951 95.2689 20.0883 95.2689 16.6862C95.2689 13.284 92.7423 10.7772 89.5321 10.7772ZM89.0565 19.8794C87.9566 19.8794 87.0946 19.3123 86.6488 18.6558V14.6568C87.0946 14.06 88.0458 13.4333 89.0565 13.4333C90.9588 13.4333 92.4154 14.627 92.4154 16.6563C92.4154 18.6856 90.9588 19.8794 89.0565 19.8794ZM82.309 15.6416V22.3265H79.4554V15.9699C79.4554 14.1196 78.8609 13.3736 77.2558 13.3736C76.3937 13.3736 75.502 13.8212 74.9372 14.4778V22.2967H72.0837V11.0756H74.3427C74.5805 11.0756 74.7589 11.2845 74.7589 11.4935V11.9709C75.5912 11.1055 76.691 10.7772 77.7908 10.7772C79.0392 10.7772 80.0796 11.1353 80.9119 11.8516C81.9225 12.6872 82.309 13.7615 82.309 15.6416ZM65.1578 10.7772C63.196 10.7772 62.2745 11.9709 62.2745 11.9709V5.67405H59.421V22.2967C59.421 22.2967 61.6206 22.2967 61.8287 22.2967C62.0665 22.2967 62.2448 22.0878 62.2448 21.8789V21.3715C62.2448 21.3715 63.1663 22.5951 65.1281 22.5951C68.3681 22.5951 70.8947 20.0883 70.8947 16.6862C70.9244 13.284 68.3978 10.7772 65.1578 10.7772ZM64.6822 19.8794C63.5824 19.8794 62.7204 19.3123 62.2745 18.6558V14.6568C62.7204 14.06 63.6716 13.4333 64.6822 13.4333C66.5846 13.4333 68.0411 14.627 68.0411 16.6563C68.0411 18.6856 66.5846 19.8794 64.6822 19.8794ZM56.9538 10.7772C57.8158 10.7772 58.2617 10.9264 58.2617 10.9264V13.5825C58.2617 13.5825 55.8837 12.7767 54.3975 14.4778V22.3265H51.5439V11.0756C51.5439 11.0756 53.7435 11.0756 53.9516 11.0756C54.1894 11.0756 54.3678 11.2845 54.3678 11.4935V11.9709C54.9028 11.3442 56.0621 10.7772 56.9538 10.7772ZM27.3183 21.282C27.1697 20.9239 27.021 20.5359 26.8724 20.2076C26.6346 19.6705 26.3968 19.1631 26.1888 18.6856L26.159 18.6558C24.108 14.1793 21.9084 9.64318 19.5899 5.16671L19.5007 4.98765C19.2629 4.54001 19.0251 4.06252 18.7873 3.58503C18.4901 3.04785 18.1928 2.48083 17.7172 1.94366C16.766 0.749932 15.3987 0.0933838 13.9422 0.0933838C12.456 0.0933838 11.1183 0.749932 10.1374 1.88397C9.69156 2.42115 9.36459 2.98817 9.06734 3.52534C8.82955 4.00283 8.59175 4.48032 8.35395 4.92797L8.26478 5.10703C5.97598 9.58349 3.74662 14.1196 1.69562 18.5961L1.6659 18.6558C1.45782 19.1333 1.22003 19.6406 0.98223 20.1778C0.833606 20.5061 0.684983 20.8642 0.536359 21.2521C0.149939 22.3563 0.0310398 23.4009 0.179663 24.4752C0.506635 26.7134 1.99287 28.5936 4.04387 29.4292C4.81671 29.7574 5.61928 29.9066 6.45157 29.9066C6.68937 29.9066 6.98662 29.8768 7.22441 29.847C8.20533 29.7276 9.21597 29.3993 10.1969 28.8323C11.4156 28.1459 12.5749 27.1611 13.8827 25.7286C15.1906 27.1611 16.3796 28.1459 17.5686 28.8323C18.5495 29.3993 19.5602 29.7276 20.5411 29.847C20.7789 29.8768 21.0761 29.9066 21.3139 29.9066C22.1462 29.9066 22.9785 29.7574 23.7216 29.4292C25.8023 28.5936 27.2588 26.6836 27.5858 24.4752C27.8236 23.4307 27.7047 22.3862 27.3183 21.282ZM13.9125 22.8338C12.3073 20.8045 11.267 18.8945 10.9103 17.283C10.7617 16.5966 10.7319 15.9998 10.8211 15.4626C10.8805 14.9851 11.0589 14.5673 11.2967 14.2092C11.8615 13.4034 12.8127 12.8961 13.9125 12.8961C15.0123 12.8961 15.9932 13.3736 16.5282 14.2092C16.766 14.5673 16.9444 14.9851 17.0038 15.4626C17.093 15.9998 17.0633 16.6265 16.9147 17.283C16.558 18.8647 15.5176 20.7747 13.9125 22.8338ZM25.7726 24.2365C25.5645 25.7883 24.5242 27.1312 23.0677 27.7281C22.3543 28.0265 21.5814 28.1161 20.8086 28.0265C20.0655 27.937 19.3224 27.6983 18.5495 27.2506C17.4794 26.6537 16.4093 25.7286 15.1609 24.3558C17.1227 21.9385 18.3117 19.7301 18.7576 17.7605C18.9657 16.8354 18.9954 15.9998 18.9062 15.2238C18.7873 14.4778 18.5198 13.7914 18.1036 13.1945C17.1822 11.8516 15.6365 11.0756 13.9125 11.0756C12.1884 11.0756 10.6428 11.8814 9.72129 13.1945C9.30514 13.7914 9.03762 14.4778 8.91872 15.2238C8.79982 15.9998 8.82955 16.8652 9.06734 17.7605C9.51321 19.7301 10.7319 21.9684 12.664 24.3857C11.4453 25.7585 10.3455 26.6836 9.27542 27.2805C8.50257 27.7281 7.75946 27.9668 7.01634 28.0564C6.21377 28.1459 5.44093 28.0265 4.75726 27.7579C3.30075 27.1611 2.26039 25.8181 2.05232 24.2663C1.96314 23.5202 2.02259 22.7741 2.31984 21.9385C2.40901 21.6401 2.55764 21.3417 2.70626 20.9836C2.91433 20.5061 3.15213 19.9987 3.38993 19.4914L3.41965 19.4317C5.47066 14.9851 7.67028 10.4489 9.95908 6.03216L10.0483 5.8531C10.2861 5.40546 10.5239 4.92797 10.7617 4.48032C10.9994 4.00283 11.267 3.55518 11.5939 3.16722C12.2182 2.45099 13.0505 2.06303 13.9719 2.06303C14.8934 2.06303 15.7257 2.45099 16.3499 3.16722C16.6769 3.55518 16.9444 4.00283 17.1822 4.48032C17.42 4.92797 17.6578 5.40546 17.8956 5.8531L17.9847 6.03216C20.2438 10.4788 22.4434 15.0149 24.4945 19.4616V19.4914C24.7323 19.9689 24.9403 20.5061 25.1781 20.9836C25.3267 21.3417 25.4754 21.6401 25.5645 21.9385C25.8023 22.7145 25.8915 23.4605 25.7726 24.2365Z" fill="#ADADA3"/>
</g>
<defs>
<clipPath id="clip0_2_292">
<rect width="95.1487" height="29.8133" fill="white" transform="translate(0.120056 0.0933838)"/>
</clipPath>
</defs>
</svg>
