<svg width="105" height="20" viewBox="0 0 105 20" fill="none" xmlns="http://www.w3.org/2000/svg">
<g clip-path="url(#clip0_2_312)">
<path d="M21.2565 5.59494C17.4831 5.59494 14.5347 8.67458 14.5347 12.7973C14.5347 16.9201 17.4086 19.9733 21.2565 19.9733C25.1044 19.9733 28.0282 16.8673 28.0282 12.771C28.0282 8.70093 25.1543 5.59494 21.2565 5.59494ZM21.282 17.0022C19.1331 17.0022 17.5585 15.2079 17.5585 12.7983C17.5585 10.3614 19.1077 8.56814 21.2565 8.56814C23.4308 8.56814 25.0044 10.3888 25.0044 12.7983C25.0044 15.2079 23.4308 17.0022 21.282 17.0022ZM28.8523 8.7283H30.7267V19.7067H33.7251V5.86256H28.8523V8.7283ZM6.9889 8.56712C8.56351 8.56712 9.81282 9.61124 10.2871 11.1642H13.4608C12.8856 7.84435 10.3371 5.59494 7.01436 5.59494C3.24097 5.59494 0.292603 8.67458 0.292603 12.7983C0.292603 16.9221 3.16649 19.9744 7.01436 19.9744C10.2626 19.9744 12.8611 17.7249 13.4363 14.3777H10.2871C9.83733 15.9307 8.58802 17.0022 7.01342 17.0022C4.83915 17.0022 3.31546 15.2079 3.31546 12.7983C3.3164 10.3614 4.81558 8.56712 6.9889 8.56712ZM85.8227 11.4592L83.6239 11.1115C82.5745 10.9514 81.8249 10.5763 81.8249 9.69234C81.8249 8.7283 82.7999 8.24679 84.1237 8.24679C85.5729 8.24679 86.4978 8.91584 86.6977 10.0137H89.5961C89.2708 7.22903 87.2719 5.59595 84.1991 5.59595C81.0254 5.59595 78.9265 7.33648 78.9265 9.79979C78.9265 12.1556 80.3012 13.5221 83.0742 13.9499L85.273 14.2976C86.3479 14.4578 86.9476 14.9139 86.9476 15.7705C86.9476 16.8684 85.8981 17.3235 84.449 17.3235C82.6745 17.3235 81.675 16.547 81.5251 15.3691H78.5767C78.852 18.0737 80.8255 19.9744 84.4235 19.9744C87.6972 19.9744 89.8705 18.3676 89.8705 15.6093C89.8705 13.146 88.2968 11.8607 85.8227 11.4592ZM32.2259 0.159444C31.1265 0.159444 30.3015 1.01603 30.3015 2.19395C30.3015 3.37188 31.1256 4.22846 32.2259 4.22846C33.3253 4.22846 34.1503 3.37188 34.1503 2.19395C34.1503 1.01603 33.3253 0.159444 32.2259 0.159444ZM76.228 10.6026C76.228 7.6041 74.529 5.59595 70.9309 5.59595C67.5328 5.59595 65.6339 7.44394 65.2586 10.2823H68.2324C68.3824 9.18447 69.1819 8.27416 70.881 8.27416C72.4056 8.27416 73.1552 8.99693 73.1552 9.88089C73.1552 11.0325 71.7805 11.3264 70.0814 11.514C67.7827 11.7816 64.9343 12.6382 64.9343 15.8516C64.9343 18.3423 66.6588 19.948 69.4073 19.948C71.5561 19.948 72.9053 18.984 73.5804 17.4573C73.6804 18.8228 74.6298 19.7067 75.9546 19.7067H77.7036V16.842H76.229V10.6026H76.228ZM73.2796 14.0837C73.2796 15.9317 71.7805 17.2972 69.956 17.2972C68.8312 17.2972 67.8817 16.7883 67.8817 15.7178C67.8817 14.3523 69.4063 13.9773 70.8055 13.8171C72.1548 13.6833 72.9044 13.362 73.2796 12.7456V14.0837ZM57.363 5.59494C55.6884 5.59494 54.2892 6.34508 53.2897 7.60309V0.0256348H50.2914V19.7067H53.2398V17.8861C54.2392 19.1979 55.6639 19.9744 57.363 19.9744C60.961 19.9744 63.6849 16.9221 63.6849 12.7983C63.6849 8.67458 60.911 5.59494 57.363 5.59494ZM56.9132 17.0022C54.7644 17.0022 53.1898 15.2079 53.1898 12.7983C53.1898 10.3888 54.7889 8.56814 56.9377 8.56814C59.112 8.56814 60.6357 10.3624 60.6357 12.7983C60.6357 15.2079 59.062 17.0022 56.9132 17.0022ZM43.1199 5.59494C41.171 5.59494 39.8962 6.45152 39.1466 7.65681V5.86256H36.1728V19.7057H39.1711V12.182C39.1711 10.0664 40.4204 8.56712 42.2694 8.56712C43.9939 8.56712 45.0679 9.87886 45.0679 11.7806V19.7067H48.0662V11.5403C48.0672 8.05824 46.3936 5.59494 43.1199 5.59494ZM104.164 12.3432C104.164 8.3806 101.465 5.59595 97.8416 5.59595C93.9937 5.59595 91.1698 8.70195 91.1698 12.7983C91.1698 17.1096 94.1936 19.9744 97.8915 19.9744C101.015 19.9744 103.464 17.9926 104.088 15.1816H100.964C100.515 16.4132 99.4152 17.1096 97.9406 17.1096C96.0162 17.1096 94.5669 15.8242 94.2426 13.5748H104.163V12.3432H104.164ZM94.418 11.2717C94.8932 9.34362 96.2424 8.40696 97.7916 8.40696C99.4906 8.40696 100.79 9.45108 101.09 11.2717H94.418Z" fill="#ADADA3"/>
</g>
<defs>
<clipPath id="clip0_2_312">
<rect width="103.871" height="19.9487" fill="white" transform="translate(0.292603 0.0256348)"/>
</clipPath>
</defs>
</svg>
