<svg width="81" height="23" viewBox="0 0 81 23" fill="none" xmlns="http://www.w3.org/2000/svg">
<path d="M2.6625 3.96344C3.74887 3.96344 4.62957 3.07615 4.62957 1.98172C4.62957 0.887223 3.74887 0 2.6625 0C1.57613 0 0.695435 0.887223 0.695435 1.98172C0.695435 3.07615 1.57613 3.96344 2.6625 3.96344Z" fill="#ADADA3"/>
<path d="M31.1995 3.83423H23.8087V18.9196H31.1995C34.2784 18.9196 38.6544 17.4046 38.6544 11.0215C38.6544 4.63842 32.6107 3.83423 31.1995 3.83423ZM30.3158 15.6024H27.5006V7.22323H30.3158C33.302 7.22323 34.7345 9.01828 34.7345 11.2728C34.7345 13.5274 33.1595 15.6024 30.3158 15.6024Z" fill="#ADADA3"/>
<path d="M41.3697 7.99169C42.3499 7.99169 43.1442 7.19122 43.1442 6.20385C43.1442 5.21643 42.3499 4.41602 41.3697 4.41602C40.39 4.41602 39.5951 5.21643 39.5951 6.20385C39.5951 7.19122 40.39 7.99169 41.3697 7.99169Z" fill="#ADADA3"/>
<path d="M39.6024 8.86752H43.1515V18.9268H39.6024V8.86752ZM55.8304 8.86752L51.7182 18.9197H48.1118L44.0139 8.86752H47.5985L49.9866 15.0065L52.5091 8.86752H55.8304ZM80.8111 8.86752L76.506 19.4869C76.0001 20.7434 75.3947 21.6266 74.6673 22.1292C73.9474 22.639 73.0639 22.8903 72.0235 22.8903C71.4959 22.8903 70.9683 22.8041 70.4338 22.639C69.8993 22.4738 69.4718 22.2441 69.1371 21.9712L70.3485 19.4654C70.5482 19.6521 70.7834 19.8028 71.0541 19.9105C71.3322 20.0182 71.6098 20.0685 71.8879 20.0685C72.2158 20.0685 72.4939 19.9967 72.7074 19.8602C72.9214 19.7239 73.1068 19.5013 73.2493 19.1997L68.9871 8.86037H72.5723L75.0164 15.0927L77.4828 8.86037H80.8111V8.86752ZM64.0909 18.9197L68.2031 8.86752H64.8749L62.3587 15.0065L59.9712 8.86752H56.3867L60.4846 18.9197H64.0909ZM7.80824 8.87473C7.99027 8.68875 8.20722 8.54111 8.44642 8.44033C8.68562 8.3395 8.94228 8.2876 9.20156 8.2876C9.46085 8.2876 9.71751 8.3395 9.95671 8.44033C10.1959 8.54111 10.4129 8.68875 10.5949 8.87473C10.778 9.059 10.9231 9.27783 11.0222 9.51869C11.1213 9.75955 11.1723 10.0177 11.1723 10.2784C11.1723 10.5391 11.1213 10.7973 11.0222 11.0381C10.9231 11.279 10.778 11.4978 10.5949 11.6822C10.4129 11.8681 10.1959 12.0158 9.95671 12.1166C9.71751 12.2173 9.46085 12.2692 9.20156 12.2692C8.94228 12.2692 8.68562 12.2173 8.44642 12.1166C8.20722 12.0158 7.99027 11.8681 7.80824 11.6822C7.62517 11.4978 7.47999 11.279 7.38088 11.0381C7.28182 10.7973 7.23083 10.5391 7.23083 10.2784C7.23083 10.0177 7.28182 9.75955 7.38088 9.51869C7.47999 9.27783 7.62517 9.059 7.80824 8.87473Z" fill="#ADADA3"/>
<path d="M9.22655 0.395264L0.695435 9.01857V19.0564H17.7719V9.01857L9.22655 0.395264ZM14.2226 15.732H4.16633V10.4618L9.1909 5.37829L14.2226 10.4618V15.732Z" fill="#ADADA3"/>
<path d="M10.5949 11.6822C10.4129 11.8681 10.1959 12.0158 9.95671 12.1166C9.71751 12.2173 9.46085 12.2692 9.20156 12.2692C8.94228 12.2692 8.68562 12.2173 8.44642 12.1166C8.20722 12.0158 7.99027 11.8681 7.80824 11.6822C7.62517 11.4978 7.47999 11.279 7.38088 11.0381C7.28182 10.7973 7.23083 10.5391 7.23083 10.2784C7.23083 10.0177 7.28182 9.75955 7.38088 9.51869C7.47999 9.27783 7.62517 9.059 7.80824 8.87473C7.99027 8.68875 8.20722 8.54111 8.44642 8.44033C8.68562 8.3395 8.94228 8.2876 9.20156 8.2876C9.46085 8.2876 9.71751 8.3395 9.95671 8.44033C10.1959 8.54111 10.4129 8.68875 10.5949 8.87473C10.778 9.059 10.9231 9.27783 11.0222 9.51869C11.1213 9.75955 11.1723 10.0177 11.1723 10.2784C11.1723 10.5391 11.1213 10.7973 11.0222 11.0381C10.9231 11.279 10.778 11.4978 10.5949 11.6822Z" fill="#ADADA3"/>
<path d="M10.5949 11.6822C10.4129 11.8681 10.1959 12.0158 9.95671 12.1166C9.71751 12.2173 9.46085 12.2692 9.20156 12.2692C8.94228 12.2692 8.68562 12.2173 8.44642 12.1166C8.20722 12.0158 7.99027 11.8681 7.80824 11.6822C7.62517 11.4978 7.47999 11.279 7.38088 11.0381C7.28182 10.7973 7.23083 10.5391 7.23083 10.2784C7.23083 10.0177 7.28182 9.75955 7.38088 9.51869C7.47999 9.27783 7.62517 9.059 7.80824 8.87473C7.99027 8.68875 8.20722 8.54111 8.44642 8.44033C8.68562 8.3395 8.94228 8.2876 9.20156 8.2876C9.46085 8.2876 9.71751 8.3395 9.95671 8.44033C10.1959 8.54111 10.4129 8.68875 10.5949 8.87473C10.778 9.059 10.9231 9.27783 11.0222 9.51869C11.1213 9.75955 11.1723 10.0177 11.1723 10.2784C11.1723 10.5391 11.1213 10.7973 11.0222 11.0381C10.9231 11.279 10.778 11.4978 10.5949 11.6822Z" fill="#ADADA3"/>
</svg>
