<svg width="101" height="20" viewBox="0 0 101 20" fill="none" xmlns="http://www.w3.org/2000/svg">
<path d="M7.48826 2.12061H0.423242C0.188719 2.12061 0 2.30871 0 2.54507V18.4511C0 18.6832 0.188719 18.8719 0.423242 18.8719H7.51147C13.0808 18.8719 16.6805 15.5807 16.6805 10.4847C16.6799 5.40271 13.0716 2.12061 7.48826 2.12061ZM7.48826 14.4551H5.07462V6.54113H7.51086C10.0271 6.54113 11.5301 8.01362 11.5301 10.4847C11.5301 12.4567 10.1425 14.4551 7.48826 14.4551Z" fill="#ADADA3"/>
<path d="M48.0009 6.44092C46.0514 6.44092 44.466 7.51215 43.7581 8.57606C43.239 7.15915 42.0627 6.44092 40.2671 6.44092C38.2792 6.44092 36.7731 7.4468 36.2485 8.12228V7.16525C36.2485 6.93012 36.0585 6.74323 35.8258 6.74323H32.1498C31.9165 6.74323 31.729 6.93073 31.729 7.16525V18.4511C31.729 18.6826 31.9165 18.8719 32.1498 18.8719H35.8258C36.0591 18.8719 36.2485 18.6819 36.2485 18.4511V11.3879L36.2491 11.3842C36.5154 11.0776 37.0675 10.4339 38.0819 10.4339C38.9724 10.4339 39.4646 10.917 39.4646 11.7904V18.4511C39.4646 18.6826 39.6539 18.8719 39.886 18.8719H43.5621C43.7947 18.8719 43.9853 18.6819 43.9853 18.4511V11.3879C44.2497 11.0783 44.8031 10.4339 45.8413 10.4339C46.7208 10.4339 47.224 10.9286 47.224 11.7904V18.4511C47.224 18.6826 47.4122 18.8719 47.6461 18.8719H51.3233C51.556 18.8719 51.7453 18.6819 51.7453 18.4511V10.0834C51.7453 7.73385 50.4164 6.44092 48.0009 6.44092Z" fill="#ADADA3"/>
<path d="M57.6855 6.74261H54.0095C53.7756 6.74261 53.5862 6.93133 53.5862 7.16463V18.4505C53.5862 18.6819 53.7762 18.8713 54.0095 18.8713H57.6855C57.9176 18.8713 58.1082 18.6813 58.1082 18.4505V7.16525C58.1082 6.93133 57.9176 6.74261 57.6855 6.74261Z" fill="#ADADA3"/>
<path d="M55.9577 0.789734C54.5597 0.789734 53.4207 1.92815 53.4207 3.32613C53.4207 4.72655 54.5597 5.86252 55.9577 5.86252C57.355 5.86252 58.4953 4.72655 58.4953 3.32613C58.4953 1.92754 57.355 0.789734 55.9577 0.789734Z" fill="#ADADA3"/>
<path d="M68.7123 6.44092C66.3695 6.44092 65.0949 7.49505 64.5458 8.12228V7.16525C64.5458 6.93012 64.3553 6.74323 64.1232 6.74323H60.4459C60.2145 6.74323 60.0239 6.93073 60.0239 7.16525V18.4511C60.0239 18.6826 60.2145 18.8719 60.4459 18.8719H64.1232C64.3553 18.8719 64.5458 18.6819 64.5458 18.4511V11.3879C64.8384 11.0557 65.3856 10.4339 66.4782 10.4339C67.6459 10.4339 68.2371 11.0172 68.2371 12.1641V18.4511C68.2371 18.6826 68.4265 18.8719 68.6604 18.8719H72.3352C72.5691 18.8719 72.7572 18.6819 72.7572 18.4511V10.2599C72.7572 7.86821 71.2462 6.44092 68.7123 6.44092Z" fill="#ADADA3"/>
<path d="M23.9679 6.3847C20.4311 6.3847 17.5643 9.25334 17.5643 12.7846C17.5643 16.3257 20.4311 19.1913 23.9679 19.1913C27.5052 19.1913 30.3714 16.3257 30.3714 12.7846C30.3721 9.25334 27.5052 6.3847 23.9679 6.3847ZM23.9679 14.8831C22.7604 14.8831 21.7845 13.9047 21.7845 12.6942C21.7845 11.4886 22.7604 10.5133 23.9679 10.5133C25.1753 10.5133 26.1537 11.4893 26.1537 12.6942C26.1537 13.9053 25.1753 14.8831 23.9679 14.8831Z" fill="#ADADA3"/>
<path d="M80.4995 6.4043C76.9652 6.4043 74.099 9.2711 74.099 12.8054C74.099 16.3453 76.9652 19.2103 80.4995 19.2103C84.0375 19.2103 86.9068 16.3453 86.9068 12.8054C86.9074 9.27171 84.0375 6.4043 80.4995 6.4043ZM80.4995 14.9021C79.2939 14.9021 78.3168 13.9219 78.3168 12.7132C78.3168 11.5095 79.2945 10.5323 80.4995 10.5323C81.7088 10.5323 82.6854 11.5101 82.6854 12.7132C82.6854 13.9219 81.7094 14.9021 80.4995 14.9021Z" fill="#ADADA3"/>
<path d="M90.4381 2.8265C90.4381 2.82406 90.4381 2.82161 90.4375 2.81917C90.4369 2.81612 90.4351 2.81367 90.4351 2.81062C90.4332 2.80207 90.4308 2.7923 90.4284 2.78497H90.4271C90.1444 1.52318 88.7714 0.610741 87.4174 0.890459C86.0506 1.17384 85.1528 2.44601 85.4179 3.72734C85.6371 4.78452 86.5789 5.51985 87.669 5.58642C87.5994 6.01883 87.2177 6.40542 86.8995 6.58498C86.6864 6.70407 86.814 6.93371 86.814 6.93371L87.0949 7.34962C87.1762 7.49071 87.2995 7.56277 87.4449 7.50231C90.2457 6.35412 90.7264 3.96858 90.4381 2.8265Z" fill="#ADADA3"/>
<path d="M93.6963 10.3515C93.6847 9.8989 94.2722 9.69858 95.0082 9.69858C96.4709 9.69858 97.3046 10.1163 98.2372 10.7307C98.3336 10.7955 98.4533 10.8181 98.5669 10.79C98.6812 10.7631 98.7789 10.6892 98.8351 10.5872L100.076 8.42886C100.19 8.22976 100.122 7.97752 99.9265 7.85965C98.9065 7.25074 97.4127 6.46472 94.8182 6.46472C91.0781 6.46472 89.0749 8.22548 89.4102 10.757C89.9983 15.2056 96.9161 13.6806 96.808 15.1989C96.7836 15.5501 96.1716 15.8121 95.1126 15.8121C93.7433 15.8121 92.1878 15.1256 91.2057 14.5185C91.1092 14.4581 90.9895 14.4397 90.8802 14.4697C90.7678 14.4984 90.6744 14.5692 90.6182 14.67L89.1836 17.0598C89.0749 17.2528 89.1304 17.4965 89.3143 17.6205C90.6909 18.5494 92.914 19.1736 94.8439 19.1736C98.5889 19.1736 100.747 17.5649 100.749 14.9216C100.75 10.0436 93.7275 11.5558 93.6963 10.3515Z" fill="#ADADA3"/>
</svg>
