<svg width="97" height="23" viewBox="0 0 97 23" fill="none" xmlns="http://www.w3.org/2000/svg">
<path d="M13.5081 5.46373C14.1849 4.75695 14.8006 4.11474 15.4163 3.47138C16.311 2.53516 17.2069 1.60009 18.097 0.660414C18.1915 0.561258 18.2526 0.508221 18.3714 0.632743C19.891 2.22847 21.413 3.82073 22.9822 5.46373C22.77 5.46373 22.612 5.46373 22.4552 5.46373C21.6482 5.46373 20.8411 5.47641 20.0351 5.45681C19.7538 5.44989 19.6858 5.53637 19.6858 5.81078C19.695 10.9104 19.6927 16.01 19.6939 21.1108C19.6939 21.4371 19.6869 21.7646 19.6962 22.0909C19.7008 22.2638 19.6408 22.3284 19.4633 22.3272C18.6562 22.3203 17.8491 22.3191 17.0432 22.3272C16.8483 22.3295 16.7837 22.2546 16.8022 22.0736C16.8103 21.9975 16.8033 21.9202 16.8033 21.843C16.8033 16.522 16.8033 11.201 16.8033 5.87996C16.8033 5.60247 16.6619 5.46335 16.379 5.46258C15.4497 5.46258 14.5193 5.46258 13.5081 5.46258V5.46373Z" fill="#ADADA3"/>
<path d="M7.01229 7.97974C7.01575 8.07544 7.02267 8.17113 7.02267 8.26683C7.02267 12.828 7.02267 17.3904 7.02267 21.9516C7.02267 22.1983 6.897 22.322 6.64565 22.3228C5.91581 22.3228 5.18482 22.3101 4.45614 22.3297C4.17942 22.3378 4.12408 22.241 4.12408 21.9861C4.131 16.6271 4.12869 11.268 4.12869 5.90898C4.12869 5.60767 3.97919 5.45702 3.68018 5.45702C2.75895 5.45702 1.83887 5.45702 0.834625 5.45702C1.11826 5.1607 1.35231 4.91627 1.58637 4.67068C2.86041 3.3413 4.13561 2.01191 5.40273 0.675607C5.53533 0.536096 5.61142 0.526873 5.74517 0.667536C7.2083 2.201 8.67605 3.72985 10.1426 5.26101C10.1876 5.30713 10.2245 5.36017 10.3029 5.45702H7.03651C6.91544 5.55733 6.77017 5.55156 6.6272 5.55156C6.08184 5.55156 5.53533 5.55041 4.98997 5.55271C4.8885 5.55271 4.78012 5.52504 4.66944 5.59768C4.83662 5.82597 5.03954 6.01506 5.24823 6.19262C5.77399 6.63997 6.22827 7.16227 6.75979 7.60387C6.88085 7.70533 6.9558 7.83677 7.0146 7.97974H7.01229Z" fill="#ADADA3"/>
<path d="M24.5929 13.6615C24.5929 11.9424 24.5998 10.2233 24.586 8.50536C24.5837 8.23095 24.6701 8.1733 24.9227 8.18022C25.5176 8.19752 26.1137 8.19752 26.7086 8.18022C26.9346 8.1733 26.9738 8.2471 26.9715 8.45348C26.9623 9.71138 26.9727 10.9693 26.9611 12.2272C26.9588 12.4555 27.0245 12.5131 27.2482 12.512C28.6018 12.5016 29.9566 12.5016 31.3102 12.512C31.5477 12.5143 31.5961 12.4347 31.5949 12.2168C31.5857 10.9681 31.595 9.7206 31.5857 8.47193C31.5834 8.24825 31.6411 8.17446 31.8728 8.18022C32.4966 8.19636 33.1215 8.19175 33.7453 8.18138C33.9355 8.17792 33.9897 8.23787 33.9885 8.42696C33.9839 11.9228 33.9839 15.4175 33.9885 18.9133C33.9885 19.1013 33.9378 19.1612 33.7464 19.1577C33.1123 19.1462 32.4781 19.1462 31.8451 19.1577C31.6434 19.1612 31.5846 19.1036 31.5857 18.9006C31.5938 17.5943 31.5834 16.2891 31.5961 14.9828C31.5984 14.7303 31.535 14.6588 31.2779 14.6611C29.9335 14.675 28.5891 14.6727 27.2448 14.6611C27.013 14.6588 26.96 14.728 26.9623 14.9505C26.9727 16.2661 26.9634 17.5816 26.9715 18.8972C26.9727 19.0909 26.9335 19.1624 26.7225 19.1577C26.1079 19.1428 25.4934 19.1393 24.8788 19.1589C24.6217 19.167 24.5871 19.0701 24.5883 18.8464C24.5964 17.1181 24.5929 15.3898 24.5929 13.6615Z" fill="#ADADA3"/>
<path d="M52.4571 11.5906C52.9667 11.0775 53.519 10.7996 54.1405 10.6751C56.142 10.2727 57.8934 11.3046 58.1563 13.3904C58.2255 13.9369 58.2278 14.4811 58.2289 15.0264C58.2312 16.3132 58.2301 17.5999 58.2289 18.8866C58.2289 19.0123 58.275 19.1587 58.0467 19.1553C57.4034 19.1449 56.76 19.1449 56.1167 19.1553C55.8884 19.1587 55.9345 19.0123 55.9345 18.8866C55.9333 17.4938 55.9333 16.1022 55.9345 14.7094C55.9345 14.3808 55.9103 14.051 55.7996 13.7455C55.4548 12.7873 54.4552 12.4253 53.5086 12.8923C52.8791 13.2024 52.6024 13.7455 52.5055 14.4027C52.4686 14.6575 52.4594 14.9192 52.4583 15.1775C52.4536 16.4066 52.4513 17.6356 52.4606 18.8647C52.4617 19.078 52.4248 19.1668 52.1827 19.1587C51.597 19.1391 51.0113 19.146 50.4255 19.1564C50.2365 19.1599 50.1592 19.123 50.1592 18.9097C50.1661 15.1936 50.165 11.4776 50.1592 7.76035C50.1592 7.56665 50.2238 7.51823 50.4083 7.52168C51.0136 7.53206 51.6189 7.53437 52.223 7.52168C52.4237 7.51707 52.4594 7.59202 52.4583 7.77188C52.4513 8.92371 52.4548 10.0767 52.4548 11.2285C52.4548 11.3219 52.4548 11.4141 52.4548 11.5917L52.4571 11.5906Z" fill="#ADADA3"/>
<path d="M13.5357 15.1301C13.5392 17.0879 13.5427 19.0468 13.545 21.0046C13.545 21.3689 13.5404 21.7344 13.5473 22.0988C13.5507 22.2567 13.4977 22.3224 13.3328 22.3213C12.3828 22.3167 11.4316 22.3144 10.4815 22.3213C10.214 22.3236 10.2567 22.1483 10.2567 21.9892C10.2567 19.6279 10.2567 17.2666 10.2567 14.9053C10.2567 14.1951 10.2567 13.4848 10.2567 12.7746C10.2567 12.5294 10.1295 12.4068 9.87503 12.4068C9.12675 12.4068 8.37731 12.4068 7.62903 12.4057C7.53679 12.4057 7.43879 12.431 7.31311 12.3561C7.56792 12.0782 7.8112 11.8038 8.0637 11.5386C9.32967 10.215 10.5991 8.89598 11.8616 7.5689C11.9873 7.43746 12.0357 7.49627 12.128 7.59312C13.3259 8.84756 14.5285 10.0985 15.7287 11.3507C16.0458 11.6816 16.3605 12.0148 16.6638 12.423H13.545C13.4193 12.5417 13.2613 12.5233 13.1091 12.5244C12.3136 12.5267 11.5192 12.5244 10.6787 12.5256C10.8654 12.755 11.0764 12.8968 11.2644 13.0629C11.9181 13.6405 12.5822 14.2066 13.2406 14.7785C13.3582 14.8811 13.44 15.0091 13.5346 15.129L13.5357 15.1301Z" fill="#ADADA3"/>
<path d="M60.1923 13.6613C60.1923 11.933 60.1958 10.2036 60.1877 8.47523C60.1877 8.25963 60.2303 8.17315 60.4702 8.18007C61.0847 8.19736 61.7004 8.19852 62.3138 8.18007C62.5536 8.17315 62.594 8.25963 62.5928 8.47408C62.5859 11.2205 62.5928 13.968 62.5824 16.7144C62.5824 16.9923 62.6297 17.0868 62.9364 17.0834C64.4341 17.0638 65.933 17.0799 67.4319 17.0695C67.6555 17.0684 67.727 17.1226 67.719 17.3532C67.7005 17.8709 67.7063 18.3909 67.7166 18.9086C67.7201 19.0896 67.6798 19.1576 67.4814 19.1576C65.1282 19.1507 62.775 19.1495 60.4217 19.1576C60.1842 19.1576 60.19 19.0435 60.19 18.8763C60.1934 17.1376 60.1923 15.4 60.1923 13.6613Z" fill="#ADADA3"/>
<path d="M80.8192 16.3719C81.5121 14.6032 82.1993 12.8703 82.8634 11.1293C82.9776 10.8295 83.1021 10.69 83.448 10.7153C83.9634 10.7534 84.4845 10.7326 85.0034 10.7211C85.2051 10.7165 85.2328 10.7764 85.1625 10.9517C84.4499 12.7377 83.7409 14.5236 83.0341 16.3119C82.6928 17.1743 82.3561 18.0391 82.0298 18.9073C81.963 19.0848 81.8811 19.1621 81.6805 19.1575C81.0567 19.1436 80.4318 19.1367 79.808 19.1598C79.5659 19.169 79.4956 19.0433 79.4287 18.8692C79.0724 17.9503 78.7173 17.0302 78.3587 16.1124C77.6877 14.3922 77.0201 12.6696 76.3364 10.954C76.2511 10.7395 76.3007 10.7199 76.4944 10.7222C77.1285 10.7292 77.7627 10.7315 78.3956 10.7222C78.5709 10.7199 78.6412 10.7857 78.7012 10.9459C79.3319 12.6201 79.9706 14.2896 80.6094 15.9602C80.6589 16.0917 80.6843 16.2358 80.8204 16.373L80.8192 16.3719Z" fill="#ADADA3"/>
<path d="M94.6918 13.3426C94.6918 11.5002 94.6952 9.65656 94.6872 7.8141C94.6872 7.59849 94.7275 7.51202 94.9673 7.51894C95.5623 7.53738 96.1572 7.53162 96.7533 7.52124C96.9401 7.51778 97 7.57428 97 7.76567C96.9954 11.4806 96.9954 15.1955 97 18.9104C97 19.0972 96.9516 19.1606 96.7591 19.1571C96.1641 19.1456 95.568 19.1421 94.9731 19.1583C94.7459 19.164 94.686 19.0995 94.6872 18.8723C94.6964 17.0299 94.6929 15.1863 94.6929 13.3438L94.6918 13.3426Z" fill="#ADADA3"/>
<path d="M38.2927 14.946C38.2927 16.2512 38.2858 17.5564 38.2984 18.8616C38.3007 19.1071 38.2281 19.1659 37.9929 19.159C37.4083 19.1417 36.8215 19.1475 36.2369 19.1567C36.0593 19.159 35.9856 19.1244 35.9867 18.9227C35.9936 16.2639 35.9936 13.6051 35.9867 10.9463C35.9867 10.7653 36.0432 10.7204 36.2161 10.7227C36.8203 10.7319 37.4256 10.7377 38.0298 10.7204C38.2592 10.7134 38.2973 10.7988 38.2961 11.0017C38.2881 12.3161 38.2927 13.6316 38.2927 14.946Z" fill="#ADADA3"/>
<path d="M37.1605 6.82654C37.9988 6.8277 38.581 7.36729 38.5868 8.14786C38.5926 8.96648 37.9838 9.5545 37.1352 9.54988C36.3131 9.54527 35.7412 8.98838 35.7262 8.2032C35.7113 7.41918 36.3558 6.7712 37.1617 6.82654H37.1605Z" fill="#ADADA3"/>
<path d="M13.5358 15.1303C13.2579 15.0254 13.0884 14.7809 12.8717 14.5999C12.1522 14.0027 11.4535 13.3812 10.7456 12.769C10.6441 12.6814 10.5403 12.5972 10.4377 12.5119C10.4492 12.4819 10.4619 12.4519 10.4735 12.4231C11.4973 12.4231 12.5211 12.4231 13.545 12.4231C13.5415 13.3247 13.5381 14.2275 13.5346 15.1291L13.5358 15.1303Z" fill="#ADADA3"/>
<path d="M7.01235 7.97927C6.74947 7.74291 6.48083 7.51231 6.22487 7.27019C5.68412 6.75711 5.14798 6.23827 4.613 5.71712C4.54959 5.65601 4.42391 5.60413 4.47234 5.4946C4.51154 5.40582 4.62799 5.44848 4.7087 5.44848C5.48465 5.44848 6.25946 5.45194 7.03541 5.4554C7.02734 6.29707 7.01927 7.13759 7.0112 7.97927H7.01235Z" fill="#ADADA3"/>
<path d="M45.9875 17.7639C45.5102 18.2401 44.9821 18.5421 44.3584 18.6782C42.223 19.1417 40.1096 17.8169 39.6876 15.677C39.3855 14.1458 39.6577 12.7311 40.8487 11.6104C42.0051 10.522 43.9317 10.2718 45.26 11.0155C45.5724 11.1907 45.8215 11.4398 46.1224 11.7557C46.1224 11.4386 46.1305 11.1884 46.119 10.9382C46.112 10.7745 46.1685 10.7215 46.3323 10.7238C46.8984 10.7318 47.4656 10.7388 48.0317 10.7203C48.2543 10.7134 48.2981 10.7814 48.2969 10.9913C48.2889 12.8741 48.2958 14.7557 48.29 16.6386C48.2877 17.4341 48.3269 18.2308 48.1932 19.0241C47.8726 20.9138 46.7243 22.0414 44.8092 22.2686C43.5144 22.4219 42.2426 22.2951 41.0262 21.7855C40.7345 21.6633 40.467 21.4949 40.2007 21.3266C40.0497 21.2309 40.0059 21.1306 40.1039 20.953C40.3494 20.5103 40.5812 20.0595 40.8049 19.6052C40.8971 19.4184 40.9594 19.4415 41.1173 19.5498C42.2127 20.2993 43.4164 20.5276 44.7042 20.2047C45.4352 20.0214 45.8019 19.4807 45.9402 18.7681C46.0014 18.4522 46.0348 18.1317 45.9875 17.7627V17.7639ZM43.9779 16.7354C45.2023 16.7158 46.0336 15.896 46.0336 14.6693C46.0336 13.4483 45.1989 12.6366 43.9744 12.6112C42.8549 12.587 41.8587 13.4725 41.921 14.6739C41.8598 15.9445 42.9171 16.7527 43.979 16.7354H43.9779Z" fill="#ADADA3"/>
<path d="M90.4108 15.6505C89.508 15.6505 88.6052 15.6609 87.7036 15.6447C87.4326 15.6401 87.4372 15.7312 87.5099 15.9353C87.7993 16.7527 88.5844 17.2819 89.5749 17.3119C90.3024 17.3338 90.9619 17.1482 91.4957 16.6317C91.6191 16.5129 91.6894 16.5256 91.7863 16.6397C92.1149 17.026 92.4412 17.4145 92.7778 17.7939C92.8747 17.9034 92.8459 17.9587 92.7605 18.0533C92.0837 18.8062 91.2178 19.1636 90.2332 19.2593C88.9084 19.3873 87.6609 19.1659 86.6105 18.2954C85.5325 17.4007 85.099 16.2028 85.1278 14.8284C85.1578 13.4298 85.6662 12.2353 86.8135 11.4006C88.1094 10.4586 89.5495 10.3272 91.0138 10.9394C92.425 11.5286 93.1514 12.6735 93.3705 14.1608C93.4327 14.5794 93.435 14.999 93.4016 15.4233C93.3866 15.6113 93.3255 15.6574 93.1456 15.6551C92.2336 15.6459 91.3216 15.6516 90.4096 15.6516L90.4108 15.6505ZM91.0334 14.2035C91.2213 14.2069 91.2582 14.1562 91.2202 13.9729C91.0334 13.0793 90.2586 12.4498 89.327 12.4533C88.3884 12.4567 87.6125 13.0897 87.4395 13.9856C87.4096 14.1412 87.4338 14.2069 87.6148 14.2046C88.1797 14.1943 88.7447 14.2012 89.3108 14.2012C89.8862 14.2012 90.4603 14.1943 91.0345 14.2046L91.0334 14.2035Z" fill="#ADADA3"/>
<path d="M70.3317 15.6503C70.4331 16.4816 71.186 17.1273 71.947 17.2552C72.8486 17.4074 73.688 17.2841 74.3798 16.6211C74.4882 16.5173 74.5504 16.5173 74.6484 16.6384C74.9528 17.0074 75.2618 17.374 75.587 17.7245C75.7368 17.8859 75.7023 17.9839 75.5662 18.1234C74.9309 18.7726 74.1584 19.1334 73.2649 19.2395C72.1661 19.371 71.103 19.2707 70.1149 18.7207C68.9066 18.0496 68.2206 17.0085 68.0419 15.6572C67.8458 14.1779 68.1664 12.8336 69.2686 11.7532C70.1472 10.8919 71.2206 10.5414 72.4359 10.5991C74.7764 10.7086 76.4044 12.6007 76.2718 15.1119C76.243 15.6503 76.2465 15.6503 75.7115 15.6503H70.3317ZM73.6534 14.1987C74.1769 14.1952 74.2299 14.3105 73.9958 13.6764C73.6938 12.8578 72.9224 12.3897 72.0242 12.4531C71.1929 12.5119 70.5242 13.0976 70.3271 13.9266C70.2775 14.1341 70.3098 14.2137 70.5484 14.2056C71.1042 14.1883 71.6599 14.1998 72.2156 14.1998C72.6953 14.1998 73.1738 14.2022 73.6534 14.1998V14.1987Z" fill="#ADADA3"/>
</svg>
