<svg width="61" height="24" viewBox="0 0 61 24" fill="none" xmlns="http://www.w3.org/2000/svg">
<g clip-path="url(#clip0_2_303)">
<path d="M34.0625 1.5625C30.1437 1.5625 26.9556 4.77934 26.9556 8.73391C26.9556 12.6885 30.1437 15.9049 34.0625 15.9049C37.9814 15.9049 41.1699 12.6881 41.1699 8.73391C41.1699 4.77975 37.981 1.5625 34.0625 1.5625ZM34.0625 13.2159C31.6132 13.2159 29.6205 11.205 29.6205 8.73391C29.6205 6.26286 31.6132 4.25188 34.0625 4.25188C36.5119 4.25188 38.5046 6.26246 38.5046 8.73391C38.5046 11.2054 36.5123 13.2159 34.0625 13.2159Z" fill="#ADADA3"/>
<path d="M24.2502 1.5904C24.0074 1.56296 23.7634 1.54843 23.5195 1.54681C23.3979 1.54681 23.2815 1.55045 23.1623 1.55246C23.0431 1.55448 22.9247 1.56578 22.8059 1.57305C22.3272 1.61098 21.8532 1.69371 21.3896 1.81963C20.4581 2.07347 19.5602 2.51497 18.7839 3.14212C17.9959 3.77572 17.3648 4.58488 16.9396 5.50663C16.7276 5.96589 16.5713 6.44936 16.4737 6.94616C16.4253 7.19152 16.3897 7.43932 16.3673 7.68872C16.3593 7.81262 16.3453 7.93691 16.3437 8.06041L16.3393 8.24564L16.3373 8.33846V8.41514L16.3433 10.8168L16.3493 13.2184L16.3657 15.6196H19.031L19.0478 13.2184L19.0538 10.8164L19.0598 8.41474V8.34129L19.0618 8.28398L19.065 8.16897C19.065 8.09189 19.0762 8.01763 19.0806 7.94135C19.095 7.79203 19.117 7.64352 19.1466 7.49662C19.205 7.20767 19.2962 6.92638 19.4178 6.65841C19.663 6.12086 20.029 5.64868 20.4869 5.27861C20.9493 4.90249 21.5032 4.6216 22.102 4.45452C22.4048 4.37099 22.7147 4.3157 23.0275 4.28987C23.1067 4.28543 23.1855 4.27776 23.2651 4.27494C23.3447 4.27211 23.4259 4.26969 23.5031 4.27009C23.6562 4.27009 23.807 4.28018 23.9598 4.29431C24.567 4.35605 25.1553 4.54412 25.6869 4.84639L27.0171 2.51538C26.1672 2.01697 25.2253 1.70259 24.2502 1.5904Z" fill="#ADADA3"/>
<path d="M7.23372 1.52667C3.31446 1.52667 0.126343 4.74352 0.126343 8.69768C0.126343 12.6518 3.31446 15.8691 7.23372 15.8691H9.57112V13.1797H7.23372C4.78434 13.1797 2.79171 11.1691 2.79171 8.69768C2.79171 6.22623 4.78434 4.21565 7.23372 4.21565C9.68311 4.21565 11.6861 6.22623 11.6861 8.69768V15.3021C11.6861 17.7574 9.7047 19.7571 7.27732 19.7829C6.11582 19.7732 5.00512 19.3022 4.18599 18.4713L2.30135 20.3729C3.60764 21.6978 5.37748 22.4517 7.22932 22.4719V22.4731C7.24532 22.4731 7.26132 22.4731 7.27692 22.4731H7.32691V22.4719C11.1902 22.419 14.3183 19.2413 14.3363 15.3344L14.3387 8.52172C14.2459 4.64908 11.0942 1.52667 7.23372 1.52667Z" fill="#ADADA3"/>
<path d="M49.7552 1.5625C45.8363 1.5625 42.6482 4.77934 42.6482 8.73391C42.6482 12.6885 45.8363 15.9049 49.7552 15.9049H52.187V13.2159H49.7552C47.3058 13.2159 45.3132 11.205 45.3132 8.73391C45.3132 6.26286 47.3058 4.25188 49.7552 4.25188C52.0746 4.25188 53.9836 6.05502 54.1796 8.34527H54.1756V22.115H56.8409V8.73391C56.8401 4.77934 53.674 1.5625 49.7552 1.5625Z" fill="#ADADA3"/>
<path d="M60.9142 1.92694H60.5342L60.0159 2.73932L59.4807 1.92694H59.0972V3.37333H59.5255V2.66951L59.9055 3.23773H60.1127L60.4858 2.65175L60.4926 3.37333H60.921L60.9142 1.92694Z" fill="#ADADA3"/>
<path d="M57.5289 2.27239H57.9953V3.37333H58.4653V2.27239H58.9348V1.92694H57.5289V2.27239Z" fill="#ADADA3"/>
</g>
<defs>
<clipPath id="clip0_2_303">
<rect width="60.7947" height="22.398" fill="white" transform="translate(0.126343 0.801025)"/>
</clipPath>
</defs>
</svg>
