<svg width="84" height="26" viewBox="0 0 84 26" fill="none" xmlns="http://www.w3.org/2000/svg">
<path d="M7.76612 0.599854L0.535034 4.72383V13L7.76612 8.87606V0.599854ZM7.76612 8.87606L14.9972 13V4.72383L7.76612 8.87606ZM14.9972 13L7.76612 17.124V25.4002L14.9972 21.2762V13ZM7.76612 17.124L0.535034 13V21.2762L7.76612 17.124Z" fill="#ADADA3"/>
<path d="M41.0339 19.2176C39.7646 19.2176 38.6737 18.958 37.7611 18.4387C36.8537 17.9142 36.1536 17.1853 35.6606 16.2517C35.1728 15.3128 34.929 14.2246 34.929 12.9868C34.929 11.7437 35.1728 10.6554 35.6606 9.72185C36.1536 8.78301 36.8537 8.05402 37.7611 7.53475C38.6737 7.01029 39.7646 6.74806 41.0339 6.74806C42.3031 6.74806 43.3914 7.01029 44.2988 7.53475C45.2114 8.05402 45.9115 8.78301 46.3994 9.72185C46.8924 10.6554 47.1389 11.7437 47.1389 12.9868C47.1389 14.2246 46.8924 15.3128 46.3994 16.2517C45.9115 17.1853 45.2114 17.9142 44.2988 18.4387C43.3914 18.958 42.3031 19.2176 41.0339 19.2176ZM41.0575 16.3146C41.5191 16.3146 41.9097 16.173 42.2297 15.8897C42.5496 15.6065 42.7935 15.2131 42.9614 14.7097C43.1344 14.2062 43.221 13.624 43.221 12.9631C43.221 12.2918 43.1344 11.7044 42.9614 11.2009C42.7935 10.6974 42.5496 10.304 42.2297 10.0208C41.9097 9.73757 41.5191 9.59596 41.0575 9.59596C40.5802 9.59596 40.1764 9.73757 39.846 10.0208C39.5208 10.304 39.2716 10.6974 39.0986 11.2009C38.9307 11.7044 38.8468 12.2918 38.8468 12.9631C38.8468 13.624 38.9307 14.2062 39.0986 14.7097C39.2716 15.2131 39.5208 15.6065 39.846 15.8897C40.1764 16.173 40.5802 16.3146 41.0575 16.3146ZM53.4211 19.2176C52.1518 19.2176 51.0609 18.958 50.1484 18.4387C49.241 17.9142 48.5408 17.1853 48.0478 16.2517C47.56 15.3128 47.3162 14.2246 47.3162 12.9868C47.3162 11.7437 47.56 10.6554 48.0478 9.72185C48.5408 8.78301 49.241 8.05402 50.1484 7.53475C51.0609 7.01029 52.1518 6.74806 53.4211 6.74806C54.6903 6.74806 55.7786 7.01029 56.686 7.53475C57.5986 8.05402 58.2988 8.78301 58.7866 9.72185C59.2796 10.6554 59.5261 11.7437 59.5261 12.9868C59.5261 14.2246 59.2796 15.3128 58.7866 16.2517C58.2988 17.1853 57.5986 17.9142 56.686 18.4387C55.7786 18.958 54.6903 19.2176 53.4211 19.2176ZM53.4447 16.3146C53.9063 16.3146 54.297 16.173 54.6169 15.8897C54.9368 15.6065 55.1807 15.2131 55.3486 14.7097C55.5217 14.2062 55.6082 13.624 55.6082 12.9631C55.6082 12.2918 55.5217 11.7044 55.3486 11.2009C55.1807 10.6974 54.9368 10.304 54.6169 10.0208C54.297 9.73757 53.9063 9.59596 53.4447 9.59596C52.9674 9.59596 52.5636 9.73757 52.2332 10.0208C51.908 10.304 51.6588 10.6974 51.4858 11.2009C51.318 11.7044 51.234 12.2918 51.234 12.9631C51.234 13.624 51.318 14.2062 51.4858 14.7097C51.6588 15.2131 51.908 15.6065 52.2332 15.8897C52.5636 16.173 52.9674 16.3146 53.4447 16.3146ZM63.637 15.8189L63.6527 11.2323H64.1877L67.5864 6.9054H71.9448L66.894 13.1047H65.8791L63.637 15.8189ZM60.1676 18.9894V2.87739H64.0146V18.9894H60.1676ZM67.6729 18.9894L64.5103 13.9701L67.0435 11.2402L72.1178 18.9894H67.6729ZM71.9923 18.9894V6.9054H75.8393V18.9894H71.9923ZM73.9197 5.49717C73.3795 5.49717 72.9153 5.31884 72.5272 4.96217C72.1391 4.60032 71.9451 4.16499 71.9451 3.65624C71.9451 3.15274 72.1391 2.72267 72.5272 2.36602C72.9153 2.00412 73.3795 1.82318 73.9197 1.82318C74.4652 1.82318 74.9294 2.00412 75.3122 2.36602C75.7004 2.72267 75.8944 3.15274 75.8944 3.65624C75.8944 4.16499 75.7004 4.60032 75.3122 4.96217C74.9294 5.31884 74.4652 5.49717 73.9197 5.49717ZM83.7797 6.9054V9.73757H76.1563V6.9054H83.7797ZM77.7534 4.01027H81.6005V15.1896C81.6005 15.4256 81.6372 15.6171 81.7105 15.7639C81.7892 15.9055 81.902 16.0077 82.0489 16.0707C82.1957 16.1284 82.3714 16.1572 82.5759 16.1572C82.7228 16.1572 82.8775 16.1442 83.0401 16.1179C83.2079 16.0864 83.3338 16.0602 83.4178 16.0393L84 18.8164C83.8164 18.8688 83.5568 18.9343 83.2211 19.0131C82.8906 19.0917 82.4947 19.1415 82.0331 19.1625C81.131 19.2045 80.3574 19.0996 79.7123 18.8478C79.0724 18.5908 78.582 18.1922 78.2411 17.652C77.9054 17.1118 77.7429 16.4326 77.7534 15.6144V4.01027Z" fill="#ADADA3"/>
<path d="M32.9878 18.6979V12.3939C32.9878 10.1004 31.1285 8.24115 28.835 8.24115C26.5414 8.24115 24.6821 10.1004 24.6821 12.3939V18.6979" stroke="#ADADA3" stroke-width="3.65735"/>
</svg>
