<svg width="65" height="28" viewBox="0 0 65 28" fill="none" xmlns="http://www.w3.org/2000/svg">
<path d="M28.4498 19.851C27.6363 20.2453 27.05 20.9977 26.1234 21.2398C24.6856 21.615 24.1372 21.4653 23.3622 20.2262C23.0784 19.7943 22.8703 19.8694 22.5486 20.1326C22.1636 20.4537 21.7523 20.7424 21.3189 20.9958C19.0676 22.1425 16.7977 21.0518 16.6089 18.5558C16.4075 16.6359 16.6581 14.6958 17.3409 12.8884C18.0238 11.0809 19.1202 9.4553 20.5439 8.13967C21.4217 7.3617 22.5304 6.88754 23.7032 6.78846C24.9142 6.63811 25.7085 7.14522 26.4643 8.5901C26.7247 8.10308 27.1515 7.72407 27.6682 7.52114C28.1848 7.31821 28.7575 7.30462 29.2833 7.48284C30.3993 7.74532 30.7602 8.45884 30.3049 9.51001C29.3689 11.4859 28.5725 13.5239 27.9214 15.6093C27.7698 16.191 27.4487 17.0357 27.9778 17.3173C28.4915 17.5989 28.9411 16.8077 29.3584 16.3974C29.9409 15.7356 30.3676 14.9535 30.6074 14.1077C31.2316 12.3061 31.9129 10.523 32.6879 8.79649C33.3878 7.23885 34.8821 6.82603 36.2062 7.89567C36.6223 8.23332 36.8117 8.13966 37.1334 7.85807C37.4466 7.59468 37.7894 7.36808 38.155 7.18278C40.5007 5.96278 42.6005 7.12672 42.7328 9.75401C42.903 12.6444 41.8441 15.1965 40.3685 17.5989C40.2362 17.8053 40.0846 18.0118 39.9337 18.236C41.0498 18.0863 42.3359 16.7707 42.8875 15.1959C43.6061 13.0935 44.4011 11.0294 45.2898 9.00227C46.1034 7.14393 47.333 6.7878 49.0141 7.98868C49.3545 8.23268 49.4874 8.11991 49.7141 7.93261C50.1151 7.57886 50.5681 7.28779 51.0574 7.06939C53.2895 6.05581 55.2005 7.18214 55.4271 9.62149C55.6731 12.4928 54.6136 15.0079 53.2137 17.4103C53.0814 17.6359 52.9491 17.8416 52.8355 18.0474C52.779 18.1226 52.5709 18.1602 52.7032 18.2914C52.7976 18.3851 52.9305 18.3105 53.0056 18.1978C53.6734 17.8413 54.2619 17.3552 54.7363 16.7683C55.2107 16.1814 55.5611 15.5059 55.7668 14.7818C56.4061 12.6286 57.2684 10.5467 58.3399 8.56968C58.5466 8.10677 58.9153 7.73384 59.3779 7.51986C59.8404 7.30588 60.3654 7.26535 60.8557 7.40577C62.1984 7.64977 62.5773 8.34418 62.0475 9.58265C61.1189 11.5292 60.3409 13.5431 59.7205 15.6068C59.5689 16.17 59.2857 17.0147 59.7205 17.2581C60.3067 17.5581 60.78 16.7701 61.1974 16.3388C61.6818 15.8055 62.1305 15.2413 62.5407 14.6499C62.8618 14.1995 63.2406 14.0129 63.7325 14.3123C64.2462 14.6308 64.0356 15.0443 63.7704 15.4386C62.6633 17.2649 61.2567 18.895 59.6087 20.2619C59.4402 20.4037 59.2633 20.5353 59.079 20.6562C56.9227 22.1011 55.3148 21.3882 54.9738 18.7233C53.8678 19.4911 52.6896 20.151 51.4555 20.6938C50.0373 21.2214 48.5209 21.4388 47.0101 21.3309C46.3101 21.2933 45.894 20.8053 45.3078 20.2612C44.8159 21.9877 44.3445 23.6205 43.8893 25.2349C43.8328 25.4413 43.7949 25.6661 43.7377 25.8719C43.4353 27.2047 43.1322 27.5048 42.1863 27.4111C41.6467 27.3857 41.1343 27.169 40.742 26.8005C40.3497 26.4321 40.1037 25.9362 40.0487 25.4031C40.0869 24.4372 40.27 23.4823 40.5919 22.57C40.8571 21.5188 41.1782 20.4868 41.4999 19.3209C38.6058 20.841 35.8626 22.3049 32.5903 20.5218C32.0563 22.0364 31.6017 23.5774 31.2283 25.1387C31.1718 25.3451 31.1147 25.57 31.0768 25.7757C30.7172 27.3143 30.4526 27.5595 29.3173 27.3684C27.9554 27.1429 27.1232 26.13 27.3909 24.8724C27.6934 23.4071 28.1288 21.982 28.507 20.518C28.5635 20.3116 28.5828 20.0867 28.6206 19.8809C28.6964 19.8242 28.7343 19.7681 28.6393 19.7121C28.5709 19.7509 28.5074 19.7976 28.4498 19.851ZM38.5705 10.4484C38.4947 10.0356 38.6842 9.62021 38.3432 9.47241C37.9836 9.30359 37.7755 9.65972 37.5867 9.88524C35.6231 12.1753 34.3856 14.9902 34.03 17.9761C33.9921 18.2768 33.9542 18.6705 34.2945 18.8042C34.5784 18.917 34.8082 18.6354 34.9944 18.429C36.8952 16.1406 38.1316 13.3816 38.5705 10.4484ZM51.2449 10.5236C51.1691 10.0732 51.3772 9.62276 51.0183 9.45394C50.6593 9.28512 50.3941 9.67946 50.1835 9.92346C48.3032 12.236 47.0934 15.013 46.6839 17.9563C46.6274 18.2564 46.6274 18.6692 46.9112 18.8195C47.2322 18.9884 47.4788 18.6132 47.6676 18.4067C49.5618 16.1516 50.7992 13.4256 51.2449 10.5236ZM24.7614 10.73C24.6291 10.2605 24.9881 9.60367 24.459 9.43485C23.9857 9.28514 23.6833 9.88525 23.4373 10.263C21.8956 12.4738 20.9687 15.0487 20.75 17.7283C20.7307 18.0659 20.5985 18.573 21.0338 18.7042C21.3934 18.817 21.6394 18.4227 21.8282 18.1602C23.4538 15.986 24.466 13.4212 24.7607 10.73H24.7614Z" fill="#ADADA3"/>
<path d="M7.67942 17.018C7.37698 18.2189 7.05527 19.4012 6.75283 20.6027C6.74005 20.7898 6.68583 20.9717 6.59406 21.1355C6.50229 21.2993 6.37524 21.4411 6.22192 21.5506C6.06861 21.6601 5.8928 21.7347 5.70709 21.7691C5.52137 21.8035 5.3303 21.7968 5.14749 21.7495C4.77343 21.7432 4.40575 21.6522 4.07255 21.4834C3.73936 21.3146 3.44947 21.0725 3.22501 20.7755C3.00055 20.4786 2.84748 20.1347 2.77747 19.7701C2.70746 19.4055 2.72236 19.0298 2.82105 18.6718C3.7959 14.2816 5.24834 10.0094 7.15287 5.93034C7.51246 5.12317 8.19315 4.99197 8.93096 4.91679C11.617 4.67279 11.9952 5.17923 10.9736 7.60074C10.368 9.06601 9.81774 10.5472 9.21413 12.0864C11.8816 11.4296 14.2273 8.29517 14.1136 5.70547C14.1014 5.36045 14.0197 5.02132 13.8736 4.70802C13.7274 4.39473 13.5196 4.11356 13.2624 3.88104C13.0052 3.64852 12.7037 3.46935 12.3757 3.35401C12.0477 3.23867 11.6998 3.1895 11.3524 3.2094C8.51486 3.13423 6.54737 4.61669 5.0345 6.83116C4.43078 7.67609 4.04734 8.65621 3.91845 9.68398C3.78617 10.8307 2.93471 11.2416 1.91307 10.66C1.39872 10.3426 1.00701 9.86272 0.801059 9.2976C0.595111 8.73247 0.586917 8.11503 0.777778 7.54471C1.14209 6.27178 1.87969 5.13504 2.89681 4.27906C6.58523 1.07013 10.804 0.265493 15.3818 1.95182C19.2789 3.3967 20.0733 7.39434 17.1798 10.5287C15.8708 11.8991 14.2295 12.9136 12.4126 13.4752C12.2827 13.4924 12.158 13.5372 12.0471 13.6065C11.9361 13.6758 11.8415 13.7679 11.7697 13.8767C11.6979 13.9855 11.6505 14.1084 11.6308 14.237C11.6111 14.3656 11.6195 14.4969 11.6555 14.6219C11.9015 16.8179 12.3368 18.9387 13.7367 20.7588C14.3903 21.7321 15.3834 22.4315 16.5251 22.7225C17.6669 23.0136 18.8768 22.8758 19.9224 22.3356C20.2307 22.1882 20.5463 22.0566 20.8682 21.9412C21.0197 21.8881 21.1855 21.8911 21.335 21.9496C21.4845 22.0081 21.6077 22.1183 21.6818 22.2598C21.7616 22.3959 21.7938 22.5544 21.7732 22.7106C21.7526 22.8668 21.6805 23.0118 21.5681 23.123C19.828 25.2814 15.7607 26.576 13.2255 25.7318C10.6532 24.8686 9.4042 22.823 8.59061 20.4206C8.22781 19.3076 8.0769 18.1622 7.67942 17.018Z" fill="#ADADA3"/>
<path d="M64.6001 3.39224C64.572 4.14832 64.2476 4.86369 63.6959 5.38604C63.1442 5.90839 62.4088 6.19648 61.6462 6.18899C61.2757 6.17216 60.9122 6.08295 60.5765 5.92645C60.2408 5.76994 59.9395 5.54923 59.69 5.27697C59.4405 5.00472 59.2475 4.68625 59.1223 4.33987C58.9971 3.99349 58.942 3.62602 58.9602 3.25848C59.0027 2.51735 59.3353 1.82199 59.8871 1.32062C60.4388 0.819257 61.1661 0.551525 61.914 0.574484C62.6401 0.61394 63.3233 0.928101 63.823 1.45229C64.3227 1.97647 64.6008 2.67076 64.6001 3.39224Z" fill="#ADADA3"/>
<path d="M52.9473 18.2564C52.8715 18.3692 52.7199 18.4252 52.6448 18.3501C52.5125 18.2188 52.7206 18.1813 52.7771 18.1061C52.815 18.1437 52.8882 18.1997 52.9473 18.2564Z" fill="#ADADA3"/>
</svg>
