<svg width="112" height="17" viewBox="0 0 112 17" fill="none" xmlns="http://www.w3.org/2000/svg">
<path fill-rule="evenodd" clip-rule="evenodd" d="M27.7033 5.1687C26.5133 5.1687 25.4932 5.59371 24.6432 6.27372V5.33871H21.7532V16.3039H24.7282V9.33377C25.1532 8.73876 26.1732 7.97375 27.4483 7.97375C27.8733 7.97375 28.2983 8.05875 28.6383 8.14375V5.33871C28.2983 5.2537 27.9583 5.1687 27.7033 5.1687Z" fill="#ADADA3" stroke="black" stroke-width="0.046694"/>
<path fill-rule="evenodd" clip-rule="evenodd" d="M2.11796 12.9024C2.88297 13.5824 4.07299 14.0074 5.093 14.0074C5.85802 14.0074 6.53803 13.5824 6.53803 13.0724C6.53803 11.3724 1.18294 11.9674 1.18294 8.48233C1.18294 6.3573 3.22297 5.08228 5.34801 5.08228C6.79303 5.08228 8.32306 5.59228 9.08807 6.18729L7.72805 8.31233C7.13304 7.97232 6.45303 7.54731 5.60301 7.54731C4.753 7.54731 4.15799 7.88732 4.15799 8.48233C4.15799 9.92735 9.51308 9.33234 9.51308 13.1574C9.51308 15.2824 7.47304 16.5575 5.17801 16.5575C3.64798 16.5575 2.03295 16.0475 0.757935 15.1124L2.11796 12.9024Z" fill="#ADADA3" stroke="black" stroke-width="0.046694"/>
<path fill-rule="evenodd" clip-rule="evenodd" d="M20.4782 10.6924C20.4782 7.63232 18.3531 5.08228 15.2931 5.08228C12.063 5.08228 9.93799 7.80232 9.93799 10.7774C9.93799 14.2624 12.403 16.4725 15.6331 16.4725C17.3331 16.4725 19.0331 15.7924 20.1382 14.5174L18.4381 12.8174C17.9281 13.4124 16.9081 14.0924 15.7181 14.0924C14.1881 14.0924 12.913 12.9874 12.743 11.4574H20.3082C20.4782 11.2874 20.4782 11.0324 20.4782 10.6924ZM12.998 9.41734C13.168 8.39733 14.1881 7.46231 15.3781 7.46231C16.5681 7.46231 17.4181 8.39733 17.5881 9.41734H12.998Z" fill="#ADADA3" stroke="black" stroke-width="0.046694"/>
<path fill-rule="evenodd" clip-rule="evenodd" d="M41.7996 5.771L36.7845 16.7362H34.7445L29.7294 5.771H32.7044L35.7644 12.4861L38.7395 5.771H41.7996Z" fill="#ADADA3" stroke="black" stroke-width="0.046694"/>
<path fill-rule="evenodd" clip-rule="evenodd" d="M44.0236 0.153809C45.1286 0.153809 45.9786 1.00382 45.9786 2.02384C45.9786 3.12886 45.1286 3.89387 44.0236 3.89387C42.9186 3.89387 42.1536 3.04385 42.1536 2.02384C42.1536 0.91882 42.9186 0.153809 44.0236 0.153809Z" fill="#ADADA3" stroke="black" stroke-width="0.046694"/>
<path d="M45.5535 5.33862H42.5785V16.3038H45.5535V5.33862Z" fill="#ADADA3" stroke="black" stroke-width="0.046694"/>
<path fill-rule="evenodd" clip-rule="evenodd" d="M57.6239 14.0074C56.3489 15.7074 54.7339 16.4725 52.6938 16.4725C49.2938 16.4725 46.8287 13.9224 46.8287 10.7774C46.8287 7.54731 49.3788 5.08228 52.6938 5.08228C54.6489 5.08228 56.2639 6.01729 57.2839 7.29231L55.3289 9.07734C54.7339 8.31233 53.8839 7.80232 52.8638 7.80232C51.1638 7.80232 49.8888 9.16234 49.8888 10.7774C49.8888 12.4774 51.0788 13.7524 52.8638 13.7524C54.0539 13.7524 54.9889 13.0724 55.4989 12.3074L57.6239 14.0074Z" fill="#ADADA3" stroke="black" stroke-width="0.046694"/>
<path fill-rule="evenodd" clip-rule="evenodd" d="M68.2491 14.5174C67.1441 15.7924 65.4441 16.4725 63.744 16.4725C60.514 16.4725 58.049 14.2624 58.049 10.7774C58.049 7.71732 60.089 5.08228 63.404 5.08228C66.3791 5.08228 68.5891 7.63232 68.5891 10.6924C68.5891 11.0324 68.5891 11.2874 68.5041 11.5424H60.854C61.024 13.0724 62.299 14.1774 63.829 14.1774C65.0191 14.1774 66.0391 13.4974 66.5491 12.9024L68.2491 14.5174ZM65.5291 9.41734C65.4441 8.48233 64.5941 7.46231 63.319 7.46231C62.129 7.46231 61.109 8.39733 60.939 9.41734H65.5291Z" fill="#ADADA3" stroke="black" stroke-width="0.046694"/>
<path fill-rule="evenodd" clip-rule="evenodd" d="M69.694 16.3022V5.337H72.499V6.27201C73.349 5.592 74.369 5.16699 75.5591 5.16699C77.0891 5.16699 78.4491 5.847 79.3841 6.95202C80.0641 7.80203 80.5741 8.90705 80.5741 10.7771V16.3872H77.5991V10.5221C77.5991 9.41706 77.3441 8.82205 76.9191 8.48205C76.4941 8.05704 75.9841 7.80204 75.2191 7.80204C74.029 7.80204 73.009 8.56705 72.499 9.16206V16.3022L69.694 16.3022Z" fill="#ADADA3" stroke="black" stroke-width="0.046694"/>
<path fill-rule="evenodd" clip-rule="evenodd" d="M88.1394 5.08374C84.5693 5.08374 81.7643 7.88879 81.7643 11.4588C81.7643 13.3289 82.5293 15.0289 83.7193 16.2189C84.1443 16.6439 84.9093 16.6439 85.4193 16.3039C86.0993 15.7089 87.1194 15.3689 88.1394 15.3689C89.2444 15.3689 90.0944 15.7089 90.8594 16.3039C91.3694 16.7289 92.0494 16.6439 92.5595 16.1339C93.7495 14.9439 94.5145 13.3289 94.5145 11.4588C94.4295 7.97379 91.6244 5.08374 88.1394 5.08374ZM88.0544 14.7739C86.0994 14.7739 84.8243 13.3289 84.8243 11.5438C84.8243 9.75881 86.0994 8.31379 88.0544 8.31379C90.0094 8.31379 91.2844 9.75881 91.2844 11.5438C91.2844 13.3289 90.0094 14.7739 88.0544 14.7739Z" fill="#ADADA3" stroke="black" stroke-width="0.046694"/>
<path fill-rule="evenodd" clip-rule="evenodd" d="M93.9904 5.771H96.8804L99.2605 12.0611L101.64 5.771H104.106L106.401 12.0611L108.781 5.771H111.756L107.421 16.7362H105.211L102.831 10.5311L100.536 16.7362H98.3255L93.9904 5.771Z" fill="#ADADA3" stroke="black" stroke-width="0.046694"/>
</svg>
