<svg width="103" height="22" viewBox="0 0 103 22" fill="none" xmlns="http://www.w3.org/2000/svg">
<g clip-path="url(#clip0_2_262)">
<path d="M0.971558 0.652039H21.407V21.348H0.971558V0.652039Z" fill="#ADADA3"/>
<path d="M58.1208 4.74725C58.2958 4.74725 58.3396 4.96742 58.3396 5.14356C58.3833 5.8481 58.4271 6.50861 58.4271 7.21315C58.4708 7.87366 58.4708 8.53417 58.4708 9.19467C58.8647 8.88644 59.2148 8.5782 59.6523 8.4461C60.3525 8.13786 61.1839 8.13786 61.884 8.49013C62.6279 8.88644 63.1093 9.59098 63.3718 10.3396C63.5906 11.0881 63.6782 11.8807 63.6344 12.6293C63.5469 13.554 63.3281 14.4347 62.803 15.1833C62.4967 15.6236 62.1028 15.9759 61.5777 16.152C60.7463 16.4603 59.8711 16.3282 59.1272 15.8878C58.9084 15.7557 58.6896 15.5356 58.5146 15.3594C58.4271 15.6236 58.3833 15.8878 58.2958 16.152C57.902 16.152 57.5519 16.1961 57.1581 16.108C57.2894 15.4915 57.2894 14.831 57.3331 14.2145C57.3769 11.9688 57.3331 9.72308 57.3331 7.52139C57.2894 6.64071 57.3331 5.76003 57.2018 4.92339C57.4644 4.83532 57.8145 4.74725 58.1208 4.74725ZM61.0089 9.37081C60.6588 9.28274 60.3087 9.28274 60.0024 9.32678C59.3898 9.41484 58.9084 9.85518 58.5146 10.2955C58.5146 10.4276 58.5146 10.6038 58.5146 10.7359V14.3026C58.5146 14.4347 58.6021 14.5228 58.6896 14.5668C59.3023 15.1392 60.1774 15.4035 60.9651 15.2273C61.3589 15.1392 61.709 14.875 61.884 14.5228C62.1904 14.0384 62.2779 13.466 62.3216 12.8935C62.3654 12.4532 62.4092 12.0128 62.3654 11.6165C62.3654 11.1322 62.2341 10.6038 61.9716 10.1634C61.7528 9.72308 61.4027 9.45888 61.0089 9.37081ZM66.0411 5.05549C66.2599 4.96742 66.5662 4.96742 66.785 5.09952C67.0038 5.23163 67.1789 5.4518 67.2664 5.67196C67.3977 6.20037 67.0038 6.77281 66.4787 6.81685C66.0849 6.86088 65.6473 6.64071 65.516 6.20037C65.341 5.80407 65.6035 5.23163 66.0411 5.05549ZM29.8525 5.9802C30.4214 5.5839 31.1215 5.27566 31.8217 5.27566C32.5656 5.27566 33.3095 5.31969 33.9659 5.62793C34.2284 5.76003 34.491 5.89213 34.7535 6.06827C34.5785 6.37651 34.3597 6.59668 34.1409 6.86088C33.8783 6.72878 33.6158 6.55264 33.3095 6.42054C32.6093 6.15634 31.7779 6.1123 31.0778 6.42054C30.4651 6.64071 29.9838 7.12508 29.6775 7.69752C29.5025 8.13786 29.3274 8.5782 29.2399 9.01854C29.1524 9.45888 29.1524 9.89922 29.1086 10.3396C29.1086 10.912 29.0649 11.5285 29.1086 12.1009C29.1961 12.9376 29.5025 13.7302 30.0276 14.3466C30.5089 14.9191 31.2091 15.2273 31.953 15.3154C32.3468 15.3154 32.6969 15.3154 33.0907 15.2273C33.5283 15.1392 33.9221 14.875 34.3597 14.6989C34.5785 14.9191 34.7973 15.2273 35.0161 15.4915C34.7098 15.6677 34.4034 15.8438 34.0534 15.9759C33.1782 16.3282 32.1717 16.3722 31.2528 16.2401C30.5527 16.108 29.94 15.7557 29.4149 15.3154C28.8023 14.787 28.3647 14.0824 28.1022 13.3339C27.9271 12.8055 27.8396 12.277 27.7959 11.7486C27.7959 11.3523 27.7083 10.956 27.7959 10.5157C27.7959 9.76711 27.9271 8.9745 28.2334 8.26996C28.5398 7.38929 29.0649 6.55264 29.8525 5.9802Z" fill="#ADADA3"/>
<path d="M7.01038 5.80407C7.09789 5.80407 7.18541 5.76003 7.27293 5.76003C7.71052 5.76003 8.14811 5.76003 8.5857 5.80407C8.67321 5.80407 8.67321 5.8481 8.71697 5.89213C9.37336 7.25718 10.0297 8.66627 10.7299 10.0754C10.8612 10.3836 10.9924 10.6478 11.1675 10.912C11.2987 10.6918 11.43 10.4717 11.5613 10.2075C12.3052 8.7103 13.0491 7.25718 13.793 5.76003C14.2744 5.76003 14.7557 5.716 15.2808 5.80407C15.1933 6.1123 15.0183 6.33247 14.887 6.59668C13.9243 8.49013 12.9178 10.3836 11.9114 12.277C11.8676 12.3651 11.8676 12.4091 11.8676 12.4972C11.8676 13.8623 11.8676 15.2273 11.8676 16.5483C11.3863 16.5483 10.9049 16.5483 10.4236 16.5483C10.4236 15.2273 10.4236 13.9063 10.4236 12.5853C10.4236 12.4532 10.4236 12.277 10.3361 12.1449C9.41712 10.4276 8.54194 8.7103 7.623 6.94895C7.44796 6.59668 7.22917 6.20037 7.01038 5.80407Z" fill="white"/>
<path d="M85.9514 6.42042C86.3452 6.28832 86.739 6.20025 87.1766 6.11218C87.0891 6.86076 87.0453 7.60933 87.0453 8.40194C87.658 8.40194 88.3144 8.40194 88.927 8.44598C88.8395 8.75422 88.7082 9.01842 88.5769 9.28262C88.0518 9.28262 87.5267 9.28262 86.9578 9.28262C86.9578 9.98716 86.9578 10.6917 86.9578 11.3962C86.9578 11.9247 87.0016 12.4971 86.9578 13.0695C86.9578 13.686 86.9578 14.3465 87.0016 14.963C87.0016 15.2272 87.2641 15.4033 87.4829 15.4914C87.8768 15.5795 88.2706 15.5354 88.6644 15.4474C88.7519 15.6675 88.7957 15.9317 88.7957 16.1519C88.4456 16.328 88.0518 16.3721 87.658 16.4161C87.1329 16.4161 86.5202 16.328 86.1264 15.9317C85.8201 15.6235 85.8201 15.1391 85.7763 14.7428C85.7326 13.8621 85.7763 12.9374 85.7326 12.0568C85.7326 11.132 85.7326 10.2514 85.7326 9.32666C85.3825 9.32666 85.0324 9.32666 84.7261 9.32666C84.7261 9.01842 84.7261 8.71018 84.7261 8.44598C85.0762 8.44598 85.3825 8.44598 85.7326 8.44598C85.8639 7.74144 85.8639 7.03689 85.9514 6.42042ZM39.5669 8.18178C39.8732 8.18178 40.2233 8.18177 40.5296 8.26984C41.2298 8.49001 41.8424 9.01842 42.1925 9.63489C42.4988 10.2073 42.7176 10.8238 42.7613 11.4843C42.8051 12.365 42.8489 13.2457 42.5425 14.0823C42.28 14.8749 41.7549 15.5795 41.011 15.9758C40.2671 16.3721 39.3919 16.4161 38.6042 16.1959C37.9041 16.0198 37.2915 15.5354 36.8539 14.919C36.4163 14.2584 36.2413 13.4658 36.2413 12.6292C36.2413 11.8806 36.1975 11.088 36.4601 10.3394C36.6788 9.63489 37.1602 8.97438 37.8166 8.53405C38.1229 8.35791 38.4292 8.18177 38.7793 8.13774C39.0418 8.18177 39.3044 8.18178 39.5669 8.18178ZM38.9543 9.19455C38.5605 9.28262 38.1667 9.54682 37.9479 9.8991C37.6415 10.4275 37.554 11.044 37.554 11.6605C37.5103 12.1008 37.554 12.5411 37.5978 12.9815C37.6853 13.5099 37.7728 14.0823 38.0354 14.5667C38.2979 15.0951 38.8668 15.3153 39.4357 15.3593C39.9608 15.4033 40.5296 15.2712 40.9235 14.8309C41.2298 14.4786 41.4048 14.0823 41.4486 13.5979C41.5361 13.0255 41.5361 12.4531 41.4923 11.9247C41.4923 11.3522 41.4048 10.7357 41.186 10.1633C41.0547 9.81103 40.7922 9.54682 40.4859 9.37069C40.0045 9.10649 39.4794 9.06245 38.9543 9.19455ZM44.9055 8.44598C45.2556 8.31388 45.6057 8.22581 45.9995 8.18178C46.1308 8.53405 46.2183 8.88632 46.2621 9.28262C46.5246 9.15052 46.6996 8.93035 46.9622 8.79825C47.4873 8.40194 48.1437 8.18178 48.8001 8.18178C48.9313 8.18178 49.1064 8.22581 49.2377 8.31388C49.4565 8.44598 49.6752 8.53405 49.894 8.71018C50.0691 8.88632 50.2004 9.15052 50.3316 9.37069C50.6379 9.23859 50.8567 8.97438 51.1193 8.79825C51.5569 8.49001 52.082 8.22581 52.6946 8.18178C53.2197 8.13774 53.7448 8.31388 54.1387 8.66615C54.3137 8.84228 54.4887 9.01842 54.5762 9.23859C54.6638 9.45876 54.7075 9.67893 54.7075 9.94313C54.795 11.1761 54.7513 12.4531 54.795 13.686C54.795 14.5227 54.795 15.3593 54.795 16.1959C54.4012 16.1959 53.9636 16.1959 53.5698 16.1959C53.5698 14.963 53.5698 13.686 53.5698 12.4531C53.5698 11.6605 53.5698 10.8678 53.526 10.0312C53.4823 9.76699 53.351 9.54682 53.1322 9.37069C52.9134 9.23859 52.6071 9.23859 52.3008 9.23859C51.8194 9.28262 51.4256 9.59086 51.0318 9.8991C50.8567 10.0312 50.6817 10.2073 50.5067 10.3394C50.4629 10.3835 50.4629 10.4715 50.4629 10.5156C50.4629 12.409 50.4629 14.2584 50.4629 16.1519C50.0691 16.1519 49.6315 16.1519 49.2377 16.1519V11.7485C49.2377 11.3962 49.2377 11.044 49.2377 10.6917C49.2377 10.3394 49.2377 9.94313 49.1064 9.63489C48.8438 9.28262 48.3625 9.19455 47.9686 9.32666C47.356 9.45876 46.8309 9.85506 46.3496 10.2954C46.262 10.3394 46.2621 10.4275 46.2621 10.5156C46.2621 12.409 46.2621 14.3025 46.2621 16.1959C45.912 16.1959 45.5619 16.1959 45.2118 16.1959C45.1681 14.2584 45.2118 12.321 45.1243 10.3835C45.1243 9.94313 45.1243 9.50279 45.0368 9.06245C44.993 8.84228 44.9055 8.62211 44.9055 8.44598ZM65.7785 8.40194C66.1724 8.35791 66.5662 8.26984 66.96 8.18178C67.0038 9.28262 67.0038 10.3835 67.0038 11.4403C67.0038 13.0255 67.0038 14.5667 67.0038 16.1519C66.6099 16.1519 66.1724 16.1519 65.7785 16.1519C65.7785 13.9062 65.7785 11.6605 65.7785 9.41472C65.7785 9.10649 65.7348 8.71018 65.7785 8.40194ZM81.488 8.22581C82.3194 8.35791 83.0195 9.15052 83.0633 10.0312C83.1071 11.3082 83.0633 12.6292 83.0633 13.9062V14.3025C83.0633 14.5667 83.0633 14.8309 83.1508 15.0511C83.1946 15.3153 83.4571 15.4474 83.6322 15.5795C83.4571 15.7996 83.3258 16.1079 83.107 16.284C82.9758 16.4161 82.8007 16.284 82.7132 16.1959C82.4069 15.9758 82.2319 15.6675 82.0568 15.3153C81.7943 15.4474 81.6192 15.7116 81.3129 15.8437C80.8753 16.1519 80.3502 16.284 79.7814 16.284C79.3 16.284 78.8187 16.1959 78.3811 15.9758C77.6809 15.5795 77.2871 14.7869 77.3309 13.9942C77.3309 13.2457 77.7247 12.4971 78.2936 12.0568C78.9937 11.5283 79.9126 11.3522 80.7878 11.2641C81.1817 11.2201 81.5755 11.2201 82.0131 11.2201C82.0131 10.8238 82.0131 10.4275 81.9256 10.0312C81.8818 9.72296 81.7068 9.37069 81.4005 9.19455C81.0504 9.01842 80.6128 8.97438 80.219 9.06245C79.4751 9.15052 78.7749 9.45876 78.1623 9.8991C77.9873 9.67893 77.8122 9.45876 77.6809 9.19455C77.5934 9.06245 77.7247 8.97438 77.8122 8.93035C78.6436 8.49001 79.5188 8.09371 80.4815 8.09371H80.8753C81.0941 8.18177 81.2692 8.18178 81.488 8.22581ZM80.9629 12.1448C80.569 12.1889 80.219 12.1889 79.8251 12.2769C79.3875 12.409 78.9937 12.6732 78.7312 13.0695C78.5999 13.2897 78.5999 13.5539 78.5999 13.8181C78.5999 14.0823 78.5561 14.3906 78.6874 14.6548C78.7749 14.919 78.9937 15.1832 79.2563 15.2712C79.5626 15.4033 79.9126 15.4033 80.2627 15.4033C80.6565 15.3593 81.0066 15.1391 81.3129 14.8749C81.5755 14.6548 81.838 14.3906 81.838 14.0383C81.8818 13.4218 81.8818 12.7613 81.8818 12.1448C81.5755 12.1889 81.2692 12.1008 80.9629 12.1448ZM94.2656 8.26984C94.9657 8.44598 95.5783 8.88632 96.0159 9.45876C96.366 9.94313 96.5848 10.4715 96.6723 11.044C96.7598 11.5724 96.8036 12.1448 96.7598 12.7173C96.7598 13.642 96.4535 14.5227 95.9284 15.2272C95.4908 15.7996 94.7907 16.1519 94.1343 16.284C93.3029 16.4161 92.3839 16.284 91.64 15.7556C91.0274 15.3153 90.6336 14.6107 90.4148 13.8621C90.2835 13.4658 90.2835 13.1136 90.2397 12.7173C90.2397 12.0568 90.2397 11.4403 90.3273 10.7798C90.5023 10.0752 90.8524 9.37069 91.3775 8.84228C91.7713 8.44598 92.2964 8.22581 92.8215 8.13774C93.3466 8.13774 93.828 8.18177 94.2656 8.26984ZM92.9528 9.19455C92.3839 9.28262 91.9026 9.72296 91.7276 10.2514C91.5088 10.8238 91.5088 11.4403 91.5088 12.0127C91.5088 12.5852 91.5088 13.1576 91.64 13.686C91.7276 14.0823 91.8151 14.4346 92.0776 14.7428C92.2964 15.0511 92.6902 15.2272 93.0403 15.2712C93.1716 15.3153 93.3466 15.3153 93.4779 15.3153H93.6092H93.7405C94.0468 15.2712 94.3093 15.1832 94.5719 15.0511C94.8782 14.8749 95.097 14.5667 95.2283 14.2144C95.3595 13.8181 95.4033 13.3778 95.4471 12.9815C95.4471 12.4971 95.4908 12.0127 95.4471 11.4843C95.4033 10.9559 95.3595 10.4275 95.097 9.98716C94.8782 9.63489 94.5719 9.37069 94.1781 9.19455C93.7842 9.10649 93.3466 9.10649 92.9528 9.19455ZM98.8603 8.49001C99.2541 8.40194 99.6042 8.26984 99.9542 8.18178C100.173 8.57808 100.173 9.01842 100.217 9.41472C100.392 9.28262 100.567 9.10649 100.742 8.93035C101.267 8.40194 102.055 8.09371 102.799 8.22581V8.31388C102.624 8.66615 102.536 9.06245 102.361 9.45876C102.361 9.54682 102.23 9.50279 102.186 9.50279C101.88 9.50279 101.486 9.50279 101.223 9.67893C100.917 9.85506 100.698 10.0752 100.479 10.3394C100.261 10.6036 100.304 10.9559 100.304 11.2641C100.304 11.7045 100.261 12.1448 100.304 12.5852C100.304 13.7741 100.304 15.007 100.304 16.1959C99.9105 16.1959 99.4729 16.1959 99.079 16.1959C99.079 14.8749 99.079 13.5099 99.079 12.1889C99.079 11.2641 99.0791 10.3835 99.0353 9.45876C98.9915 9.10649 98.904 8.79825 98.8603 8.49001ZM69.3668 8.49001C69.7168 8.35791 70.1107 8.22581 70.4607 8.22581C70.592 8.57808 70.6795 8.97438 70.7233 9.32666C71.0296 9.10649 71.3359 8.84228 71.6422 8.66615C72.2986 8.26984 73.0863 8.00564 73.7864 8.26984C74.224 8.40194 74.6178 8.66615 74.8804 9.06245C75.0992 9.32666 75.1429 9.72296 75.1867 10.0312C75.2742 11.2641 75.2304 12.4531 75.2304 13.686C75.2304 14.5227 75.2304 15.3153 75.2304 16.1079C74.8366 16.1079 74.399 16.1079 74.0052 16.1079C74.0052 14.7869 73.9614 13.4218 73.9614 12.1008C73.9614 11.3522 73.9614 10.6036 73.8739 9.85506C73.7426 9.50279 73.4363 9.19455 73.0425 9.19455C72.7799 9.19455 72.4736 9.19455 72.2111 9.28262C71.6422 9.50279 71.1171 9.85506 70.6358 10.2514C70.6358 12.1889 70.6358 14.1704 70.6358 16.1079C70.2857 16.1079 69.9356 16.1079 69.5855 16.1079C69.5855 15.007 69.5418 13.9062 69.5418 12.7613C69.5418 11.6164 69.5418 10.4715 69.4543 9.32666C69.5418 9.10649 69.4543 8.79825 69.3668 8.49001Z" fill="#ADADA3"/>
</g>
<defs>
<clipPath id="clip0_2_262">
<rect width="101.783" height="20.6959" fill="white" transform="translate(0.971558 0.652039)"/>
</clipPath>
</defs>
</svg>
