<svg width="75" height="21" viewBox="0 0 75 21" fill="none" xmlns="http://www.w3.org/2000/svg">
<path d="M18.0267 14.1422L18.0144 14.1054L24.5484 8.12322V5.24241H14.0673V8.12322H20.3314L20.3436 8.14773L13.8711 14.1422V17.023H24.671V14.1422H18.0267ZM31.1067 4.96041C29.8931 4.96041 28.9124 5.14437 28.1524 5.51216C27.4413 5.8308 26.8407 6.35791 26.4361 7.01997C26.044 7.68189 25.7987 8.4296 25.7129 9.20195L28.9001 9.64328C29.0104 8.96897 29.2434 8.47862 29.5867 8.19675C29.9789 7.90249 30.4692 7.75542 30.9596 7.76768C31.6094 7.76768 32.0752 7.93925 32.3693 8.28254C32.6636 8.62582 32.8106 9.10391 32.8106 9.74132V10.0601H29.746C28.1892 10.0601 27.0737 10.4032 26.3871 11.1021C25.7007 11.7885 25.3696 12.7079 25.3696 13.8357C25.3696 15.0003 25.7129 15.8583 26.3871 16.4222C27.0614 16.9861 27.9194 17.2681 28.9491 17.2681C30.2241 17.2681 31.2048 16.8268 31.8912 15.9441C32.2958 15.4048 32.59 14.7919 32.7371 14.1299H32.8474L33.2887 17.0107H36.1695V9.71681C36.1695 8.20901 35.7772 7.03223 34.9804 6.21085C34.1836 5.38948 32.8842 4.96041 31.1067 4.96041ZM32.112 13.9705C31.6584 14.3505 31.0577 14.5468 30.3099 14.5468C29.697 14.5468 29.2679 14.4363 29.0228 14.228C28.9001 14.1299 28.8143 13.995 28.7531 13.8602C28.6918 13.7131 28.655 13.5661 28.6673 13.4066C28.655 13.2595 28.6795 13.1125 28.7408 12.9775C28.8021 12.8427 28.8756 12.7202 28.9737 12.6099C29.0841 12.5118 29.2066 12.4259 29.3537 12.3769C29.5008 12.3279 29.648 12.3034 29.795 12.3156H32.8106V12.5118C32.8106 12.7937 32.7616 13.0757 32.6391 13.3208C32.5041 13.5661 32.3325 13.7989 32.112 13.9705ZM53.6136 5.24241H50.2056V17.0353H53.6136V5.24241ZM73.7299 5.24241C72.7615 5.24241 72.0138 5.58569 71.4498 6.25987C71.0576 6.75022 70.7511 7.47342 70.5427 8.4296H70.4446L70.0034 5.24241H67.0981V17.0353H70.506V10.9916C70.506 10.2317 70.6898 9.64328 71.0453 9.23872C71.4007 8.83416 72.0628 8.62582 73.019 8.62582H74.3183V5.24241H73.7299ZM63.7146 5.62246C62.9178 5.14437 61.9126 4.91138 60.699 4.91138C58.7867 4.91138 57.3034 5.45075 56.2246 6.54188C55.1459 7.63287 54.6065 9.12842 54.6065 11.0285C54.582 12.1808 54.8271 13.3208 55.342 14.3628C55.8078 15.2822 56.5311 16.0546 57.4259 16.5694C58.3331 17.0965 59.3996 17.3539 60.65 17.3539C61.7287 17.3539 62.6236 17.1823 63.3468 16.8513C64.0212 16.5572 64.6218 16.0913 65.0631 15.4905C65.4922 14.9144 65.8108 14.2525 65.9948 13.5661L63.0527 12.7447C62.93 13.1983 62.6849 13.6028 62.3662 13.946C62.0353 14.277 61.4835 14.4486 60.699 14.4486C59.7674 14.4486 59.0809 14.179 58.6273 13.6518C58.2963 13.2718 58.088 12.7202 58.0022 12.0092H66.0438C66.0806 11.6782 66.0928 11.3962 66.0928 11.1756V10.44C66.1174 9.45932 65.9089 8.47862 65.4922 7.58385C65.1121 6.76247 64.487 6.07604 63.7146 5.62246ZM60.601 7.73091C61.9862 7.73091 62.7707 8.40509 62.9545 9.76583H58.0635C58.137 9.31225 58.3331 8.88318 58.6151 8.51552C59.0564 7.98828 59.7183 7.73091 60.601 7.73091ZM51.9463 0.486004C51.6889 0.473748 51.4314 0.522904 51.1986 0.608691C50.9534 0.706734 50.745 0.841541 50.5612 1.01325C50.3772 1.19708 50.2424 1.40542 50.1444 1.65066C50.0463 1.88351 50.0096 2.14101 50.0218 2.39837C50.0096 2.65587 50.0586 2.91323 50.1566 3.14621C50.2547 3.39132 50.3895 3.5998 50.5734 3.78363C50.7573 3.96746 50.9779 4.1024 51.2109 4.20044C51.4437 4.29848 51.7012 4.33525 51.9586 4.32299C52.2161 4.33525 52.4734 4.28623 52.7064 4.20044C52.9393 4.1024 53.16 3.96746 53.3438 3.78363C53.5278 3.5998 53.6626 3.37907 53.7484 3.14621C53.8342 2.90097 53.8832 2.65587 53.8709 2.39837C53.8832 2.14101 53.8464 1.88351 53.7484 1.65066C53.6503 1.41768 53.5155 1.19708 53.3316 1.01325C53.1477 0.829286 52.9393 0.694477 52.6941 0.596434C52.4612 0.522902 52.2038 0.473748 51.9463 0.486004ZM44.9099 4.91138C43.7453 4.91138 42.8137 5.27918 42.115 6.00251C41.5879 6.54188 41.2078 7.35087 40.9626 8.41735H40.8523L40.411 5.23016H37.5056V20.4063H40.9136V14.1544H41.0362C41.1343 14.5713 41.2814 14.9757 41.4652 15.368C41.7594 15.9931 42.2253 16.5327 42.8259 16.8881C43.4388 17.2191 44.1377 17.3907 44.8363 17.3784C46.2584 17.3784 47.3493 16.8268 48.0972 15.7113C48.8449 14.5958 49.2127 13.0512 49.2127 11.0653C49.2127 9.14068 48.8572 7.63287 48.134 6.55413C47.4106 5.46301 46.3319 4.91138 44.9099 4.91138ZM45.2532 13.4556C44.8608 14.0319 44.2357 14.3138 43.3898 14.3138C43.0467 14.326 42.6911 14.2647 42.3723 14.1177C42.0537 13.9705 41.7717 13.7499 41.5634 13.4801C41.122 12.9285 40.9013 12.1685 40.9013 11.2001V10.9794C40.9013 9.99869 41.122 9.25098 41.5634 8.73612C42.0046 8.22126 42.6176 7.96377 43.3898 7.96377C44.2479 7.96377 44.8731 8.23352 45.2654 8.78514C45.6577 9.33676 45.8538 10.0969 45.8538 11.0776C45.8538 12.095 45.6577 12.8917 45.2532 13.4556Z" fill="#ADADA3"/>
<path d="M12.5471 14.1418H0.754333V17.0348H12.5471V14.1418Z" fill="#ADADA3"/>
</svg>
