<svg width="84" height="36" viewBox="0 0 84 36" fill="none" xmlns="http://www.w3.org/2000/svg">
<path d="M18.5062 3.4277C17.1143 3.10658 16.2046 5.40829 16.2046 5.40829V9.47623C21.3962 9.85059 21.3432 8.45937 21.3432 8.45937C26.3209 8.40573 29.4254 4.4025 29.4254 4.4025C24.8221 5.69851 19.8977 3.74876 18.5062 3.4277Z" fill="#4B2DC2"/>
<path d="M13.628 9.47619V5.40826C13.628 5.40826 12.7181 3.10658 11.3265 3.4277C9.93492 3.74882 5.01054 5.69855 0.407227 4.40258C0.407227 4.40258 3.51173 8.40582 8.48946 8.45946C8.48946 8.45946 8.4365 9.85055 13.628 9.47619Z" fill="#4B2DC2"/>
<path d="M14.2119 3.56865V14.1813C14.4283 14.2096 14.6604 14.2375 14.9166 14.2661C15.1671 14.2381 15.3941 14.2109 15.6063 14.1832V3.56865C16.0044 3.40694 16.3338 3.11188 16.5383 2.734C16.7428 2.35612 16.8095 1.91892 16.7271 1.49723C16.6448 1.07555 16.4183 0.695622 16.0867 0.422487C15.755 0.149352 15.3387 0 14.9091 0C14.4794 0 14.0631 0.149352 13.7315 0.422487C13.3998 0.695622 13.1734 1.07555 13.091 1.49723C13.0086 1.91892 13.0754 2.35612 13.2799 2.734C13.4843 3.11188 13.8138 3.40694 14.2119 3.56865Z" fill="#4B2DC2"/>
<path d="M14.9156 19.5832C14.9827 19.5575 15.0489 19.5314 15.115 19.5029C15.2772 19.4374 15.439 19.3626 15.6063 19.2775V17.1991C15.3786 17.1537 15.1486 17.1211 14.9173 17.1016C14.6804 17.1213 14.4449 17.1548 14.2119 17.2017V19.2708C14.383 19.3582 14.5474 19.4345 14.7076 19.499C14.7785 19.5298 14.8469 19.5565 14.9156 19.5832Z" fill="#4B2DC2"/>
<path d="M15.5778 27.1582C15.589 27.1508 15.5967 27.1444 15.6063 27.1373V26.7707C15.4724 26.7068 15.3321 26.6574 15.1877 26.6233C15.1007 26.5995 15.0079 26.5793 14.9141 26.5591C14.8223 26.5787 14.734 26.5989 14.6515 26.6214C14.4993 26.6567 14.3518 26.7097 14.2119 26.7793V27.1277C14.2254 27.138 14.2379 27.1476 14.254 27.1585C14.4658 27.2905 14.687 27.4068 14.9157 27.5066C15.1446 27.4068 15.3659 27.2904 15.5778 27.1582Z" fill="#4B2DC2"/>
<path d="M14.9154 33.814C14.7115 33.8824 14.5006 33.945 14.2768 34.0015C14.2543 34.0069 14.2337 34.0117 14.2119 34.0169L14.3124 34.8767C14.4335 35.1718 14.524 35.5741 14.9093 35.5741C15.2943 35.5741 15.3549 35.3195 15.4966 34.8767L15.6064 34.014C15.59 34.0099 15.574 34.0063 15.5566 34.0021C15.3271 33.944 15.1178 33.882 14.9154 33.814Z" fill="#4B2DC2"/>
<path d="M15.5842 30.5945C15.5708 30.5056 15.5365 30.421 15.484 30.3479C15.3298 30.1645 15.1356 30.0187 14.9164 29.9219C14.6986 30.0175 14.5056 30.1616 14.3519 30.3431C14.2987 30.4153 14.2635 30.4992 14.2492 30.5877C14.2449 30.6033 14.2419 30.6192 14.2402 30.6352C14.2402 30.6404 14.2398 30.6552 14.2395 30.66L14.2344 30.7287L14.2395 30.8372C14.2447 30.858 14.2487 30.879 14.2517 30.9002C14.3076 31.0838 14.4202 31.245 14.5734 31.3606C14.6812 31.4488 14.7961 31.5278 14.917 31.5969C15.0369 31.5278 15.151 31.4489 15.2581 31.3612C15.412 31.2459 15.525 31.0843 15.5805 30.9001C15.5837 30.8793 15.5879 30.8584 15.5927 30.8378L15.5978 30.7274L15.5927 30.6621C15.592 30.6532 15.5917 30.6442 15.5917 30.6352C15.5904 30.6215 15.5879 30.6079 15.5842 30.5945Z" fill="#4B2DC2"/>
<path d="M14.9163 24.1591C14.9256 24.1569 14.9349 24.1546 14.9439 24.1527C15.054 24.1283 15.161 24.1045 15.2653 24.0804C15.3841 24.0525 15.4987 24.0239 15.6063 23.9934V22.6079C15.3859 22.4898 15.1566 22.3889 14.9205 22.3062C14.6762 22.4009 14.4393 22.5139 14.2119 22.6442V23.9889C14.4183 24.0487 14.6476 24.0994 14.8875 24.1524C14.8967 24.1543 14.9067 24.1569 14.9163 24.1591Z" fill="#4B2DC2"/>
<path d="M16.2957 30.7303C16.2954 30.7338 16.2954 30.737 16.2951 30.7405L16.2871 30.9112C16.2855 30.944 16.2793 30.9765 16.2684 31.0075C16.2682 31.0139 16.2676 31.0202 16.2664 31.0265C16.1829 31.3728 15.9839 31.6804 15.7023 31.8985C15.6891 31.9091 15.6753 31.9184 15.6621 31.929C15.8084 31.9798 15.9488 32.0234 16.0728 32.0591C16.1941 32.0928 16.3097 32.1223 16.4208 32.1483C16.6828 31.8769 16.868 31.5407 16.9574 31.1742C16.9712 31.1048 16.9859 31.0232 16.9975 30.9417L17.0123 30.7181L17.0065 30.5553C17.0046 30.4882 16.9978 30.4214 16.9862 30.3553C16.9441 30.0591 16.8361 29.7761 16.6702 29.5272C16.5978 29.4217 16.5167 29.3225 16.4278 29.2305C16.1581 29.3714 15.9086 29.4793 15.6786 29.576C15.8229 29.6785 15.9497 29.8037 16.054 29.9468C16.1637 30.1 16.2372 30.2761 16.2688 30.4619C16.2784 30.5058 16.2847 30.5505 16.2877 30.5954C16.2936 30.621 16.2967 30.6472 16.297 30.6734C16.2973 30.6921 16.2967 30.71 16.2954 30.727L16.2957 30.7303Z" fill="#4B2DC2"/>
<path d="M21.985 12.6735L21.9616 12.4497C21.9251 12.1677 21.843 11.8936 21.7185 11.638C21.5837 11.3709 21.3937 11.1355 21.1611 10.9473C20.7779 10.6506 20.3175 10.4701 19.8347 10.4272C19.5123 10.3976 19.1878 10.4008 18.866 10.4368C18.8082 10.4432 18.7556 10.451 18.7032 10.4583C18.0835 10.2632 17.1251 10.1713 16.4634 11.1008C15.4121 12.5778 16.8641 13.1034 17.2645 13.053C17.6074 13.0103 18.6278 12.842 19.1816 12.1254C19.3389 12.1056 19.4977 12.1008 19.6559 12.1109C19.8029 12.1178 19.9468 12.1555 20.0784 12.2214C20.1349 12.2519 20.1837 12.2949 20.221 12.3472C20.2285 12.3575 20.2355 12.3683 20.2419 12.3794C20.2788 12.4469 20.3061 12.5191 20.3232 12.5942C20.344 12.6411 20.3554 12.6916 20.3569 12.7428C20.3572 12.7463 20.3575 12.7637 20.3575 12.7669C20.3582 12.7836 20.3591 12.8016 20.3588 12.8212L20.3611 12.9156C20.3621 12.9488 20.3611 12.9821 20.3578 13.0151C20.3524 13.0537 20.3404 13.091 20.3225 13.1256C20.2979 13.1873 20.2664 13.2461 20.2288 13.3009C20.0762 13.5063 19.8813 13.6765 19.6572 13.7999C19.5754 13.8496 19.489 13.8981 19.3971 13.944C18.6122 14.2996 17.7832 14.5481 16.9322 14.6829C16.8021 14.7069 16.6698 14.7304 16.5331 14.7529C16.4056 14.774 16.2752 14.7943 16.1397 14.8138C15.9721 14.8386 15.7946 14.8623 15.6061 14.8864C15.3936 14.9134 15.1663 14.9403 14.9168 14.9679C14.8872 14.9712 14.8593 14.9744 14.8292 14.9776C14.6169 14.9994 14.4121 15.0296 14.2117 15.065C13.7521 15.1422 13.3013 15.2653 12.8663 15.4326C12.5216 15.5649 12.1943 15.7386 11.8915 15.9499C11.8694 15.9656 11.8491 15.9816 11.8279 15.9977C11.7101 16.0844 11.5983 16.179 11.4934 16.281C11.3988 16.3736 11.3115 16.4735 11.2323 16.5796C11.1627 16.672 11.0997 16.7694 11.0439 16.8708C10.9518 17.0407 10.8838 17.2226 10.8419 17.4112C10.8329 17.452 10.8233 17.4931 10.8169 17.5342C10.8094 17.5898 10.8015 17.6524 10.7965 17.7147L10.7925 17.8531V17.8576L10.8037 18.0416C10.8053 18.0544 10.8065 18.0717 10.8075 18.0891C10.8091 18.1128 10.8118 18.1363 10.8159 18.1597C10.8326 18.2813 10.8571 18.4016 10.8894 18.52C10.9009 18.553 10.9115 18.5864 10.9225 18.6202C10.9419 18.6884 10.9663 18.7551 10.9954 18.8198C10.9982 18.8256 11.0008 18.8314 11.0034 18.8372C11.086 19.0271 11.1879 19.2081 11.3074 19.3772C11.6827 19.8842 12.1593 20.3076 12.707 20.6205C13.109 20.3506 13.537 20.1216 13.9847 19.937C13.8665 19.8786 13.7458 19.8153 13.6203 19.7453C13.1181 19.4826 12.683 19.1082 12.3484 18.6508C12.2442 18.5125 12.1741 18.3516 12.1438 18.1811C12.1134 18.0106 12.1237 17.8353 12.1738 17.6696C12.2059 17.5776 12.2509 17.4905 12.3073 17.4111H12.267C12.4394 17.2064 12.6524 17.0397 12.8925 16.9215C12.9098 16.9121 12.9275 16.9035 12.9448 16.8945C12.9509 16.8913 12.9567 16.888 12.9628 16.8851C13.0081 16.8623 13.0524 16.8411 13.0977 16.8209C13.114 16.8138 13.1293 16.8064 13.1458 16.7994C13.2152 16.7696 13.2836 16.7422 13.3494 16.7194C13.3539 16.7178 13.3584 16.7159 13.3632 16.7143L13.3651 16.7137C13.4543 16.6816 13.5474 16.6543 13.6405 16.6266C13.8285 16.5723 14.0192 16.5276 14.2117 16.4928C14.3299 16.4709 14.4503 16.4518 14.5749 16.4358C14.6863 16.4217 14.8005 16.4101 14.9175 16.4008C14.9358 16.3992 14.9529 16.3968 14.9714 16.3954C15.1972 16.3768 15.4071 16.3581 15.6062 16.3392C16.0339 16.2987 16.4079 16.2564 16.7505 16.2098C17.1608 16.1514 17.5811 16.0846 18.0043 15.9976C18.1491 15.9678 18.294 15.9353 18.439 15.9003C18.5722 15.8682 18.7058 15.8338 18.8388 15.7966C19.2624 15.6795 19.6764 15.5299 20.0772 15.3494C20.6337 15.1103 21.1237 14.7392 21.5047 14.2683C21.532 14.2323 21.555 14.1941 21.5802 14.1572C21.7442 13.9224 21.8623 13.6586 21.9282 13.3799C21.9304 13.3699 21.9327 13.3603 21.9357 13.3503C21.9519 13.2763 21.9636 13.2013 21.9707 13.1259L21.9883 12.7396L21.9858 12.6812C21.9853 12.6786 21.985 12.6761 21.985 12.6735Z" fill="#4B2DC2"/>
<path d="M17.9613 22.6186C17.8089 22.2287 17.5659 21.8805 17.2523 21.6031C17.1929 21.5498 17.1336 21.5003 17.0734 21.4512C16.7495 21.6209 16.4156 21.7711 16.0735 21.9007C16.0141 21.9245 15.9509 21.946 15.8892 21.9688C16.2841 22.159 16.6127 22.4635 16.8326 22.8427C16.8628 22.9001 16.8886 22.9598 16.9096 23.0212H16.9077C16.91 23.0276 16.9126 23.0341 16.9148 23.0405C16.9199 23.0533 16.9254 23.0662 16.9296 23.0803C16.9493 23.1476 16.9621 23.2168 16.9678 23.2867L16.9681 23.2877C16.9792 23.4301 16.9647 23.5733 16.9251 23.7106C16.9225 23.7196 16.9186 23.7282 16.9161 23.737C16.9055 23.7717 16.8901 23.8054 16.8766 23.8395C16.8647 23.8697 16.8561 23.9004 16.8416 23.9297C16.8349 23.947 16.8268 23.9637 16.8175 23.9798L16.7976 24.0129H16.7973L16.7909 24.024C16.7783 24.0439 16.7638 24.0624 16.7475 24.0793C16.6096 24.266 16.4275 24.4155 16.2174 24.5143C16.2071 24.5192 16.1956 24.523 16.1853 24.5278C16.1355 24.5497 16.0867 24.5718 16.0321 24.5901L16.0308 24.5904C15.915 24.6309 15.791 24.6662 15.6639 24.6996C15.6443 24.7044 15.6257 24.7096 15.6061 24.7147L15.5997 24.7167C15.4401 24.7568 15.2728 24.7941 15.1007 24.832C15.0989 24.8326 15.0962 24.8329 15.0936 24.8336C15.0352 24.8464 14.9752 24.8605 14.9161 24.8737C14.6881 24.9248 14.4554 24.9784 14.2142 25.0481L14.2117 25.049C13.8838 25.1375 13.5717 25.2764 13.2866 25.4609C13.2677 25.4734 13.2487 25.4853 13.2297 25.4988C13.1411 25.5631 13.0588 25.6359 12.984 25.7159C12.9187 25.7844 12.8586 25.8578 12.8045 25.9355C12.7907 25.9558 12.7784 25.9782 12.7657 25.9998C12.6733 26.1547 12.6052 26.3229 12.5637 26.4984C12.5451 26.5902 12.5313 26.6828 12.5223 26.7761L12.5142 26.9845L12.5196 27.065L12.5271 27.1687C12.5354 27.23 12.5463 27.2913 12.5598 27.3513C12.5841 27.4569 12.6201 27.5594 12.6671 27.657C12.8167 27.9495 13.0413 28.197 13.3179 28.3743C13.5688 28.1888 13.8354 28.0256 14.1146 27.8865C14.0272 27.8384 13.9431 27.7892 13.8661 27.7378C13.678 27.6241 13.5268 27.4585 13.4304 27.261C13.4297 27.2588 13.4239 27.2421 13.4229 27.2399C13.4191 27.2289 13.4142 27.2129 13.4091 27.1936C13.3984 27.1515 13.3921 27.1083 13.3902 27.0649C13.3892 27.0506 13.3879 27.0388 13.387 27.0231C13.3863 27.0161 13.3857 27.0087 13.3854 27.0013C13.385 26.9904 13.3844 26.9785 13.3844 26.9663C13.3841 26.9634 13.3841 26.9605 13.3837 26.9576H13.3841V26.9567C13.3841 26.948 13.3841 26.9399 13.3844 26.9316C13.3854 26.9023 13.3893 26.8731 13.3963 26.8446C13.4008 26.8077 13.4062 26.7794 13.412 26.7521L13.4168 26.7284C13.4196 26.709 13.4244 26.6899 13.431 26.6715C13.4744 26.5267 13.5602 26.3982 13.6774 26.3028C13.7031 26.281 13.7282 26.2595 13.7593 26.2373C13.8794 26.1609 14.0078 26.0983 14.142 26.0508C14.1642 26.0424 14.1882 26.0347 14.2117 26.0267C14.2948 25.9975 14.3819 25.9698 14.4753 25.9464C14.613 25.9088 14.762 25.8771 14.9155 25.8466C15.0118 25.8273 15.1081 25.8084 15.2086 25.7894C15.339 25.765 15.4715 25.7391 15.6061 25.7117C15.8421 25.6635 16.0848 25.6081 16.3427 25.53C16.4079 25.5095 16.4759 25.486 16.5453 25.4606C16.6709 25.415 16.7932 25.3611 16.9116 25.2991C17.0195 25.2429 17.1229 25.1785 17.2208 25.1065C17.2729 25.0683 17.3245 25.0282 17.3755 24.9832L17.4963 24.8669C17.5383 24.8203 17.582 24.7652 17.6218 24.7131C17.6448 24.6843 17.6662 24.6543 17.686 24.6232L17.7814 24.4647C17.8776 24.286 17.9544 24.0975 18.0106 23.9025C18.0898 23.6157 18.1083 23.3155 18.0649 23.0211C18.046 22.8834 18.0113 22.7483 17.9613 22.6186Z" fill="#4B2DC2"/>
<path d="M13.2008 32.9062C13.0001 32.9449 12.8222 32.973 12.6703 32.9952C12.5014 33.0189 12.3479 33.0366 12.2252 33.0472C12.2201 33.0478 12.2143 33.0482 12.2095 33.0485C12.1722 33.0506 12.1357 33.0601 12.1021 33.0763C12.0685 33.0926 12.0384 33.1153 12.0136 33.1432C11.9888 33.1709 11.9698 33.2032 11.9576 33.2383C11.9455 33.2735 11.9405 33.3107 11.943 33.3477C11.9471 33.4199 11.9786 33.4877 12.0311 33.5373C12.0836 33.587 12.153 33.6147 12.2252 33.6149L12.242 33.6142C12.2462 33.6139 12.295 33.61 12.3814 33.6046L12.7461 33.5692C13.1322 33.5256 13.5156 33.4609 13.8946 33.3756C13.675 33.2561 13.4658 33.1182 13.2695 32.9633C13.2469 32.9461 13.2236 32.9251 13.2008 32.9062Z" fill="#4B2DC2"/>
<path d="M17.6223 33.048V33.0477C17.6209 33.0477 17.6195 33.0476 17.6182 33.0473V33.0477L17.6079 33.0467C17.5363 33.0416 17.377 33.0252 17.1635 32.995C17.0111 32.9729 16.8325 32.9449 16.6309 32.9061C16.4938 32.8794 16.3451 32.8473 16.1868 32.8092C16.0892 32.7851 15.988 32.7594 15.8824 32.7302C15.8358 32.7167 15.7867 32.7016 15.7376 32.6868C15.6949 32.6737 15.6506 32.6592 15.6063 32.6454C15.3711 32.5712 15.1407 32.4827 14.9163 32.3805C14.7799 32.3183 14.6471 32.2485 14.5184 32.1715C14.4122 32.107 14.3098 32.0364 14.2118 31.9599C14.1983 31.9496 14.1842 31.94 14.1711 31.9294C14.1572 31.9185 14.1424 31.9089 14.1287 31.8976C13.8479 31.6796 13.6493 31.3727 13.5655 31.0272C13.5642 31.0191 13.5629 31.0115 13.5619 31.0034C13.5522 30.9737 13.5464 30.9428 13.5449 30.9116L13.5368 30.7398C13.5327 30.6952 13.535 30.6502 13.5435 30.6063C13.5462 30.5554 13.5531 30.5048 13.564 30.455C13.5972 30.2701 13.6712 30.0949 13.7808 29.9423C13.8843 29.8008 14.0101 29.6771 14.1532 29.5759C14.1715 29.5624 14.1923 29.5492 14.2117 29.5358C14.3073 29.4678 14.4067 29.4052 14.5093 29.3483C14.6204 29.2866 14.7414 29.226 14.8724 29.1665C14.8867 29.1601 14.9013 29.1537 14.9155 29.1469C15.049 29.085 15.19 29.0253 15.3396 28.9623C15.4276 28.9258 15.5164 28.8879 15.6061 28.8486C15.6803 28.8165 15.7548 28.7838 15.8306 28.7485C15.9464 28.6948 16.0654 28.6349 16.1873 28.5687C16.265 28.5263 16.3433 28.4833 16.424 28.4341C16.4529 28.4155 16.483 28.3955 16.5139 28.3745C16.7931 28.1943 17.0192 27.9429 17.1689 27.6463C17.2137 27.5522 17.248 27.4534 17.2713 27.3518C17.2851 27.2908 17.296 27.2299 17.3047 27.1688L17.3117 27.0651L17.3175 26.9855L17.3089 26.7656C17.2992 26.6711 17.2844 26.5772 17.2645 26.4844C17.2231 26.3136 17.1561 26.1502 17.0658 25.9995C16.8977 26.0757 16.725 26.1415 16.5489 26.1966C16.413 26.2377 16.2824 26.2721 16.1542 26.3036C16.2718 26.3993 16.3578 26.5282 16.4012 26.6735C16.4073 26.6917 16.4119 26.7104 16.415 26.7294L16.4198 26.7541C16.4259 26.783 16.432 26.8132 16.4359 26.8463C16.4446 26.8821 16.4486 26.9189 16.4477 26.9558H16.448L16.4477 26.9593C16.4477 26.968 16.4474 26.976 16.4471 26.9834C16.4468 26.9935 16.4458 27.0039 16.4445 27.0138L16.4419 27.0652L16.4394 27.1195C16.437 27.1685 16.4242 27.2164 16.4018 27.2601C16.3057 27.4585 16.154 27.6246 15.9651 27.7382C15.8884 27.7896 15.8043 27.8387 15.7169 27.8869C15.6813 27.9065 15.6434 27.9255 15.6062 27.9446C15.5169 27.9915 15.4251 28.0374 15.3288 28.0827C15.2324 28.1286 15.1339 28.1741 15.0331 28.2204C14.9944 28.2381 14.9544 28.2577 14.9159 28.2753C14.7878 28.3344 14.6583 28.3935 14.5282 28.4579C14.4248 28.5096 14.3186 28.5661 14.2116 28.6259C14.1413 28.665 14.071 28.7048 14.0011 28.7485C13.8884 28.8191 13.7799 28.8962 13.6761 28.9794C13.5797 29.0569 13.4886 29.1409 13.4035 29.2308C13.3148 29.3229 13.2339 29.4222 13.1614 29.5276C12.9964 29.7745 12.8889 30.0553 12.8468 30.3493C12.8351 30.4146 12.828 30.4807 12.8256 30.547L12.8198 30.7163L12.8341 30.9414C12.8463 31.0229 12.8605 31.1041 12.8765 31.1838C12.9666 31.5468 13.151 31.8795 13.411 32.1483C13.5011 32.2447 13.5983 32.3342 13.7016 32.4162C13.708 32.421 13.7142 32.4255 13.7209 32.4307C13.8399 32.5237 13.9647 32.6093 14.0943 32.6869C14.1338 32.7107 14.173 32.7318 14.2118 32.7533C14.3927 32.8528 14.5792 32.9415 14.7705 33.0189C14.8187 33.0382 14.8671 33.0562 14.9153 33.0744C15.0781 33.1354 15.2452 33.1913 15.4223 33.2427C15.4817 33.26 15.5446 33.2764 15.6063 33.2931C15.6464 33.304 15.6843 33.3155 15.726 33.3262C15.7983 33.3438 15.8683 33.3605 15.937 33.3759C16.3184 33.4616 16.7041 33.5263 17.0926 33.5698C17.2502 33.5852 17.3764 33.5974 17.4612 33.6052L17.6073 33.6142C17.6809 33.6139 17.7515 33.5849 17.8042 33.5335C17.8568 33.482 17.8873 33.412 17.8893 33.3384C17.8913 33.2648 17.8645 33.1934 17.8147 33.1392C17.7648 33.085 17.6958 33.0522 17.6223 33.048Z" fill="#4B2DC2"/>
<path d="M19.0341 17.7034C19.0303 17.6517 19.0222 17.5885 19.0142 17.5262C19.0081 17.488 18.9991 17.4494 18.9908 17.4112C18.9484 17.2223 18.88 17.0403 18.7875 16.8702C18.7318 16.769 18.6691 16.6719 18.5997 16.5796C18.0256 16.718 17.4557 16.8127 16.9021 16.8923C17.1614 17.008 17.3879 17.1863 17.5613 17.4112C17.6119 17.4798 17.6535 17.5547 17.6849 17.634C17.7372 17.7794 17.7554 17.9349 17.7383 18.0884C17.7211 18.242 17.6691 18.3896 17.586 18.5199C17.3353 18.9639 16.8729 19.3765 16.2118 19.7458C16.0863 19.8154 15.9658 19.8784 15.8474 19.9368C15.7658 19.9773 15.6859 20.0148 15.6062 20.0505C15.5401 20.0803 15.4743 20.1089 15.4091 20.1356C15.4011 20.1388 15.3927 20.1426 15.3847 20.1458C15.2319 20.2126 15.0778 20.2681 14.9159 20.326L14.8935 20.3343C14.766 20.3796 14.6272 20.4293 14.4655 20.4926C14.382 20.5263 14.2969 20.5617 14.2118 20.5983C13.9374 20.7145 13.6705 20.8478 13.4127 20.9974C13.2972 21.0651 13.1812 21.1374 13.0669 21.2173C12.9633 21.2892 12.8605 21.3679 12.7584 21.4513C12.6977 21.5014 12.637 21.5515 12.5769 21.6058C12.2661 21.8811 12.0247 22.2261 11.8725 22.6124C11.822 22.7443 11.7867 22.8816 11.7672 23.0215C11.7236 23.3152 11.742 23.6148 11.8211 23.9009C11.8766 24.0961 11.9532 24.2846 12.0498 24.4631L12.0928 24.5408L12.0985 24.5498L12.1467 24.6247C12.1659 24.6549 12.1867 24.6842 12.209 24.7123C12.2498 24.7649 12.2938 24.8205 12.3365 24.8676L12.4684 24.9951C12.515 25.0359 12.5622 25.0731 12.6101 25.1081C12.6783 25.045 12.7501 24.9858 12.8252 24.9309C13.0687 24.7594 13.3332 24.6196 13.6122 24.5151C13.4246 24.4341 13.2588 24.31 13.1283 24.1528C12.9978 23.9956 12.9063 23.8099 12.8611 23.6106C12.8226 23.4139 12.8373 23.2105 12.9038 23.0214C12.988 22.7865 13.1329 22.578 13.3238 22.4172C13.5235 22.2486 13.7405 22.1017 13.9714 21.9792C14.0517 21.9352 14.1319 21.8944 14.2119 21.8559C14.2793 21.8232 14.3464 21.7917 14.4126 21.7627C14.5782 21.6902 14.7372 21.6272 14.8781 21.5768C14.8893 21.5728 14.9042 21.5678 14.9163 21.5633C15.0049 21.5319 15.1094 21.4972 15.2255 21.4593C15.3472 21.4198 15.4773 21.3758 15.6063 21.3299C15.6795 21.3039 15.7528 21.2782 15.8221 21.2506C16.0176 21.1775 16.217 21.092 16.4193 20.997C16.5416 20.9395 16.6643 20.8794 16.7889 20.814C16.7931 20.8119 16.797 20.8098 16.8014 20.8076C16.9067 20.7498 17.0156 20.6868 17.1254 20.6204C17.6735 20.3068 18.1505 19.8828 18.5263 19.3752C18.6452 19.2065 18.7466 19.0261 18.8287 18.8368C18.8313 18.831 18.8338 18.8252 18.8364 18.8197C18.8656 18.7549 18.8902 18.688 18.9099 18.6197C18.9205 18.5863 18.9311 18.5529 18.9425 18.5205C18.9741 18.4042 18.9985 18.286 19.0154 18.1667C19.0198 18.1415 19.0229 18.1161 19.0247 18.0906C19.0257 18.0732 19.0267 18.0559 19.0295 18.0318L19.0398 17.8594C19.0394 17.8526 19.0394 17.8459 19.0394 17.8391L19.0341 17.7034Z" fill="#4B2DC2"/>
<path d="M11.4872 15.3818C11.8359 15.1378 12.2129 14.937 12.61 14.7839C12.7035 14.747 12.8027 14.7159 12.9003 14.6828C12.0489 14.5481 11.2195 14.2995 10.4344 13.9437C10.3432 13.8981 10.2565 13.8496 10.1749 13.7998C9.94856 13.6746 9.75194 13.5019 9.59859 13.2935C9.56207 13.24 9.5317 13.1826 9.50805 13.1223C9.49313 13.0922 9.48243 13.0601 9.47626 13.027C9.47048 12.9893 9.46887 12.951 9.47145 12.913L9.47178 12.8896L9.47305 12.816C9.47305 12.7964 9.47369 12.7778 9.47436 12.7598C9.47436 12.7557 9.47465 12.7515 9.47499 12.7476L9.47628 12.7316C9.48008 12.6897 9.48992 12.6486 9.5055 12.6096C9.52249 12.5287 9.55125 12.4507 9.59085 12.3781C9.59728 12.3675 9.60403 12.3569 9.61135 12.347C9.64821 12.2951 9.69642 12.2522 9.75231 12.2218C9.88598 12.1552 10.0321 12.1173 10.1813 12.1107C10.2275 12.1071 10.2805 12.1052 10.3345 12.1052C10.44 12.1058 10.5453 12.1125 10.6501 12.1251C11.2039 12.8421 12.2243 13.0103 12.5672 13.053C12.9683 13.1035 14.4199 12.5778 13.3686 11.1009C12.7069 10.1713 11.7488 10.2632 11.1284 10.4584C11.0754 10.4507 11.0218 10.4433 10.9637 10.4365C10.6411 10.4003 10.3156 10.3974 9.9924 10.4279C9.51114 10.4708 9.05237 10.6512 8.67084 10.9477C8.438 11.1356 8.24797 11.3711 8.11345 11.6383C7.98742 11.8973 7.90498 12.1752 7.86943 12.461L7.84375 12.7528L7.86203 13.1311C7.869 13.2044 7.88026 13.2772 7.89574 13.3492C7.89893 13.3595 7.90152 13.3697 7.90376 13.38C7.93645 13.5248 7.98468 13.6656 8.04761 13.8C8.12399 13.9665 8.2183 14.1243 8.32889 14.2704C8.71146 14.7423 9.20332 15.1138 9.76186 15.3527C10.1602 15.5322 10.5717 15.6806 10.9929 15.7968C11.1462 15.6453 11.3115 15.5065 11.4872 15.3818Z" fill="#4B2DC2"/>
<path d="M32.7425 27.2802V22.0267H27.4328V27.2802H24.5537V14.1934H27.4328V19.372H32.7425V14.1934H35.6217V27.2802H32.7425Z" fill="#4B2DC2"/>
<path d="M38.8936 27.2802V14.1934H41.7727V27.2802H38.8936Z" fill="#4B2DC2"/>
<path d="M54.9901 20.7558C54.7269 21.3151 54.3401 21.8073 53.8588 22.1953C53.3599 22.5917 52.7884 22.887 52.1764 23.0646C51.5057 23.2621 50.8096 23.3597 50.1105 23.3545H47.9232V27.2806H45.0439V14.1936H50.3909C51.1056 14.1825 51.8169 14.2931 52.4944 14.5208C53.0759 14.7181 53.6105 15.0332 54.0648 15.4463C54.4948 15.8456 54.8329 16.3336 55.0556 16.8765C55.2919 17.4613 55.4095 18.0873 55.4014 18.718V18.7553C55.4163 19.4445 55.2756 20.1283 54.9901 20.7558ZM52.485 18.774C52.485 18.1262 52.2762 17.6339 51.8586 17.2972C51.441 16.9604 50.8707 16.7921 50.1478 16.7923H47.9232V20.7932H50.2043C50.927 20.7932 51.4879 20.6031 51.8867 20.223C52.0805 20.0433 52.234 19.8246 52.3371 19.5813C52.4403 19.338 52.4908 19.0757 52.4852 18.8115L52.485 18.774Z" fill="#4B2DC2"/>
<path d="M65.7772 27.2804L64.5805 24.3452H59.0467L57.8503 27.2804H54.915L60.5237 14.1001H63.1784L68.787 27.2804H65.7772ZM61.8138 17.5587L60.0751 21.8026H63.5524L61.8138 17.5587Z" fill="#4B2DC2"/>
<path d="M80.5463 27.2804L79.3499 24.3452H73.8162L72.6195 27.2804H69.6846L75.2932 14.1001H77.9479L83.5565 27.2804H80.5463ZM76.5829 17.5587L74.8442 21.8026H78.3215L76.5829 17.5587Z" fill="#4B2DC2"/>
</svg>
