<svg width="66" height="17" viewBox="0 0 66 17" fill="none" xmlns="http://www.w3.org/2000/svg">
<path d="M42.9036 14.9417C42.5245 14.4755 42.3179 13.8933 42.3179 13.2927V8.95561C42.3179 5.87762 40.8669 4.11523 38.3003 4.11523C34.8831 4.11523 34.2214 5.9764 33.312 7.55955C33.2678 7.63626 33.1705 7.6632 33.0926 7.62167L32.9025 7.51989C32.8213 7.47648 32.7917 7.37434 32.8378 7.29426L33.0971 6.84076C33.2611 6.55937 33.349 6.23982 33.349 5.91391V5.25947C33.349 4.83703 33.0066 4.49503 32.5844 4.49503H28.8632C28.3026 4.49503 28.001 5.15283 28.3662 5.57753L28.9085 6.20802C29.4549 6.84375 29.7558 7.65422 29.7558 8.49238V12.9945C29.7558 13.494 29.6492 13.9876 29.4426 14.4426L29.0114 15.3922C28.8146 15.8263 29.132 16.3183 29.6084 16.3183H34.2569C34.8105 16.3183 35.1147 15.6747 34.7637 15.2471L34.3876 14.7887C34.0036 14.321 33.7936 13.7346 33.7936 13.13V10.6458C33.7936 9.77844 34.0013 8.9182 34.4362 8.16759C34.9639 7.25684 35.6533 6.79136 36.5159 6.79136C37.6768 6.79136 38.3011 7.6183 38.3011 9.11165V13.1468C38.3011 13.6344 38.1993 14.1163 38.0024 14.5623L37.6334 15.3982C37.4422 15.8315 37.7595 16.3183 38.233 16.3183H42.6458C43.1978 16.3183 43.5024 15.6777 43.1544 15.2497L42.9044 14.9425L42.9036 14.9417Z" fill="#4B2DC2"/>
<path d="M51.1911 14.5873C51.0425 14.6169 50.8969 14.6375 50.7689 14.6405C49.5695 14.6405 48.9927 13.8858 48.9927 12.3333V6.1642H51.1765C51.4291 6.1642 51.6342 5.95952 51.6342 5.70658V4.95934C51.6342 4.70677 51.4291 4.50172 51.1765 4.50172H48.382C48.3034 4.50172 48.2401 4.43811 48.2401 4.35991V4.15074C48.2401 4.07291 48.303 4.0093 48.3808 4.00893H48.6645C48.8457 4.0093 48.9927 3.86263 48.9927 3.68152V2.04935C48.9927 1.73804 48.7405 1.48584 48.4291 1.48584H46.8221C46.5294 1.48584 46.2701 1.67555 46.1832 1.95506C45.998 2.56722 45.5515 4.50172 44.099 4.50172H43.6672C43.4157 4.50172 43.2109 4.7064 43.2109 4.95934V5.70658C43.2109 5.95952 43.4157 6.1642 43.6672 6.1642H44.9987V12.4893C44.9987 15.0626 46.3086 16.4826 48.6821 16.4826C49.8666 16.4826 50.9411 16.05 51.5915 15.2702C51.8445 14.9656 51.5814 14.511 51.1911 14.5873Z" fill="#4B2DC2"/>
<path d="M27.8576 14.1228C27.1499 14.2504 26.6716 13.6962 26.6716 12.8266V8.64069C26.6716 5.65549 24.779 4.05176 21.1031 4.05176C17.8112 4.05176 15.5627 5.31723 15.5567 7.22816C15.5552 7.57129 15.684 7.9073 15.8737 8.23134C16.1787 8.69944 16.73 9.01337 17.3614 9.01337C18.3225 9.01337 19.1016 8.28859 19.1016 7.39467C19.0986 6.47794 18.3243 6.0132 18.0897 5.92602C18.2566 5.78383 18.9774 5.22855 20.0418 5.22855C21.7337 5.22855 22.6398 6.51049 22.6398 8.50711V9.30074C21.37 9.30074 19.9452 9.42834 18.9433 9.6723C16.4916 10.2078 15.1997 11.6027 15.1997 13.3404C15.1997 15.3 16.7596 16.5243 19.2319 16.5243C20.9478 16.5243 22.3737 15.9241 23.0418 14.9205C23.4639 15.7681 24.3999 16.302 25.6039 16.302C27.1608 16.302 27.9762 15.49 28.2337 14.5247C28.3003 14.25 28.0926 14.0775 27.8584 14.1232L27.8576 14.1228ZM22.6394 13.184C22.5069 14.1183 21.861 14.6758 20.925 14.6758C19.8992 14.6758 19.2091 13.9858 19.2091 12.894C19.2091 12.048 19.5874 11.3078 20.413 10.9516C20.9692 10.7058 21.8374 10.5722 22.6394 10.5501V13.184Z" fill="#4B2DC2"/>
<path d="M65.0974 14.1228C64.3896 14.2504 63.9114 13.6962 63.9114 12.8266V8.64069C63.9114 5.65549 62.0188 4.05176 58.3429 4.05176C55.051 4.05176 52.8025 5.31723 52.7965 7.22816C52.795 7.57129 52.9237 7.9073 53.1135 8.23134C53.4185 8.69944 53.9698 9.01337 54.6011 9.01337C55.5622 9.01337 56.3414 8.28859 56.3414 7.39467C56.3384 6.47794 55.5641 6.0132 55.3294 5.92602C55.4963 5.78383 56.2171 5.22855 57.2815 5.22855C58.9735 5.22855 59.8796 6.51049 59.8796 8.50711V9.30074C58.6097 9.30074 57.1849 9.42834 56.1831 9.6723C53.7314 10.2078 52.4395 11.6027 52.4395 13.3404C52.4395 15.3 53.9993 16.5243 56.4716 16.5243C58.1876 16.5243 59.6135 15.9241 60.2815 14.9205C60.7037 15.7681 61.6397 16.302 62.8436 16.302C64.4005 16.302 65.216 15.49 65.4735 14.5247C65.5401 14.25 65.3324 14.0775 65.0981 14.1232L65.0974 14.1228ZM59.8792 13.184C59.7467 14.1183 59.1007 14.6758 58.1647 14.6758C57.1389 14.6758 56.4488 13.9858 56.4488 12.894C56.4488 12.048 56.8272 11.3078 57.6528 10.9516C58.2089 10.7058 59.0772 10.5722 59.8792 10.5501V13.184Z" fill="#4B2DC2"/>
<path d="M15.8317 0.554085H13.8111C13.3762 0.554085 13.1157 1.03715 13.3549 1.40048L13.7011 1.9262C13.9967 2.37559 14.0547 2.94097 13.856 3.44088L10.231 12.5563C10.0641 12.9952 9.89531 13.296 9.81821 13.3701C9.77704 13.4094 9.70856 13.4214 9.65504 13.3817L9.4638 13.2294C9.40317 13.1838 9.40654 13.1175 9.4623 13.0554C9.56859 12.9143 9.63445 12.7441 9.67188 12.5892C9.71641 12.4032 9.70145 12.2079 9.63333 12.029L6.56373 3.91609C6.36089 3.38063 6.36912 2.78831 6.58581 2.25847L6.91365 1.45735C7.0903 1.0263 6.77294 0.553711 6.30699 0.553711H1.36053C0.693987 0.553711 0.346681 1.3466 0.798027 1.8364L1.11277 2.17802C1.69099 2.80515 2.14795 3.53405 2.4612 4.32768L6.86874 15.8438C6.98401 16.136 7.2662 16.328 7.58019 16.328H10.0207C10.3343 16.328 10.6161 16.1368 10.7314 15.8453L16.4406 1.45137C16.6112 1.02106 16.2942 0.55446 15.8313 0.55446L15.8317 0.554085Z" fill="#4B2DC2"/>
</svg>
