<svg width="103" height="97" viewBox="0 0 103 97" fill="none" xmlns="http://www.w3.org/2000/svg">
<rect x="7.60547" y="0.735352" width="94.6529" height="95.5293" rx="4.52046" fill="#5A36EC"/>
<rect x="7.82734" y="0.957226" width="94.2091" height="95.0855" rx="4.29859" stroke="black" stroke-opacity="0.15" stroke-width="0.443748"/>
<path d="M0.541992 50.5896C0.541992 50.0995 0.939338 49.7021 1.42949 49.7021H7.60556V72.3729H1.42949C0.939337 72.3729 0.541992 71.9756 0.541992 71.4854V50.5896Z" fill="#4D2EC9"/>
<path d="M1.42949 49.924H7.38368V72.1511H1.42949C1.06188 72.1511 0.763866 71.8531 0.763866 71.4854V50.5896C0.763866 50.222 1.06188 49.924 1.42949 49.924Z" stroke="black" stroke-opacity="0.15" stroke-width="0.443748"/>
<path d="M0.541992 25.5144C0.541992 25.0243 0.939338 24.627 1.42949 24.627H7.60556V47.2977H1.42949C0.939337 47.2977 0.541992 46.9004 0.541992 46.4103V25.5144Z" fill="#4D2EC9"/>
<path d="M1.42949 24.8488H7.38368V47.0759H1.42949C1.06188 47.0759 0.763866 46.7779 0.763866 46.4103V25.5144C0.763866 25.1468 1.06188 24.8488 1.42949 24.8488Z" stroke="black" stroke-opacity="0.15" stroke-width="0.443748"/>
<g filter="url(#filter0_d_284_23625)">
<rect x="66.8633" y="41.4165" width="17.6835" height="1.22504" rx="0.408348" transform="rotate(-19.1825 66.8633 41.4165)" fill="#CCC2F3"/>
</g>
<g filter="url(#filter1_d_284_23625)">
<rect x="24.5981" y="54.71" width="17.6835" height="1.22504" rx="0.408348" transform="rotate(-19.1825 24.5981 54.71)" fill="#CCC2F3"/>
</g>
<g filter="url(#filter2_d_284_23625)">
<rect x="45.9995" y="17.4321" width="17.6835" height="1.22504" rx="0.408348" transform="rotate(70.8175 45.9995 17.4321)" fill="#CCC2F3"/>
</g>
<g filter="url(#filter3_d_284_23625)">
<rect x="61.1602" y="58.5083" width="17.6835" height="1.22504" rx="0.408348" transform="rotate(70.8175 61.1602 58.5083)" fill="#CCC2F3"/>
</g>
<g filter="url(#filter4_d_284_23625)">
<circle cx="54.4187" cy="46.604" r="15.1866" transform="rotate(25.8175 54.4187 46.604)" fill="#5134C6"/>
<circle cx="54.4187" cy="46.604" r="13.5532" transform="rotate(25.8175 54.4187 46.604)" stroke="#CCC2F3" stroke-width="3.26678"/>
</g>
<defs>
<filter id="filter0_d_284_23625" x="66.9746" y="35.7173" width="17.6985" height="8.37802" filterUnits="userSpaceOnUse" color-interpolation-filters="sRGB">
<feFlood flood-opacity="0" result="BackgroundImageFix"/>
<feColorMatrix in="SourceAlpha" type="matrix" values="0 0 0 0 0 0 0 0 0 0 0 0 0 0 0 0 0 0 127 0" result="hardAlpha"/>
<feOffset dx="0.816696" dy="1.63339"/>
<feComposite in2="hardAlpha" operator="out"/>
<feColorMatrix type="matrix" values="0 0 0 0 0 0 0 0 0 0 0 0 0 0 0 0 0 0 0.25 0"/>
<feBlend mode="normal" in2="BackgroundImageFix" result="effect1_dropShadow_284_23625"/>
<feBlend mode="normal" in="SourceGraphic" in2="effect1_dropShadow_284_23625" result="shape"/>
</filter>
<filter id="filter1_d_284_23625" x="24.7095" y="49.0107" width="17.698" height="8.37802" filterUnits="userSpaceOnUse" color-interpolation-filters="sRGB">
<feFlood flood-opacity="0" result="BackgroundImageFix"/>
<feColorMatrix in="SourceAlpha" type="matrix" values="0 0 0 0 0 0 0 0 0 0 0 0 0 0 0 0 0 0 127 0" result="hardAlpha"/>
<feOffset dx="0.816696" dy="1.63339"/>
<feComposite in2="hardAlpha" operator="out"/>
<feColorMatrix type="matrix" values="0 0 0 0 0 0 0 0 0 0 0 0 0 0 0 0 0 0 0.25 0"/>
<feBlend mode="normal" in2="BackgroundImageFix" result="effect1_dropShadow_284_23625"/>
<feBlend mode="normal" in="SourceGraphic" in2="effect1_dropShadow_284_23625" result="shape"/>
</filter>
<filter id="filter2_d_284_23625" x="44.9541" y="17.5435" width="7.56132" height="18.5147" filterUnits="userSpaceOnUse" color-interpolation-filters="sRGB">
<feFlood flood-opacity="0" result="BackgroundImageFix"/>
<feColorMatrix in="SourceAlpha" type="matrix" values="0 0 0 0 0 0 0 0 0 0 0 0 0 0 0 0 0 0 127 0" result="hardAlpha"/>
<feOffset dx="0.816696" dy="1.63339"/>
<feComposite in2="hardAlpha" operator="out"/>
<feColorMatrix type="matrix" values="0 0 0 0 0 0 0 0 0 0 0 0 0 0 0 0 0 0 0.25 0"/>
<feBlend mode="normal" in2="BackgroundImageFix" result="effect1_dropShadow_284_23625"/>
<feBlend mode="normal" in="SourceGraphic" in2="effect1_dropShadow_284_23625" result="shape"/>
</filter>
<filter id="filter3_d_284_23625" x="60.1143" y="58.6196" width="7.56181" height="18.5147" filterUnits="userSpaceOnUse" color-interpolation-filters="sRGB">
<feFlood flood-opacity="0" result="BackgroundImageFix"/>
<feColorMatrix in="SourceAlpha" type="matrix" values="0 0 0 0 0 0 0 0 0 0 0 0 0 0 0 0 0 0 127 0" result="hardAlpha"/>
<feOffset dx="0.816696" dy="1.63339"/>
<feComposite in2="hardAlpha" operator="out"/>
<feColorMatrix type="matrix" values="0 0 0 0 0 0 0 0 0 0 0 0 0 0 0 0 0 0 0.25 0"/>
<feBlend mode="normal" in2="BackgroundImageFix" result="effect1_dropShadow_284_23625"/>
<feBlend mode="normal" in="SourceGraphic" in2="effect1_dropShadow_284_23625" result="shape"/>
</filter>
<filter id="filter4_d_284_23625" x="39.2285" y="31.4141" width="32.0133" height="32.4216" filterUnits="userSpaceOnUse" color-interpolation-filters="sRGB">
<feFlood flood-opacity="0" result="BackgroundImageFix"/>
<feColorMatrix in="SourceAlpha" type="matrix" values="0 0 0 0 0 0 0 0 0 0 0 0 0 0 0 0 0 0 127 0" result="hardAlpha"/>
<feOffset dx="1.63339" dy="2.04174"/>
<feComposite in2="hardAlpha" operator="out"/>
<feColorMatrix type="matrix" values="0 0 0 0 0 0 0 0 0 0 0 0 0 0 0 0 0 0 0.25 0"/>
<feBlend mode="normal" in2="BackgroundImageFix" result="effect1_dropShadow_284_23625"/>
<feBlend mode="normal" in="SourceGraphic" in2="effect1_dropShadow_284_23625" result="shape"/>
</filter>
</defs>
</svg>
