<svg width="114" height="107" viewBox="0 0 114 107" fill="none" xmlns="http://www.w3.org/2000/svg">
<rect x="8.76074" y="0.668457" width="104.694" height="105.663" rx="6.35583" fill="#5A36EC"/>
<rect x="9.00615" y="0.913868" width="104.203" height="105.172" rx="6.11042" stroke="black" stroke-opacity="0.15" stroke-width="0.490821"/>
<path d="M0.947266 55.8112C0.947266 55.2691 1.38676 54.8296 1.92891 54.8296H8.76014V79.9053H1.92891C1.38676 79.9053 0.947266 79.4658 0.947266 78.9237V55.8112Z" fill="#4D2EC9"/>
<path d="M1.92891 55.075H8.51473V79.6599H1.92891C1.5223 79.6599 1.19268 79.3303 1.19268 78.9237V55.8112C1.19268 55.4046 1.5223 55.075 1.92891 55.075Z" stroke="black" stroke-opacity="0.15" stroke-width="0.490821"/>
<path d="M0.947266 28.0764C0.947266 27.5342 1.38676 27.0947 1.92891 27.0947H8.76014V52.1705H1.92891C1.38676 52.1705 0.947266 51.731 0.947266 51.1888V28.0764Z" fill="#4D2EC9"/>
<path d="M1.92891 27.3401H8.51473V51.9251H1.92891C1.5223 51.9251 1.19268 51.5954 1.19268 51.1888V28.0764C1.19268 27.6698 1.5223 27.3401 1.92891 27.3401Z" stroke="black" stroke-opacity="0.15" stroke-width="0.490821"/>
<g filter="url(#filter0_d_284_23679)">
<rect x="67.5723" y="37.9888" width="21.5342" height="1.4918" rx="0.497266" transform="rotate(-63.4503 67.5723 37.9888)" fill="#CCC2F3"/>
</g>
<g filter="url(#filter1_d_284_23679)">
<rect x="42.0166" y="85.5063" width="21.5342" height="1.4918" rx="0.497266" transform="rotate(-63.4503 42.0166 85.5063)" fill="#CCC2F3"/>
</g>
<g filter="url(#filter2_d_284_23679)">
<rect x="28.9912" y="34.8081" width="21.5342" height="1.4918" rx="0.497266" transform="rotate(26.5497 28.9912 34.8081)" fill="#CCC2F3"/>
</g>
<g filter="url(#filter3_d_284_23679)">
<rect x="77.127" y="57.7407" width="21.5342" height="1.4918" rx="0.497266" transform="rotate(26.5497 77.127 57.7407)" fill="#CCC2F3"/>
</g>
<g filter="url(#filter4_d_284_23679)">
<circle cx="61.1302" cy="53.0905" r="18.4935" transform="rotate(-18.4503 61.1302 53.0905)" fill="#5134C6"/>
<circle cx="61.1302" cy="53.0905" r="16.5045" transform="rotate(-18.4503 61.1302 53.0905)" stroke="#CCC2F3" stroke-width="3.97813"/>
</g>
<defs>
<filter id="filter0_d_284_23679" x="67.7422" y="18.895" width="11.6146" height="21.5799" filterUnits="userSpaceOnUse" color-interpolation-filters="sRGB">
<feFlood flood-opacity="0" result="BackgroundImageFix"/>
<feColorMatrix in="SourceAlpha" type="matrix" values="0 0 0 0 0 0 0 0 0 0 0 0 0 0 0 0 0 0 127 0" result="hardAlpha"/>
<feOffset dx="0.994533" dy="1.98907"/>
<feComposite in2="hardAlpha" operator="out"/>
<feColorMatrix type="matrix" values="0 0 0 0 0 0 0 0 0 0 0 0 0 0 0 0 0 0 0.25 0"/>
<feBlend mode="normal" in2="BackgroundImageFix" result="effect1_dropShadow_284_23679"/>
<feBlend mode="normal" in="SourceGraphic" in2="effect1_dropShadow_284_23679" result="shape"/>
</filter>
<filter id="filter1_d_284_23679" x="42.1865" y="66.4126" width="11.6146" height="21.5799" filterUnits="userSpaceOnUse" color-interpolation-filters="sRGB">
<feFlood flood-opacity="0" result="BackgroundImageFix"/>
<feColorMatrix in="SourceAlpha" type="matrix" values="0 0 0 0 0 0 0 0 0 0 0 0 0 0 0 0 0 0 127 0" result="hardAlpha"/>
<feOffset dx="0.994533" dy="1.98907"/>
<feComposite in2="hardAlpha" operator="out"/>
<feColorMatrix type="matrix" values="0 0 0 0 0 0 0 0 0 0 0 0 0 0 0 0 0 0 0.25 0"/>
<feBlend mode="normal" in2="BackgroundImageFix" result="effect1_dropShadow_284_23679"/>
<feBlend mode="normal" in="SourceGraphic" in2="effect1_dropShadow_284_23679" result="shape"/>
</filter>
<filter id="filter2_d_284_23679" x="28.4941" y="34.978" width="20.5854" height="12.6092" filterUnits="userSpaceOnUse" color-interpolation-filters="sRGB">
<feFlood flood-opacity="0" result="BackgroundImageFix"/>
<feColorMatrix in="SourceAlpha" type="matrix" values="0 0 0 0 0 0 0 0 0 0 0 0 0 0 0 0 0 0 127 0" result="hardAlpha"/>
<feOffset dx="0.994533" dy="1.98907"/>
<feComposite in2="hardAlpha" operator="out"/>
<feColorMatrix type="matrix" values="0 0 0 0 0 0 0 0 0 0 0 0 0 0 0 0 0 0 0.25 0"/>
<feBlend mode="normal" in2="BackgroundImageFix" result="effect1_dropShadow_284_23679"/>
<feBlend mode="normal" in="SourceGraphic" in2="effect1_dropShadow_284_23679" result="shape"/>
</filter>
<filter id="filter3_d_284_23679" x="76.6299" y="57.9106" width="20.5854" height="12.6092" filterUnits="userSpaceOnUse" color-interpolation-filters="sRGB">
<feFlood flood-opacity="0" result="BackgroundImageFix"/>
<feColorMatrix in="SourceAlpha" type="matrix" values="0 0 0 0 0 0 0 0 0 0 0 0 0 0 0 0 0 0 127 0" result="hardAlpha"/>
<feOffset dx="0.994533" dy="1.98907"/>
<feComposite in2="hardAlpha" operator="out"/>
<feColorMatrix type="matrix" values="0 0 0 0 0 0 0 0 0 0 0 0 0 0 0 0 0 0 0.25 0"/>
<feBlend mode="normal" in2="BackgroundImageFix" result="effect1_dropShadow_284_23679"/>
<feBlend mode="normal" in="SourceGraphic" in2="effect1_dropShadow_284_23679" result="shape"/>
</filter>
<filter id="filter4_d_284_23679" x="42.6318" y="34.5918" width="38.9861" height="39.4834" filterUnits="userSpaceOnUse" color-interpolation-filters="sRGB">
<feFlood flood-opacity="0" result="BackgroundImageFix"/>
<feColorMatrix in="SourceAlpha" type="matrix" values="0 0 0 0 0 0 0 0 0 0 0 0 0 0 0 0 0 0 127 0" result="hardAlpha"/>
<feOffset dx="1.98907" dy="2.48633"/>
<feComposite in2="hardAlpha" operator="out"/>
<feColorMatrix type="matrix" values="0 0 0 0 0 0 0 0 0 0 0 0 0 0 0 0 0 0 0.25 0"/>
<feBlend mode="normal" in2="BackgroundImageFix" result="effect1_dropShadow_284_23679"/>
<feBlend mode="normal" in="SourceGraphic" in2="effect1_dropShadow_284_23679" result="shape"/>
</filter>
</defs>
</svg>
