<svg width="85" height="80" viewBox="0 0 85 80" fill="none" xmlns="http://www.w3.org/2000/svg">
<rect x="6.15723" y="0.027832" width="78.5099" height="79.2369" rx="3.7495" fill="url(#paint0_linear_275_21914)"/>
<rect x="6.34126" y="0.211866" width="78.1418" height="78.8688" rx="3.56547" stroke="black" stroke-opacity="0.15" stroke-width="0.368067"/>
<path d="M0.29834 41.3792C0.29834 40.9726 0.627918 40.6431 1.03447 40.6431H6.15722V59.4474H1.03447C0.627918 59.4474 0.29834 59.1178 0.29834 58.7112V41.3792Z" fill="#4D2EC9"/>
<path d="M1.03447 40.8271H5.97319V59.2633H1.03447C0.729557 59.2633 0.482373 59.0162 0.482373 58.7112V41.3792C0.482373 41.0743 0.729557 40.8271 1.03447 40.8271Z" stroke="black" stroke-opacity="0.15" stroke-width="0.368067"/>
<path d="M0.29834 20.5809C0.29834 20.1743 0.627918 19.8447 1.03447 19.8447H6.15722V38.649H1.03447C0.627918 38.649 0.29834 38.3195 0.29834 37.9129V20.5809Z" fill="#4D2EC9"/>
<path d="M1.03447 20.0288H5.97319V38.465H1.03447C0.729557 38.465 0.482373 38.2178 0.482373 37.9129V20.5809C0.482373 20.2759 0.729557 20.0288 1.03447 20.0288Z" stroke="black" stroke-opacity="0.15" stroke-width="0.368067"/>
<g filter="url(#filter0_d_275_21914)">
<rect x="55.3086" y="33.771" width="14.6676" height="1.01611" rx="0.338704" transform="rotate(-19.1825 55.3086 33.771)" fill="#CCC2F3"/>
</g>
<g filter="url(#filter1_d_275_21914)">
<rect x="20.2515" y="44.7969" width="14.6676" height="1.01611" rx="0.338704" transform="rotate(-19.1825 20.2515 44.7969)" fill="#CCC2F3"/>
</g>
<g filter="url(#filter2_d_275_21914)">
<rect x="38.0029" y="13.877" width="14.6676" height="1.01611" rx="0.338704" transform="rotate(70.8175 38.0029 13.877)" fill="#CCC2F3"/>
</g>
<g filter="url(#filter3_d_275_21914)">
<rect x="50.5781" y="47.9478" width="14.6676" height="1.01611" rx="0.338704" transform="rotate(70.8175 50.5781 47.9478)" fill="#CCC2F3"/>
</g>
<g filter="url(#filter4_d_275_21914)">
<circle cx="44.9862" cy="38.0737" r="12.5966" transform="rotate(25.8175 44.9862 38.0737)" fill="#5134C6"/>
<circle cx="44.9862" cy="38.0737" r="11.2417" transform="rotate(25.8175 44.9862 38.0737)" stroke="#CCC2F3" stroke-width="2.70964"/>
</g>
<defs>
<filter id="filter0_d_275_21914" x="55.4009" y="29.0439" width="14.6799" height="6.94906" filterUnits="userSpaceOnUse" color-interpolation-filters="sRGB">
<feFlood flood-opacity="0" result="BackgroundImageFix"/>
<feColorMatrix in="SourceAlpha" type="matrix" values="0 0 0 0 0 0 0 0 0 0 0 0 0 0 0 0 0 0 127 0" result="hardAlpha"/>
<feOffset dx="0.677409" dy="1.35482"/>
<feComposite in2="hardAlpha" operator="out"/>
<feColorMatrix type="matrix" values="0 0 0 0 0 0 0 0 0 0 0 0 0 0 0 0 0 0 0.25 0"/>
<feBlend mode="normal" in2="BackgroundImageFix" result="effect1_dropShadow_275_21914"/>
<feBlend mode="normal" in="SourceGraphic" in2="effect1_dropShadow_275_21914" result="shape"/>
</filter>
<filter id="filter1_d_275_21914" x="20.3438" y="40.0698" width="14.6799" height="6.94906" filterUnits="userSpaceOnUse" color-interpolation-filters="sRGB">
<feFlood flood-opacity="0" result="BackgroundImageFix"/>
<feColorMatrix in="SourceAlpha" type="matrix" values="0 0 0 0 0 0 0 0 0 0 0 0 0 0 0 0 0 0 127 0" result="hardAlpha"/>
<feOffset dx="0.677409" dy="1.35482"/>
<feComposite in2="hardAlpha" operator="out"/>
<feColorMatrix type="matrix" values="0 0 0 0 0 0 0 0 0 0 0 0 0 0 0 0 0 0 0.25 0"/>
<feBlend mode="normal" in2="BackgroundImageFix" result="effect1_dropShadow_275_21914"/>
<feBlend mode="normal" in="SourceGraphic" in2="effect1_dropShadow_275_21914" result="shape"/>
</filter>
<filter id="filter2_d_275_21914" x="37.1357" y="13.9692" width="6.27165" height="15.3573" filterUnits="userSpaceOnUse" color-interpolation-filters="sRGB">
<feFlood flood-opacity="0" result="BackgroundImageFix"/>
<feColorMatrix in="SourceAlpha" type="matrix" values="0 0 0 0 0 0 0 0 0 0 0 0 0 0 0 0 0 0 127 0" result="hardAlpha"/>
<feOffset dx="0.677409" dy="1.35482"/>
<feComposite in2="hardAlpha" operator="out"/>
<feColorMatrix type="matrix" values="0 0 0 0 0 0 0 0 0 0 0 0 0 0 0 0 0 0 0.25 0"/>
<feBlend mode="normal" in2="BackgroundImageFix" result="effect1_dropShadow_275_21914"/>
<feBlend mode="normal" in="SourceGraphic" in2="effect1_dropShadow_275_21914" result="shape"/>
</filter>
<filter id="filter3_d_275_21914" x="49.7109" y="48.04" width="6.27165" height="15.3573" filterUnits="userSpaceOnUse" color-interpolation-filters="sRGB">
<feFlood flood-opacity="0" result="BackgroundImageFix"/>
<feColorMatrix in="SourceAlpha" type="matrix" values="0 0 0 0 0 0 0 0 0 0 0 0 0 0 0 0 0 0 127 0" result="hardAlpha"/>
<feOffset dx="0.677409" dy="1.35482"/>
<feComposite in2="hardAlpha" operator="out"/>
<feColorMatrix type="matrix" values="0 0 0 0 0 0 0 0 0 0 0 0 0 0 0 0 0 0 0.25 0"/>
<feBlend mode="normal" in2="BackgroundImageFix" result="effect1_dropShadow_275_21914"/>
<feBlend mode="normal" in="SourceGraphic" in2="effect1_dropShadow_275_21914" result="shape"/>
</filter>
<filter id="filter4_d_275_21914" x="32.3867" y="25.4741" width="26.5535" height="26.8927" filterUnits="userSpaceOnUse" color-interpolation-filters="sRGB">
<feFlood flood-opacity="0" result="BackgroundImageFix"/>
<feColorMatrix in="SourceAlpha" type="matrix" values="0 0 0 0 0 0 0 0 0 0 0 0 0 0 0 0 0 0 127 0" result="hardAlpha"/>
<feOffset dx="1.35482" dy="1.69352"/>
<feComposite in2="hardAlpha" operator="out"/>
<feColorMatrix type="matrix" values="0 0 0 0 0 0 0 0 0 0 0 0 0 0 0 0 0 0 0.25 0"/>
<feBlend mode="normal" in2="BackgroundImageFix" result="effect1_dropShadow_275_21914"/>
<feBlend mode="normal" in="SourceGraphic" in2="effect1_dropShadow_275_21914" result="shape"/>
</filter>
<linearGradient id="paint0_linear_275_21914" x1="6.15723" y1="0.027832" x2="84.6671" y2="79.2647" gradientUnits="userSpaceOnUse">
<stop stop-color="#6B4FDE"/>
<stop offset="1" stop-color="#4A2CC0"/>
</linearGradient>
</defs>
</svg>
