<svg width="85" height="81" viewBox="0 0 85 81" fill="none" xmlns="http://www.w3.org/2000/svg">
<rect x="6.11816" y="0.881348" width="78.5099" height="79.2369" rx="3.7495" fill="#5A36EC"/>
<rect x="6.3022" y="1.06538" width="78.1418" height="78.8688" rx="3.56547" stroke="black" stroke-opacity="0.15" stroke-width="0.368067"/>
<path d="M0.258789 42.2327C0.258789 41.8262 0.588368 41.4966 0.994923 41.4966H6.11767V60.3009H0.994923C0.588367 60.3009 0.258789 59.9713 0.258789 59.5648V42.2327Z" fill="#4D2EC9"/>
<path d="M0.994923 41.6806H5.93364V60.1169H0.994923C0.690006 60.1169 0.442823 59.8697 0.442823 59.5648V42.2327C0.442823 41.9278 0.690006 41.6806 0.994923 41.6806Z" stroke="black" stroke-opacity="0.15" stroke-width="0.368067"/>
<path d="M0.258789 21.4344C0.258789 21.0278 0.588368 20.6982 0.994923 20.6982H6.11767V39.5026H0.994923C0.588367 39.5026 0.258789 39.173 0.258789 38.7664V21.4344Z" fill="#4D2EC9"/>
<path d="M0.994923 20.8823H5.93364V39.3185H0.994923C0.690006 39.3185 0.442823 39.0713 0.442823 38.7664V21.4344C0.442823 21.1295 0.690006 20.8823 0.994923 20.8823Z" stroke="black" stroke-opacity="0.15" stroke-width="0.368067"/>
<g filter="url(#filter0_d_284_23638)">
<rect x="55.2695" y="34.6245" width="14.6676" height="1.01611" rx="0.338704" transform="rotate(-19.1825 55.2695 34.6245)" fill="#CCC2F3"/>
</g>
<g filter="url(#filter1_d_284_23638)">
<rect x="20.2129" y="45.6504" width="14.6676" height="1.01611" rx="0.338704" transform="rotate(-19.1825 20.2129 45.6504)" fill="#CCC2F3"/>
</g>
<g filter="url(#filter2_d_284_23638)">
<rect x="37.9639" y="14.7305" width="14.6676" height="1.01611" rx="0.338704" transform="rotate(70.8175 37.9639 14.7305)" fill="#CCC2F3"/>
</g>
<g filter="url(#filter3_d_284_23638)">
<rect x="50.5391" y="48.8013" width="14.6676" height="1.01611" rx="0.338704" transform="rotate(70.8175 50.5391 48.8013)" fill="#CCC2F3"/>
</g>
<g filter="url(#filter4_d_284_23638)">
<circle cx="44.9471" cy="38.9272" r="12.5966" transform="rotate(25.8175 44.9471 38.9272)" fill="#5134C6"/>
<circle cx="44.9471" cy="38.9272" r="11.2417" transform="rotate(25.8175 44.9471 38.9272)" stroke="#CCC2F3" stroke-width="2.70964"/>
</g>
<defs>
<filter id="filter0_d_284_23638" x="55.3623" y="29.8975" width="14.6794" height="6.94906" filterUnits="userSpaceOnUse" color-interpolation-filters="sRGB">
<feFlood flood-opacity="0" result="BackgroundImageFix"/>
<feColorMatrix in="SourceAlpha" type="matrix" values="0 0 0 0 0 0 0 0 0 0 0 0 0 0 0 0 0 0 127 0" result="hardAlpha"/>
<feOffset dx="0.677409" dy="1.35482"/>
<feComposite in2="hardAlpha" operator="out"/>
<feColorMatrix type="matrix" values="0 0 0 0 0 0 0 0 0 0 0 0 0 0 0 0 0 0 0.25 0"/>
<feBlend mode="normal" in2="BackgroundImageFix" result="effect1_dropShadow_284_23638"/>
<feBlend mode="normal" in="SourceGraphic" in2="effect1_dropShadow_284_23638" result="shape"/>
</filter>
<filter id="filter1_d_284_23638" x="20.3057" y="40.9233" width="14.6794" height="6.94906" filterUnits="userSpaceOnUse" color-interpolation-filters="sRGB">
<feFlood flood-opacity="0" result="BackgroundImageFix"/>
<feColorMatrix in="SourceAlpha" type="matrix" values="0 0 0 0 0 0 0 0 0 0 0 0 0 0 0 0 0 0 127 0" result="hardAlpha"/>
<feOffset dx="0.677409" dy="1.35482"/>
<feComposite in2="hardAlpha" operator="out"/>
<feColorMatrix type="matrix" values="0 0 0 0 0 0 0 0 0 0 0 0 0 0 0 0 0 0 0.25 0"/>
<feBlend mode="normal" in2="BackgroundImageFix" result="effect1_dropShadow_284_23638"/>
<feBlend mode="normal" in="SourceGraphic" in2="effect1_dropShadow_284_23638" result="shape"/>
</filter>
<filter id="filter2_d_284_23638" x="37.0967" y="14.8228" width="6.27214" height="15.3573" filterUnits="userSpaceOnUse" color-interpolation-filters="sRGB">
<feFlood flood-opacity="0" result="BackgroundImageFix"/>
<feColorMatrix in="SourceAlpha" type="matrix" values="0 0 0 0 0 0 0 0 0 0 0 0 0 0 0 0 0 0 127 0" result="hardAlpha"/>
<feOffset dx="0.677409" dy="1.35482"/>
<feComposite in2="hardAlpha" operator="out"/>
<feColorMatrix type="matrix" values="0 0 0 0 0 0 0 0 0 0 0 0 0 0 0 0 0 0 0.25 0"/>
<feBlend mode="normal" in2="BackgroundImageFix" result="effect1_dropShadow_284_23638"/>
<feBlend mode="normal" in="SourceGraphic" in2="effect1_dropShadow_284_23638" result="shape"/>
</filter>
<filter id="filter3_d_284_23638" x="49.6719" y="48.8936" width="6.27214" height="15.3573" filterUnits="userSpaceOnUse" color-interpolation-filters="sRGB">
<feFlood flood-opacity="0" result="BackgroundImageFix"/>
<feColorMatrix in="SourceAlpha" type="matrix" values="0 0 0 0 0 0 0 0 0 0 0 0 0 0 0 0 0 0 127 0" result="hardAlpha"/>
<feOffset dx="0.677409" dy="1.35482"/>
<feComposite in2="hardAlpha" operator="out"/>
<feColorMatrix type="matrix" values="0 0 0 0 0 0 0 0 0 0 0 0 0 0 0 0 0 0 0.25 0"/>
<feBlend mode="normal" in2="BackgroundImageFix" result="effect1_dropShadow_284_23638"/>
<feBlend mode="normal" in="SourceGraphic" in2="effect1_dropShadow_284_23638" result="shape"/>
</filter>
<filter id="filter4_d_284_23638" x="32.3477" y="26.3276" width="26.554" height="26.8927" filterUnits="userSpaceOnUse" color-interpolation-filters="sRGB">
<feFlood flood-opacity="0" result="BackgroundImageFix"/>
<feColorMatrix in="SourceAlpha" type="matrix" values="0 0 0 0 0 0 0 0 0 0 0 0 0 0 0 0 0 0 127 0" result="hardAlpha"/>
<feOffset dx="1.35482" dy="1.69352"/>
<feComposite in2="hardAlpha" operator="out"/>
<feColorMatrix type="matrix" values="0 0 0 0 0 0 0 0 0 0 0 0 0 0 0 0 0 0 0.25 0"/>
<feBlend mode="normal" in2="BackgroundImageFix" result="effect1_dropShadow_284_23638"/>
<feBlend mode="normal" in="SourceGraphic" in2="effect1_dropShadow_284_23638" result="shape"/>
</filter>
</defs>
</svg>
