<svg width="1592" height="568" viewBox="0 0 1592 568" fill="none" xmlns="http://www.w3.org/2000/svg">
<path d="M364.182 57.9248H455C464.604 57.9248 472.389 65.71 472.389 75.3136V216.238" stroke="#CCCCC2"/>
<path d="M1086.65 294.627V451.683C1086.65 458.31 1092.02 463.683 1098.65 463.683H1227.65" stroke="#CCCCC2"/>
<rect x="1249.19" y="367.815" width="342.457" height="199.736" rx="8.6944" fill="#ECECE5"/>
<path d="M1274.66 392.377C1274.61 391.881 1274.38 391.495 1273.99 391.218C1273.6 390.942 1273.09 390.804 1272.47 390.804C1272.03 390.804 1271.65 390.87 1271.34 391.002C1271.02 391.135 1270.78 391.315 1270.62 391.542C1270.45 391.769 1270.36 392.029 1270.36 392.321C1270.36 392.563 1270.41 392.773 1270.52 392.951C1270.64 393.129 1270.79 393.281 1270.98 393.406C1271.18 393.527 1271.39 393.629 1271.63 393.713C1271.86 393.796 1272.1 393.866 1272.34 393.923L1273.43 394.196C1273.87 394.298 1274.29 394.436 1274.7 394.61C1275.1 394.785 1275.47 395.004 1275.79 395.269C1276.12 395.535 1276.38 395.855 1276.56 396.23C1276.75 396.605 1276.85 397.044 1276.85 397.548C1276.85 398.23 1276.67 398.83 1276.33 399.349C1275.98 399.864 1275.47 400.268 1274.81 400.559C1274.16 400.847 1273.37 400.991 1272.43 400.991C1271.53 400.991 1270.74 400.851 1270.08 400.571C1269.41 400.29 1268.89 399.881 1268.52 399.343C1268.15 398.805 1267.95 398.15 1267.92 397.377H1269.99C1270.02 397.783 1270.15 398.12 1270.37 398.389C1270.59 398.658 1270.87 398.859 1271.22 398.991C1271.58 399.124 1271.98 399.19 1272.42 399.19C1272.88 399.19 1273.28 399.122 1273.62 398.985C1273.97 398.845 1274.24 398.652 1274.44 398.406C1274.64 398.156 1274.74 397.864 1274.74 397.531C1274.74 397.228 1274.65 396.978 1274.47 396.781C1274.3 396.58 1274.05 396.413 1273.74 396.281C1273.43 396.144 1273.07 396.023 1272.65 395.917L1271.33 395.576C1270.37 395.33 1269.61 394.957 1269.05 394.457C1268.5 393.953 1268.22 393.285 1268.22 392.451C1268.22 391.766 1268.41 391.165 1268.78 390.65C1269.16 390.135 1269.66 389.735 1270.31 389.451C1270.95 389.163 1271.68 389.019 1272.5 389.019C1273.32 389.019 1274.05 389.163 1274.67 389.451C1275.29 389.735 1275.78 390.131 1276.14 390.639C1276.49 391.143 1276.68 391.722 1276.69 392.377H1274.66ZM1280.51 400.991C1279.96 400.991 1279.46 400.893 1279.01 400.696C1278.57 400.495 1278.23 400.199 1277.97 399.809C1277.71 399.419 1277.59 398.938 1277.59 398.366C1277.59 397.874 1277.68 397.466 1277.86 397.144C1278.04 396.823 1278.29 396.565 1278.6 396.372C1278.92 396.179 1279.27 396.033 1279.67 395.934C1280.07 395.832 1280.48 395.758 1280.9 395.713C1281.41 395.66 1281.83 395.612 1282.14 395.571C1282.46 395.525 1282.69 395.457 1282.84 395.366C1282.99 395.271 1283.06 395.126 1283.06 394.929V394.894C1283.06 394.466 1282.93 394.135 1282.68 393.9C1282.42 393.665 1282.06 393.548 1281.58 393.548C1281.08 393.548 1280.68 393.658 1280.38 393.877C1280.09 394.097 1279.89 394.357 1279.79 394.656L1277.87 394.383C1278.02 393.853 1278.27 393.41 1278.62 393.054C1278.97 392.694 1279.4 392.425 1279.9 392.247C1280.4 392.065 1280.96 391.974 1281.57 391.974C1281.99 391.974 1282.41 392.023 1282.83 392.122C1283.24 392.22 1283.62 392.383 1283.97 392.61C1284.31 392.834 1284.59 393.139 1284.8 393.525C1285.01 393.912 1285.12 394.394 1285.12 394.974V400.815H1283.14V399.616H1283.07C1282.95 399.859 1282.77 400.086 1282.54 400.298C1282.32 400.506 1282.04 400.675 1281.7 400.804C1281.36 400.929 1280.96 400.991 1280.51 400.991ZM1281.04 399.48C1281.46 399.48 1281.81 399.398 1282.12 399.235C1282.42 399.069 1282.65 398.849 1282.82 398.576C1282.98 398.304 1283.07 398.006 1283.07 397.684V396.656C1283 396.709 1282.89 396.758 1282.74 396.804C1282.58 396.849 1282.41 396.889 1282.22 396.923C1282.03 396.957 1281.85 396.987 1281.66 397.014C1281.48 397.04 1281.32 397.063 1281.18 397.082C1280.87 397.124 1280.6 397.192 1280.35 397.287C1280.11 397.381 1279.92 397.514 1279.78 397.684C1279.64 397.851 1279.57 398.067 1279.57 398.332C1279.57 398.711 1279.71 398.997 1279.99 399.19C1280.26 399.383 1280.61 399.48 1281.04 399.48ZM1287.51 404.088C1287.23 404.088 1286.97 404.065 1286.73 404.019C1286.5 403.978 1286.31 403.929 1286.17 403.872L1286.65 402.269C1286.95 402.357 1287.21 402.398 1287.45 402.394C1287.68 402.391 1287.89 402.317 1288.07 402.173C1288.25 402.033 1288.4 401.798 1288.53 401.468L1288.7 400.997L1285.54 392.088H1287.72L1289.73 398.679H1289.82L1291.84 392.088H1294.03L1290.53 401.872C1290.37 402.334 1290.15 402.73 1289.89 403.059C1289.62 403.393 1289.29 403.646 1288.9 403.821C1288.51 403.999 1288.05 404.088 1287.51 404.088Z" fill="#2F2E2D"/>
<path d="M1556.28 395.222C1558.02 398.639 1560.82 401.429 1564.24 403.18L1566.9 400.523C1567.22 400.197 1567.71 400.088 1568.13 400.233C1569.48 400.68 1570.94 400.921 1572.44 400.921C1573.1 400.921 1573.65 401.465 1573.65 402.129V406.343C1573.65 407.008 1573.1 407.551 1572.44 407.551C1561.1 407.551 1551.91 398.361 1551.91 387.022C1551.91 386.358 1552.45 385.815 1553.12 385.815H1557.35C1558.01 385.815 1558.55 386.358 1558.55 387.022C1558.55 388.532 1558.79 389.981 1559.24 391.333C1559.37 391.756 1559.28 392.227 1558.94 392.565L1556.28 395.222Z" fill="#5A36EC"/>
<rect x="1267.19" y="425.551" width="306.457" height="124" rx="7.24533" fill="#E1E1D9"/>
<rect x="0.231934" y="0.188721" width="342.457" height="179.736" rx="8.6944" fill="#ECECE5"/>
<path d="M19.5054 35.1887V22.2771H27.903V24.2378H21.8444V27.7431H27.468V29.7038H21.8444V33.228H27.9535V35.1887H19.5054ZM31.7605 29.5147V35.1887H29.4783V25.505H31.6597V27.1505H31.7731C31.9959 26.6083 32.351 26.1775 32.8386 25.858C33.3303 25.5386 33.9377 25.3789 34.6606 25.3789C35.3289 25.3789 35.911 25.5218 36.4069 25.8076C36.9071 26.0934 37.2938 26.5074 37.567 27.0496C37.8444 27.5918 37.981 28.2496 37.9768 29.0229V35.1887H35.6945V29.376C35.6945 28.7287 35.5264 28.2222 35.1902 27.8566C34.8581 27.4909 34.3979 27.3081 33.8095 27.3081C33.4102 27.3081 33.0551 27.3963 32.744 27.5729C32.4372 27.7452 32.1955 27.9953 32.019 28.3231C31.8467 28.6509 31.7605 29.0481 31.7605 29.5147ZM43.1803 35.3589C42.4195 35.3589 41.7386 35.1635 41.1376 34.7726C40.5366 34.3817 40.0616 33.8143 39.7128 33.0704C39.3639 32.3265 39.1895 31.4228 39.1895 30.3595C39.1895 29.2835 39.366 28.3756 39.7191 27.6359C40.0763 26.892 40.5576 26.3309 41.1628 25.9526C41.7681 25.5701 42.4426 25.3789 43.1866 25.3789C43.754 25.3789 44.2205 25.4756 44.5862 25.6689C44.9518 25.858 45.2418 26.0871 45.4562 26.3561C45.6705 26.6209 45.8366 26.871 45.9542 27.1063H46.0488V22.2771H48.3373V35.1887H46.0929V33.663H45.9542C45.8366 33.8984 45.6663 34.1485 45.4436 34.4133C45.2208 34.6739 44.9266 34.8966 44.5609 35.0815C44.1953 35.2665 43.7351 35.3589 43.1803 35.3589ZM43.817 33.4865C44.3004 33.4865 44.7123 33.3562 45.0527 33.0956C45.3931 32.8308 45.6516 32.4631 45.8282 31.9923C46.0047 31.5216 46.0929 30.9731 46.0929 30.3469C46.0929 29.7206 46.0047 29.1763 45.8282 28.714C45.6558 28.2517 45.3994 27.8923 45.059 27.6359C44.7228 27.3795 44.3088 27.2513 43.817 27.2513C43.3085 27.2513 42.8839 27.3837 42.5435 27.6485C42.2031 27.9133 41.9467 28.279 41.7744 28.7455C41.602 29.212 41.5159 29.7458 41.5159 30.3469C41.5159 30.9521 41.602 31.4922 41.7744 31.9671C41.9509 32.4379 42.2094 32.8098 42.5498 33.083C42.8945 33.352 43.3169 33.4865 43.817 33.4865ZM64.9054 26.6335H62.5475C62.4803 26.2468 62.3563 25.9043 62.1756 25.6059C61.9948 25.3033 61.77 25.0469 61.501 24.8367C61.232 24.6266 60.9252 24.469 60.5805 24.3639C60.2401 24.2546 59.8723 24.2 59.4772 24.2C58.7753 24.2 58.1533 24.3765 57.6111 24.7295C57.0689 25.0784 56.6444 25.5912 56.3376 26.2678C56.0308 26.9403 55.8774 27.762 55.8774 28.7329C55.8774 29.7206 56.0308 30.5528 56.3376 31.2295C56.6486 31.902 57.0731 32.4105 57.6111 32.7552C58.1533 33.0956 58.7732 33.2658 59.4709 33.2658C59.8576 33.2658 60.2191 33.2154 60.5553 33.1145C60.8957 33.0095 61.2005 32.8561 61.4695 32.6543C61.7426 32.4526 61.9717 32.2046 62.1566 31.9104C62.3458 31.6162 62.4761 31.2799 62.5475 30.9017L64.9054 30.9143C64.8171 31.5279 64.6259 32.1037 64.3317 32.6417C64.0417 33.1797 63.6613 33.6546 63.1906 34.0665C62.7198 34.4742 62.1693 34.7936 61.5388 35.0248C60.9083 35.2518 60.2085 35.3652 59.4394 35.3652C58.3046 35.3652 57.2917 35.1026 56.4006 34.5772C55.5096 34.0518 54.8077 33.2932 54.2949 32.3013C53.7822 31.3093 53.5258 30.1199 53.5258 28.7329C53.5258 27.3417 53.7843 26.1523 54.3012 25.1646C54.8182 24.1726 55.5222 23.414 56.4132 22.8886C57.3043 22.3632 58.313 22.1006 59.4394 22.1006C60.1581 22.1006 60.8264 22.2014 61.4442 22.4032C62.0621 22.6049 62.6127 22.9012 63.096 23.2921C63.5794 23.6788 63.9765 24.1537 64.2876 24.7169C64.6028 25.2759 64.8087 25.9148 64.9054 26.6335ZM69.0229 35.3842C68.4093 35.3842 67.8566 35.2749 67.3649 35.0563C66.8773 34.8336 66.4906 34.5057 66.2048 34.0728C65.9232 33.6399 65.7824 33.1061 65.7824 32.4715C65.7824 31.9251 65.8833 31.4733 66.085 31.116C66.2868 30.7588 66.5621 30.4729 66.9109 30.2586C67.2598 30.0442 67.6528 29.8824 68.0899 29.7731C68.5312 29.6597 68.9872 29.5777 69.458 29.5273C70.0254 29.4684 70.4856 29.4159 70.8386 29.3697C71.1917 29.3192 71.4481 29.2436 71.6078 29.1427C71.7717 29.0376 71.8537 28.8758 71.8537 28.6572V28.6194C71.8537 28.1445 71.7129 27.7767 71.4313 27.5161C71.1497 27.2555 70.7441 27.1253 70.2145 27.1253C69.6555 27.1253 69.2121 27.2471 68.8842 27.4909C68.5606 27.7347 68.3421 28.0226 68.2286 28.3546L66.0977 28.052C66.2658 27.4636 66.5432 26.9718 66.9298 26.5768C67.3165 26.1775 67.7894 25.8791 68.3484 25.6815C68.9074 25.4798 69.5252 25.3789 70.2019 25.3789C70.6684 25.3789 71.1329 25.4335 71.5952 25.5428C72.0575 25.6521 72.4799 25.8328 72.8624 26.085C73.2449 26.333 73.5517 26.6713 73.7828 27.1C74.0182 27.5287 74.1359 28.0646 74.1359 28.7077V35.1887H71.9419V33.8585H71.8663C71.7276 34.1275 71.5321 34.3796 71.28 34.615C71.032 34.8462 70.7189 35.0332 70.3406 35.1761C69.9665 35.3148 69.5273 35.3842 69.0229 35.3842ZM69.6156 33.7072C70.0737 33.7072 70.4709 33.6168 70.8071 33.4361C71.1434 33.2511 71.4018 33.0074 71.5826 32.7047C71.7675 32.4021 71.86 32.0722 71.86 31.7149V30.5738C71.7885 30.6327 71.6666 30.6873 71.4943 30.7377C71.3262 30.7882 71.1371 30.8323 70.9269 30.8701C70.7168 30.908 70.5087 30.9416 70.3028 30.971C70.0968 31.0004 69.9182 31.0256 69.7669 31.0467C69.4264 31.0929 69.1217 31.1685 68.8527 31.2736C68.5837 31.3787 68.3715 31.5258 68.216 31.7149C68.0605 31.8999 67.9827 32.1394 67.9827 32.4337C67.9827 32.854 68.1361 33.1713 68.4429 33.3856C68.7497 33.6 69.1406 33.7072 69.6156 33.7072ZM78.0028 22.2771V35.1887H75.7206V22.2771H78.0028ZM81.9218 22.2771V35.1887H79.6395V22.2771H81.9218Z" fill="#2F2E2D"/>
<path d="M307.324 27.5956C309.063 31.013 311.865 33.8024 315.282 35.5534L317.939 32.8967C318.265 32.5707 318.748 32.462 319.171 32.6069C320.523 33.0537 321.984 33.2952 323.482 33.2952C324.146 33.2952 324.689 33.8386 324.689 34.5028V38.7172C324.689 39.3813 324.146 39.9247 323.482 39.9247C312.143 39.9247 302.953 30.7352 302.953 19.3963C302.953 18.7321 303.497 18.1887 304.161 18.1887H308.387C309.051 18.1887 309.595 18.7321 309.595 19.3963C309.595 20.9057 309.836 22.3548 310.283 23.7072C310.416 24.1299 310.319 24.6008 309.981 24.939L307.324 27.5956Z" fill="#5A36EC"/>
<rect x="18.2319" y="57.9248" width="306.457" height="104" rx="7.24533" fill="#E1E1D9"/>
<rect x="445.867" y="238.932" width="54.7776" height="38.3888" rx="4.3472" fill="#5A36EC"/>
<path d="M471.763 264.627H469.88L466.185 256.799L466.177 264.627H464.279V253.252H466.185L469.857 261.049L469.873 253.252H471.763V264.627ZM482.06 259.697C482.06 260.155 482.018 260.598 481.935 261.025C481.857 261.452 481.742 261.856 481.591 262.236C481.43 262.616 481.229 262.968 480.989 263.291C480.75 263.608 480.474 263.882 480.161 264.111C479.859 264.319 479.523 264.483 479.153 264.603C478.789 264.723 478.388 264.783 477.95 264.783C477.497 264.783 477.081 264.72 476.7 264.595C476.325 264.465 475.989 264.288 475.693 264.064C475.39 263.835 475.125 263.559 474.896 263.236C474.672 262.913 474.484 262.559 474.333 262.174C474.187 261.804 474.078 261.411 474.005 260.994C473.932 260.572 473.896 260.14 473.896 259.697V258.197C473.896 257.733 473.935 257.286 474.013 256.853C474.091 256.421 474.208 256.012 474.364 255.627C474.515 255.257 474.7 254.918 474.919 254.611C475.143 254.299 475.406 254.028 475.708 253.799C476 253.575 476.331 253.403 476.7 253.283C477.075 253.158 477.487 253.095 477.935 253.095C478.388 253.095 478.805 253.158 479.185 253.283C479.565 253.408 479.906 253.582 480.208 253.806C480.51 254.03 480.773 254.293 480.997 254.595C481.221 254.898 481.409 255.228 481.56 255.588C481.726 255.973 481.851 256.387 481.935 256.83C482.018 257.267 482.06 257.723 482.06 258.197V259.697ZM480.169 258.181C480.164 257.895 480.146 257.614 480.114 257.338C480.088 257.062 480.042 256.799 479.974 256.549C479.896 256.262 479.792 256.002 479.661 255.767C479.536 255.528 479.383 255.325 479.2 255.158C479.039 255.012 478.854 254.898 478.646 254.814C478.437 254.731 478.2 254.689 477.935 254.689C477.68 254.689 477.45 254.731 477.247 254.814C477.044 254.892 476.867 255.002 476.716 255.142C476.534 255.314 476.38 255.52 476.255 255.76C476.13 255.994 476.034 256.257 475.966 256.549C475.903 256.799 475.857 257.064 475.825 257.345C475.799 257.622 475.786 257.9 475.786 258.181V259.697C475.786 259.973 475.799 260.247 475.825 260.517C475.851 260.788 475.896 261.049 475.958 261.299C476.026 261.58 476.117 261.843 476.232 262.088C476.351 262.327 476.495 262.53 476.661 262.697C476.823 262.853 477.008 262.978 477.216 263.072C477.43 263.161 477.674 263.205 477.95 263.205C478.216 263.205 478.456 263.161 478.669 263.072C478.888 262.983 479.075 262.864 479.232 262.713C479.414 262.541 479.565 262.338 479.685 262.103C479.81 261.864 479.909 261.601 479.982 261.314C480.044 261.064 480.088 260.804 480.114 260.533C480.146 260.257 480.164 259.978 480.169 259.697V258.181Z" fill="white"/>
<path d="M527.645 258.127L594.056 258.127" stroke="#CCCCC2"/>
<rect x="621.056" y="179.238" width="311.549" height="157.778" rx="5" fill="#ECECE5"/>
<path d="M651.485 205.979C652.069 206.316 652.069 207.16 651.485 207.497L640.37 213.914C639.786 214.251 639.056 213.829 639.056 213.155V200.321C639.056 199.646 639.786 199.225 640.37 199.562L651.485 205.979Z" fill="#454342"/>
<path d="M672.424 203.658C672.363 203.121 672.113 202.704 671.674 202.408C671.234 202.109 670.681 201.96 670.015 201.96C669.537 201.96 669.125 202.035 668.776 202.187C668.428 202.335 668.157 202.539 667.964 202.801C667.774 203.058 667.68 203.352 667.68 203.681C667.68 203.958 667.744 204.196 667.873 204.397C668.005 204.598 668.178 204.766 668.39 204.903C668.606 205.035 668.837 205.147 669.083 205.238C669.329 205.325 669.566 205.397 669.793 205.454L670.93 205.749C671.301 205.84 671.681 205.963 672.072 206.119C672.462 206.274 672.823 206.479 673.157 206.732C673.49 206.986 673.759 207.301 673.964 207.676C674.172 208.051 674.276 208.499 674.276 209.022C674.276 209.681 674.106 210.266 673.765 210.778C673.428 211.289 672.937 211.693 672.293 211.988C671.653 212.283 670.878 212.431 669.969 212.431C669.098 212.431 668.344 212.293 667.708 212.016C667.072 211.74 666.573 211.348 666.214 210.84C665.854 210.329 665.655 209.723 665.617 209.022H667.378C667.412 209.443 667.549 209.793 667.787 210.073C668.03 210.35 668.339 210.556 668.714 210.693C669.092 210.825 669.507 210.891 669.958 210.891C670.454 210.891 670.895 210.814 671.282 210.658C671.672 210.499 671.979 210.28 672.202 209.999C672.426 209.715 672.537 209.384 672.537 209.005C672.537 208.66 672.439 208.378 672.242 208.158C672.049 207.939 671.786 207.757 671.452 207.613C671.123 207.469 670.75 207.342 670.333 207.232L668.958 206.857C668.026 206.604 667.287 206.23 666.742 205.738C666.2 205.246 665.93 204.594 665.93 203.783C665.93 203.113 666.111 202.528 666.475 202.028C666.839 201.528 667.331 201.14 667.952 200.863C668.573 200.583 669.274 200.443 670.055 200.443C670.842 200.443 671.537 200.581 672.14 200.857C672.746 201.134 673.223 201.515 673.572 201.999C673.92 202.48 674.102 203.033 674.117 203.658H672.424ZM679.672 203.511V204.874H674.905V203.511H679.672ZM676.183 201.42H677.882V209.676C677.882 210.005 677.931 210.253 678.03 210.42C678.128 210.583 678.255 210.694 678.41 210.755C678.569 210.812 678.742 210.84 678.927 210.84C679.064 210.84 679.183 210.831 679.285 210.812C679.388 210.793 679.467 210.778 679.524 210.766L679.831 212.17C679.732 212.208 679.592 212.246 679.41 212.283C679.228 212.325 679.001 212.348 678.728 212.352C678.281 212.359 677.865 212.28 677.478 212.113C677.092 211.946 676.78 211.689 676.541 211.34C676.302 210.992 676.183 210.554 676.183 210.028V201.42ZM683.451 212.431C682.898 212.431 682.398 212.329 681.951 212.124C681.504 211.916 681.15 211.615 680.888 211.221C680.631 210.827 680.502 210.344 680.502 209.772C680.502 209.28 680.596 208.874 680.786 208.556C680.975 208.238 681.231 207.986 681.553 207.801C681.875 207.615 682.235 207.475 682.632 207.38C683.03 207.285 683.435 207.213 683.848 207.164C684.371 207.104 684.795 207.054 685.121 207.016C685.447 206.975 685.684 206.908 685.831 206.818C685.979 206.727 686.053 206.579 686.053 206.374V206.335C686.053 205.838 685.913 205.454 685.632 205.181C685.356 204.908 684.943 204.772 684.394 204.772C683.822 204.772 683.371 204.899 683.042 205.153C682.716 205.403 682.49 205.681 682.365 205.988L680.769 205.624C680.958 205.094 681.235 204.666 681.598 204.34C681.966 204.011 682.388 203.772 682.865 203.624C683.343 203.473 683.845 203.397 684.371 203.397C684.72 203.397 685.089 203.439 685.479 203.522C685.873 203.602 686.24 203.749 686.581 203.965C686.926 204.181 687.208 204.49 687.428 204.891C687.648 205.289 687.757 205.806 687.757 206.443V212.238H686.098V211.045H686.03C685.92 211.265 685.756 211.48 685.536 211.693C685.316 211.905 685.034 212.081 684.689 212.221C684.345 212.361 683.932 212.431 683.451 212.431ZM683.82 211.068C684.29 211.068 684.691 210.975 685.025 210.789C685.362 210.604 685.617 210.361 685.792 210.062C685.97 209.759 686.059 209.435 686.059 209.09V207.965C685.998 208.026 685.881 208.083 685.706 208.136C685.536 208.185 685.341 208.229 685.121 208.266C684.901 208.301 684.687 208.333 684.479 208.363C684.271 208.39 684.096 208.412 683.956 208.431C683.627 208.473 683.326 208.543 683.053 208.641C682.784 208.74 682.568 208.882 682.405 209.068C682.246 209.249 682.167 209.492 682.167 209.795C682.167 210.215 682.322 210.533 682.632 210.749C682.943 210.962 683.339 211.068 683.82 211.068ZM689.38 212.238V203.511H691.022V204.897H691.113C691.272 204.427 691.553 204.058 691.954 203.789C692.359 203.516 692.818 203.38 693.329 203.38C693.435 203.38 693.56 203.384 693.704 203.391C693.852 203.399 693.967 203.408 694.051 203.42V205.045C693.983 205.026 693.861 205.005 693.687 204.982C693.513 204.956 693.339 204.943 693.164 204.943C692.763 204.943 692.405 205.028 692.09 205.198C691.78 205.365 691.534 205.598 691.352 205.897C691.17 206.193 691.079 206.53 691.079 206.908V212.238H689.38ZM699.47 203.511V204.874H694.703V203.511H699.47ZM695.982 201.42H697.681V209.676C697.681 210.005 697.73 210.253 697.828 210.42C697.927 210.583 698.054 210.694 698.209 210.755C698.368 210.812 698.54 210.84 698.726 210.84C698.862 210.84 698.982 210.831 699.084 210.812C699.186 210.793 699.266 210.778 699.323 210.766L699.629 212.17C699.531 212.208 699.391 212.246 699.209 212.283C699.027 212.325 698.8 212.348 698.527 212.352C698.08 212.359 697.664 212.28 697.277 212.113C696.891 211.946 696.578 211.689 696.34 211.34C696.101 210.992 695.982 210.554 695.982 210.028V201.42Z" fill="#454342"/>
<rect x="639.056" y="234.238" width="275.549" height="84.7776" rx="3" fill="#E1E1D9"/>
<path d="M657.853 269.627V257.991H659.263V263.172H665.467V257.991H666.876V269.627H665.467V264.422H659.263V269.627H657.853ZM672.534 269.809C671.694 269.809 670.968 269.623 670.358 269.252C669.752 268.877 669.284 268.354 668.955 267.684C668.629 267.01 668.466 266.225 668.466 265.331C668.466 264.438 668.629 263.65 668.955 262.968C669.284 262.282 669.743 261.748 670.33 261.366C670.921 260.979 671.61 260.786 672.398 260.786C672.853 260.786 673.301 260.862 673.745 261.013C674.188 261.165 674.591 261.411 674.955 261.752C675.319 262.089 675.608 262.536 675.824 263.093C676.04 263.65 676.148 264.335 676.148 265.15V265.718H669.421V264.559H674.784C674.784 264.066 674.686 263.627 674.489 263.241C674.296 262.854 674.019 262.549 673.659 262.326C673.303 262.102 672.883 261.991 672.398 261.991C671.864 261.991 671.402 262.123 671.012 262.388C670.625 262.65 670.328 262.991 670.12 263.411C669.911 263.831 669.807 264.282 669.807 264.763V265.536C669.807 266.195 669.921 266.754 670.148 267.212C670.379 267.667 670.699 268.013 671.108 268.252C671.517 268.487 671.993 268.604 672.534 268.604C672.887 268.604 673.205 268.555 673.489 268.456C673.777 268.354 674.025 268.203 674.233 268.002C674.442 267.797 674.603 267.544 674.716 267.241L676.012 267.604C675.875 268.044 675.646 268.43 675.324 268.763C675.002 269.093 674.605 269.35 674.131 269.536C673.658 269.718 673.125 269.809 672.534 269.809ZM678.146 272.9C677.919 272.9 677.716 272.881 677.538 272.843C677.36 272.809 677.237 272.775 677.169 272.741L677.51 271.559C677.835 271.642 678.123 271.672 678.373 271.65C678.623 271.627 678.845 271.515 679.038 271.314C679.235 271.117 679.415 270.797 679.578 270.354L679.828 269.672L676.6 260.9H678.055L680.464 267.854H680.555L682.964 260.9H684.419L680.714 270.9C680.547 271.35 680.341 271.724 680.095 272.019C679.849 272.318 679.563 272.54 679.237 272.684C678.915 272.828 678.551 272.9 678.146 272.9ZM693.204 260.9V262.036H688.681V260.9H693.204ZM689.999 258.809H691.34V267.127C691.34 267.506 691.395 267.79 691.505 267.979C691.619 268.165 691.763 268.29 691.937 268.354C692.115 268.415 692.302 268.445 692.499 268.445C692.647 268.445 692.768 268.438 692.863 268.422C692.958 268.403 693.033 268.388 693.09 268.377L693.363 269.581C693.272 269.616 693.145 269.65 692.982 269.684C692.819 269.722 692.613 269.741 692.363 269.741C691.984 269.741 691.613 269.659 691.249 269.496C690.89 269.333 690.59 269.085 690.352 268.752C690.117 268.419 689.999 267.998 689.999 267.491V258.809ZM696.109 264.377V269.627H694.768V257.991H696.109V262.263H696.223C696.428 261.813 696.734 261.455 697.143 261.189C697.556 260.921 698.106 260.786 698.791 260.786C699.386 260.786 699.907 260.905 700.354 261.144C700.801 261.379 701.147 261.741 701.393 262.229C701.643 262.714 701.768 263.331 701.768 264.081V269.627H700.428V264.172C700.428 263.479 700.248 262.943 699.888 262.564C699.532 262.182 699.037 261.991 698.405 261.991C697.965 261.991 697.572 262.083 697.223 262.269C696.878 262.455 696.606 262.725 696.405 263.081C696.208 263.438 696.109 263.869 696.109 264.377ZM707.241 269.809C706.4 269.809 705.674 269.623 705.065 269.252C704.459 268.877 703.991 268.354 703.661 267.684C703.335 267.01 703.173 266.225 703.173 265.331C703.173 264.438 703.335 263.65 703.661 262.968C703.991 262.282 704.449 261.748 705.036 261.366C705.627 260.979 706.316 260.786 707.104 260.786C707.559 260.786 708.008 260.862 708.451 261.013C708.894 261.165 709.298 261.411 709.661 261.752C710.025 262.089 710.315 262.536 710.53 263.093C710.746 263.65 710.854 264.335 710.854 265.15V265.718H704.127V264.559H709.491C709.491 264.066 709.392 263.627 709.195 263.241C709.002 262.854 708.726 262.549 708.366 262.326C708.01 262.102 707.589 261.991 707.104 261.991C706.57 261.991 706.108 262.123 705.718 262.388C705.332 262.65 705.034 262.991 704.826 263.411C704.618 263.831 704.513 264.282 704.513 264.763V265.536C704.513 266.195 704.627 266.754 704.854 267.212C705.085 267.667 705.405 268.013 705.815 268.252C706.224 268.487 706.699 268.604 707.241 268.604C707.593 268.604 707.911 268.555 708.195 268.456C708.483 268.354 708.731 268.203 708.94 268.002C709.148 267.797 709.309 267.544 709.423 267.241L710.718 267.604C710.582 268.044 710.352 268.43 710.03 268.763C709.709 269.093 709.311 269.35 708.837 269.536C708.364 269.718 707.832 269.809 707.241 269.809ZM712.254 269.627V260.9H713.55V262.218H713.64C713.8 261.786 714.087 261.436 714.504 261.167C714.921 260.898 715.39 260.763 715.913 260.763C716.012 260.763 716.135 260.765 716.283 260.769C716.43 260.773 716.542 260.778 716.618 260.786V262.15C716.572 262.138 716.468 262.121 716.305 262.099C716.146 262.072 715.978 262.059 715.8 262.059C715.375 262.059 714.997 262.148 714.663 262.326C714.334 262.5 714.072 262.742 713.879 263.053C713.69 263.36 713.595 263.71 713.595 264.104V269.627H712.254ZM720.961 269.809C720.12 269.809 719.394 269.623 718.785 269.252C718.179 268.877 717.711 268.354 717.381 267.684C717.055 267.01 716.893 266.225 716.893 265.331C716.893 264.438 717.055 263.65 717.381 262.968C717.711 262.282 718.169 261.748 718.756 261.366C719.347 260.979 720.036 260.786 720.824 260.786C721.279 260.786 721.728 260.862 722.171 261.013C722.614 261.165 723.018 261.411 723.381 261.752C723.745 262.089 724.035 262.536 724.25 263.093C724.466 263.65 724.574 264.335 724.574 265.15V265.718H717.847V264.559H723.211C723.211 264.066 723.112 263.627 722.915 263.241C722.722 262.854 722.446 262.549 722.086 262.326C721.73 262.102 721.309 261.991 720.824 261.991C720.29 261.991 719.828 262.123 719.438 262.388C719.052 262.65 718.754 262.991 718.546 263.411C718.338 263.831 718.233 264.282 718.233 264.763V265.536C718.233 266.195 718.347 266.754 718.574 267.212C718.805 267.667 719.125 268.013 719.535 268.252C719.944 268.487 720.419 268.604 720.961 268.604C721.313 268.604 721.631 268.555 721.915 268.456C722.203 268.354 722.451 268.203 722.66 268.002C722.868 267.797 723.029 267.544 723.143 267.241L724.438 267.604C724.302 268.044 724.072 268.43 723.75 268.763C723.429 269.093 723.031 269.35 722.557 269.536C722.084 269.718 721.552 269.809 720.961 269.809ZM727.974 268.036L727.883 268.65C727.819 269.081 727.72 269.544 727.588 270.036C727.459 270.528 727.324 270.992 727.184 271.428C727.044 271.864 726.929 272.21 726.838 272.468H725.815C725.864 272.225 725.929 271.905 726.008 271.508C726.088 271.11 726.167 270.665 726.247 270.172C726.33 269.684 726.398 269.184 726.451 268.672L726.52 268.036H727.974ZM735.656 269.627L732.997 260.9H734.406L736.292 267.581H736.383L738.247 260.9H739.678L741.519 267.559H741.61L743.497 260.9H744.906L742.247 269.627H740.928L739.019 262.922H738.883L736.974 269.627H735.656ZM749.287 269.809C748.499 269.809 747.808 269.621 747.213 269.246C746.622 268.871 746.16 268.347 745.827 267.672C745.497 266.998 745.333 266.21 745.333 265.309C745.333 264.4 745.497 263.606 745.827 262.928C746.16 262.25 746.622 261.724 747.213 261.349C747.808 260.974 748.499 260.786 749.287 260.786C750.075 260.786 750.764 260.974 751.355 261.349C751.95 261.724 752.412 262.25 752.742 262.928C753.075 263.606 753.242 264.4 753.242 265.309C753.242 266.21 753.075 266.998 752.742 267.672C752.412 268.347 751.95 268.871 751.355 269.246C750.764 269.621 750.075 269.809 749.287 269.809ZM749.287 268.604C749.886 268.604 750.378 268.451 750.764 268.144C751.151 267.837 751.437 267.434 751.622 266.934C751.808 266.434 751.901 265.892 751.901 265.309C751.901 264.725 751.808 264.182 751.622 263.678C751.437 263.174 751.151 262.767 750.764 262.456C750.378 262.146 749.886 261.991 749.287 261.991C748.689 261.991 748.196 262.146 747.81 262.456C747.423 262.767 747.137 263.174 746.952 263.678C746.766 264.182 746.673 264.725 746.673 265.309C746.673 265.892 746.766 266.434 746.952 266.934C747.137 267.434 747.423 267.837 747.81 268.144C748.196 268.451 748.689 268.604 749.287 268.604ZM760.148 266.059V260.9H761.489V269.627H760.148V268.15H760.058C759.853 268.593 759.535 268.97 759.103 269.28C758.671 269.587 758.126 269.741 757.467 269.741C756.921 269.741 756.436 269.621 756.012 269.383C755.588 269.14 755.255 268.777 755.012 268.292C754.77 267.803 754.648 267.188 754.648 266.445V260.9H755.989V266.354C755.989 266.991 756.167 267.498 756.523 267.877C756.883 268.256 757.342 268.445 757.898 268.445C758.232 268.445 758.571 268.36 758.916 268.189C759.264 268.019 759.556 267.758 759.791 267.405C760.029 267.053 760.148 266.604 760.148 266.059ZM764.646 257.991V269.627H763.305V257.991H764.646ZM769.758 269.809C769.03 269.809 768.388 269.625 767.832 269.258C767.275 268.886 766.839 268.364 766.525 267.689C766.21 267.011 766.053 266.21 766.053 265.286C766.053 264.369 766.21 263.574 766.525 262.9C766.839 262.225 767.277 261.705 767.837 261.337C768.398 260.97 769.046 260.786 769.78 260.786C770.349 260.786 770.797 260.881 771.127 261.07C771.46 261.256 771.714 261.468 771.888 261.706C772.066 261.941 772.205 262.135 772.303 262.286H772.417V257.991H773.758V269.627H772.462V268.286H772.303C772.205 268.445 772.065 268.646 771.883 268.888C771.701 269.127 771.441 269.341 771.104 269.53C770.767 269.716 770.318 269.809 769.758 269.809ZM769.94 268.604C770.477 268.604 770.932 268.464 771.303 268.184C771.674 267.9 771.957 267.508 772.15 267.008C772.343 266.504 772.44 265.922 772.44 265.263C772.44 264.612 772.345 264.042 772.155 263.553C771.966 263.061 771.686 262.678 771.315 262.405C770.943 262.129 770.485 261.991 769.94 261.991C769.371 261.991 768.898 262.136 768.519 262.428C768.144 262.716 767.862 263.108 767.672 263.604C767.487 264.097 767.394 264.65 767.394 265.263C767.394 265.885 767.489 266.449 767.678 266.956C767.871 267.46 768.155 267.862 768.53 268.161C768.909 268.456 769.379 268.604 769.94 268.604ZM780.483 272.9C780.256 272.9 780.053 272.881 779.875 272.843C779.697 272.809 779.574 272.775 779.506 272.741L779.847 271.559C780.173 271.642 780.461 271.672 780.711 271.65C780.961 271.627 781.182 271.515 781.375 271.314C781.572 271.117 781.752 270.797 781.915 270.354L782.165 269.672L778.938 260.9H780.392L782.802 267.854H782.892L785.302 260.9H786.756L783.052 270.9C782.885 271.35 782.678 271.724 782.432 272.019C782.186 272.318 781.9 272.54 781.574 272.684C781.252 272.828 780.889 272.9 780.483 272.9ZM791.119 269.809C790.331 269.809 789.64 269.621 789.045 269.246C788.454 268.871 787.992 268.347 787.659 267.672C787.329 266.998 787.164 266.21 787.164 265.309C787.164 264.4 787.329 263.606 787.659 262.928C787.992 262.25 788.454 261.724 789.045 261.349C789.64 260.974 790.331 260.786 791.119 260.786C791.907 260.786 792.596 260.974 793.187 261.349C793.782 261.724 794.244 262.25 794.573 262.928C794.907 263.606 795.073 264.4 795.073 265.309C795.073 266.21 794.907 266.998 794.573 267.672C794.244 268.347 793.782 268.871 793.187 269.246C792.596 269.621 791.907 269.809 791.119 269.809ZM791.119 268.604C791.717 268.604 792.21 268.451 792.596 268.144C792.983 267.837 793.269 267.434 793.454 266.934C793.64 266.434 793.733 265.892 793.733 265.309C793.733 264.725 793.64 264.182 793.454 263.678C793.269 263.174 792.983 262.767 792.596 262.456C792.21 262.146 791.717 261.991 791.119 261.991C790.52 261.991 790.028 262.146 789.642 262.456C789.255 262.767 788.969 263.174 788.784 263.678C788.598 264.182 788.505 264.725 788.505 265.309C788.505 265.892 788.598 266.434 788.784 266.934C788.969 267.434 789.255 267.837 789.642 268.144C790.028 268.451 790.52 268.604 791.119 268.604ZM801.98 266.059V260.9H803.321V269.627H801.98V268.15H801.889C801.685 268.593 801.367 268.97 800.935 269.28C800.503 269.587 799.958 269.741 799.299 269.741C798.753 269.741 798.268 269.621 797.844 269.383C797.42 269.14 797.086 268.777 796.844 268.292C796.602 267.803 796.48 267.188 796.48 266.445V260.9H797.821V266.354C797.821 266.991 797.999 267.498 798.355 267.877C798.715 268.256 799.174 268.445 799.73 268.445C800.064 268.445 800.403 268.36 800.747 268.189C801.096 268.019 801.388 267.758 801.622 267.405C801.861 267.053 801.98 266.604 801.98 266.059ZM810.338 257.991V269.627H808.997V257.991H810.338ZM812.154 269.627V260.9H813.495V269.627H812.154ZM812.836 259.445C812.575 259.445 812.349 259.356 812.16 259.178C811.974 259 811.881 258.786 811.881 258.536C811.881 258.286 811.974 258.072 812.16 257.894C812.349 257.716 812.575 257.627 812.836 257.627C813.097 257.627 813.321 257.716 813.506 257.894C813.696 258.072 813.79 258.286 813.79 258.536C813.79 258.786 813.696 259 813.506 259.178C813.321 259.356 813.097 259.445 812.836 259.445ZM816.561 266.445L816.538 264.786H816.811L820.629 260.9H822.288L818.22 265.013H818.106L816.561 266.445ZM815.311 269.627V257.991H816.652V269.627H815.311ZM820.856 269.627L817.447 265.309L818.402 264.377L822.561 269.627H820.856ZM826.674 269.809C825.833 269.809 825.108 269.623 824.498 269.252C823.892 268.877 823.424 268.354 823.094 267.684C822.769 267.01 822.606 266.225 822.606 265.331C822.606 264.438 822.769 263.65 823.094 262.968C823.424 262.282 823.882 261.748 824.469 261.366C825.06 260.979 825.75 260.786 826.537 260.786C826.992 260.786 827.441 260.862 827.884 261.013C828.327 261.165 828.731 261.411 829.094 261.752C829.458 262.089 829.748 262.536 829.964 263.093C830.18 263.65 830.287 264.335 830.287 265.15V265.718H823.56V264.559H828.924C828.924 264.066 828.825 263.627 828.628 263.241C828.435 262.854 828.159 262.549 827.799 262.326C827.443 262.102 827.022 261.991 826.537 261.991C826.003 261.991 825.541 262.123 825.151 262.388C824.765 262.65 824.467 262.991 824.259 263.411C824.051 263.831 823.947 264.282 823.947 264.763V265.536C823.947 266.195 824.06 266.754 824.287 267.212C824.519 267.667 824.839 268.013 825.248 268.252C825.657 268.487 826.132 268.604 826.674 268.604C827.026 268.604 827.344 268.555 827.628 268.456C827.916 268.354 828.164 268.203 828.373 268.002C828.581 267.797 828.742 267.544 828.856 267.241L830.151 267.604C830.015 268.044 829.786 268.43 829.464 268.763C829.142 269.093 828.744 269.35 828.27 269.536C827.797 269.718 827.265 269.809 826.674 269.809ZM839.343 260.9V262.036H834.82V260.9H839.343ZM836.138 258.809H837.479V267.127C837.479 267.506 837.534 267.79 837.644 267.979C837.757 268.165 837.901 268.29 838.076 268.354C838.254 268.415 838.441 268.445 838.638 268.445C838.786 268.445 838.907 268.438 839.002 268.422C839.096 268.403 839.172 268.388 839.229 268.377L839.502 269.581C839.411 269.616 839.284 269.65 839.121 269.684C838.958 269.722 838.752 269.741 838.502 269.741C838.123 269.741 837.752 269.659 837.388 269.496C837.028 269.333 836.729 269.085 836.49 268.752C836.256 268.419 836.138 267.998 836.138 267.491V258.809ZM844.171 269.809C843.384 269.809 842.692 269.621 842.098 269.246C841.507 268.871 841.045 268.347 840.711 267.672C840.382 266.998 840.217 266.21 840.217 265.309C840.217 264.4 840.382 263.606 840.711 262.928C841.045 262.25 841.507 261.724 842.098 261.349C842.692 260.974 843.384 260.786 844.171 260.786C844.959 260.786 845.649 260.974 846.24 261.349C846.834 261.724 847.296 262.25 847.626 262.928C847.959 263.606 848.126 264.4 848.126 265.309C848.126 266.21 847.959 266.998 847.626 267.672C847.296 268.347 846.834 268.871 846.24 269.246C845.649 269.621 844.959 269.809 844.171 269.809ZM844.171 268.604C844.77 268.604 845.262 268.451 845.649 268.144C846.035 267.837 846.321 267.434 846.507 266.934C846.692 266.434 846.785 265.892 846.785 265.309C846.785 264.725 846.692 264.182 846.507 263.678C846.321 263.174 846.035 262.767 845.649 262.456C845.262 262.146 844.77 261.991 844.171 261.991C843.573 261.991 843.081 262.146 842.694 262.456C842.308 262.767 842.022 263.174 841.836 263.678C841.651 264.182 841.558 264.725 841.558 265.309C841.558 265.892 841.651 266.434 841.836 266.934C842.022 267.434 842.308 267.837 842.694 268.144C843.081 268.451 843.573 268.604 844.171 268.604ZM657.672 294.627V285.9H658.967V287.218H659.058C659.217 286.786 659.505 286.436 659.922 286.167C660.338 285.898 660.808 285.763 661.331 285.763C661.429 285.763 661.552 285.765 661.7 285.769C661.848 285.773 661.959 285.778 662.035 285.786V287.15C661.99 287.138 661.886 287.121 661.723 287.099C661.564 287.072 661.395 287.059 661.217 287.059C660.793 287.059 660.414 287.148 660.081 287.326C659.751 287.5 659.49 287.742 659.297 288.053C659.107 288.36 659.013 288.71 659.013 289.104V294.627H657.672ZM666.378 294.809C665.537 294.809 664.812 294.623 664.202 294.252C663.596 293.877 663.128 293.354 662.799 292.684C662.473 292.01 662.31 291.225 662.31 290.331C662.31 289.438 662.473 288.65 662.799 287.968C663.128 287.282 663.587 286.748 664.174 286.366C664.765 285.979 665.454 285.786 666.242 285.786C666.696 285.786 667.145 285.862 667.588 286.013C668.032 286.165 668.435 286.411 668.799 286.752C669.162 287.089 669.452 287.536 669.668 288.093C669.884 288.65 669.992 289.335 669.992 290.15V290.718H663.265V289.559H668.628C668.628 289.066 668.53 288.627 668.333 288.241C668.14 287.854 667.863 287.549 667.503 287.326C667.147 287.102 666.727 286.991 666.242 286.991C665.708 286.991 665.246 287.123 664.855 287.388C664.469 287.65 664.172 287.991 663.963 288.411C663.755 288.831 663.651 289.282 663.651 289.763V290.536C663.651 291.195 663.765 291.754 663.992 292.212C664.223 292.667 664.543 293.013 664.952 293.252C665.361 293.487 665.837 293.604 666.378 293.604C666.73 293.604 667.049 293.555 667.333 293.456C667.621 293.354 667.869 293.203 668.077 293.002C668.285 292.797 668.446 292.544 668.56 292.241L669.855 292.604C669.719 293.044 669.49 293.43 669.168 293.763C668.846 294.093 668.448 294.35 667.975 294.536C667.501 294.718 666.969 294.809 666.378 294.809ZM677.573 287.854L676.369 288.195C676.293 287.994 676.181 287.799 676.034 287.61C675.89 287.417 675.693 287.258 675.443 287.133C675.193 287.008 674.873 286.945 674.483 286.945C673.948 286.945 673.503 287.068 673.147 287.314C672.795 287.557 672.619 287.866 672.619 288.241C672.619 288.574 672.74 288.837 672.983 289.03C673.225 289.224 673.604 289.385 674.119 289.513L675.414 289.831C676.195 290.021 676.776 290.311 677.159 290.701C677.541 291.087 677.733 291.585 677.733 292.195C677.733 292.695 677.589 293.142 677.301 293.536C677.017 293.93 676.619 294.241 676.108 294.468C675.596 294.695 675.001 294.809 674.323 294.809C673.433 294.809 672.697 294.616 672.113 294.229C671.53 293.843 671.161 293.278 671.005 292.536L672.278 292.218C672.399 292.688 672.628 293.04 672.965 293.275C673.306 293.51 673.751 293.627 674.301 293.627C674.926 293.627 675.422 293.494 675.789 293.229C676.161 292.96 676.346 292.638 676.346 292.263C676.346 291.96 676.24 291.706 676.028 291.502C675.816 291.294 675.49 291.138 675.051 291.036L673.596 290.695C672.797 290.506 672.21 290.212 671.835 289.814C671.464 289.413 671.278 288.911 671.278 288.309C671.278 287.816 671.416 287.381 671.693 287.002C671.973 286.623 672.354 286.326 672.835 286.11C673.32 285.894 673.869 285.786 674.483 285.786C675.346 285.786 676.024 285.975 676.517 286.354C677.013 286.733 677.365 287.233 677.573 287.854ZM682.656 294.809C681.838 294.809 681.134 294.616 680.543 294.229C679.952 293.843 679.497 293.311 679.179 292.633C678.861 291.955 678.702 291.18 678.702 290.309C678.702 289.422 678.865 288.64 679.191 287.962C679.52 287.28 679.978 286.748 680.566 286.366C681.156 285.979 681.846 285.786 682.634 285.786C683.247 285.786 683.8 285.9 684.293 286.127C684.785 286.354 685.189 286.672 685.503 287.081C685.817 287.491 686.012 287.968 686.088 288.513H684.747C684.645 288.116 684.418 287.763 684.066 287.456C683.717 287.146 683.247 286.991 682.656 286.991C682.134 286.991 681.675 287.127 681.281 287.4C680.891 287.669 680.586 288.049 680.367 288.542C680.151 289.03 680.043 289.604 680.043 290.263C680.043 290.938 680.149 291.525 680.361 292.025C680.577 292.525 680.88 292.913 681.27 293.189C681.664 293.466 682.126 293.604 682.656 293.604C683.005 293.604 683.321 293.544 683.605 293.422C683.889 293.301 684.13 293.127 684.327 292.9C684.524 292.672 684.664 292.4 684.747 292.081H686.088C686.012 292.597 685.825 293.061 685.526 293.474C685.23 293.883 684.838 294.208 684.35 294.451C683.865 294.689 683.3 294.809 682.656 294.809ZM688.749 289.377V294.627H687.408V282.991H688.749V287.263H688.863C689.068 286.813 689.374 286.455 689.783 286.189C690.196 285.921 690.746 285.786 691.431 285.786C692.026 285.786 692.547 285.905 692.994 286.144C693.441 286.379 693.787 286.741 694.033 287.229C694.283 287.714 694.408 288.331 694.408 289.081V294.627H693.068V289.172C693.068 288.479 692.888 287.943 692.528 287.564C692.172 287.182 691.677 286.991 691.045 286.991C690.605 286.991 690.212 287.083 689.863 287.269C689.518 287.455 689.246 287.725 689.045 288.081C688.848 288.438 688.749 288.869 688.749 289.377ZM699.881 294.809C699.04 294.809 698.314 294.623 697.705 294.252C697.099 293.877 696.631 293.354 696.301 292.684C695.975 292.01 695.813 291.225 695.813 290.331C695.813 289.438 695.975 288.65 696.301 287.968C696.631 287.282 697.089 286.748 697.676 286.366C698.267 285.979 698.956 285.786 699.744 285.786C700.199 285.786 700.648 285.862 701.091 286.013C701.534 286.165 701.938 286.411 702.301 286.752C702.665 287.089 702.955 287.536 703.17 288.093C703.386 288.65 703.494 289.335 703.494 290.15V290.718H696.767V289.559H702.131C702.131 289.066 702.032 288.627 701.835 288.241C701.642 287.854 701.366 287.549 701.006 287.326C700.65 287.102 700.229 286.991 699.744 286.991C699.21 286.991 698.748 287.123 698.358 287.388C697.972 287.65 697.674 287.991 697.466 288.411C697.258 288.831 697.153 289.282 697.153 289.763V290.536C697.153 291.195 697.267 291.754 697.494 292.212C697.725 292.667 698.045 293.013 698.455 293.252C698.864 293.487 699.339 293.604 699.881 293.604C700.233 293.604 700.551 293.555 700.835 293.456C701.123 293.354 701.371 293.203 701.58 293.002C701.788 292.797 701.949 292.544 702.063 292.241L703.358 292.604C703.222 293.044 702.992 293.43 702.67 293.763C702.349 294.093 701.951 294.35 701.477 294.536C701.004 294.718 700.472 294.809 699.881 294.809ZM708.19 294.809C707.462 294.809 706.82 294.625 706.263 294.258C705.707 293.886 705.271 293.364 704.957 292.689C704.642 292.011 704.485 291.21 704.485 290.286C704.485 289.369 704.642 288.574 704.957 287.9C705.271 287.225 705.709 286.705 706.269 286.337C706.83 285.97 707.477 285.786 708.212 285.786C708.78 285.786 709.229 285.881 709.559 286.07C709.892 286.256 710.146 286.468 710.32 286.706C710.498 286.941 710.637 287.135 710.735 287.286H710.849V282.991H712.19V294.627H710.894V293.286H710.735C710.637 293.445 710.496 293.646 710.315 293.888C710.133 294.127 709.873 294.341 709.536 294.53C709.199 294.716 708.75 294.809 708.19 294.809ZM708.371 293.604C708.909 293.604 709.364 293.464 709.735 293.184C710.106 292.9 710.388 292.508 710.582 292.008C710.775 291.504 710.871 290.922 710.871 290.263C710.871 289.612 710.777 289.042 710.587 288.553C710.398 288.061 710.118 287.678 709.746 287.405C709.375 287.129 708.917 286.991 708.371 286.991C707.803 286.991 707.33 287.136 706.951 287.428C706.576 287.716 706.294 288.108 706.104 288.604C705.919 289.097 705.826 289.65 705.826 290.263C705.826 290.885 705.921 291.449 706.11 291.956C706.303 292.46 706.587 292.862 706.962 293.161C707.341 293.456 707.811 293.604 708.371 293.604ZM719.692 291.059V285.9H721.033V294.627H719.692V293.15H719.601C719.396 293.593 719.078 293.97 718.646 294.28C718.214 294.587 717.669 294.741 717.01 294.741C716.464 294.741 715.979 294.621 715.555 294.383C715.131 294.14 714.798 293.777 714.555 293.292C714.313 292.803 714.192 292.188 714.192 291.445V285.9H715.533V291.354C715.533 291.991 715.711 292.498 716.067 292.877C716.426 293.256 716.885 293.445 717.442 293.445C717.775 293.445 718.114 293.36 718.459 293.189C718.807 293.019 719.099 292.758 719.334 292.405C719.572 292.053 719.692 291.604 719.692 291.059ZM724.189 282.991V294.627H722.848V282.991H724.189ZM729.664 294.809C728.824 294.809 728.098 294.623 727.488 294.252C726.882 293.877 726.414 293.354 726.085 292.684C725.759 292.01 725.596 291.225 725.596 290.331C725.596 289.438 725.759 288.65 726.085 287.968C726.414 287.282 726.873 286.748 727.46 286.366C728.051 285.979 728.74 285.786 729.528 285.786C729.983 285.786 730.431 285.862 730.875 286.013C731.318 286.165 731.721 286.411 732.085 286.752C732.449 287.089 732.738 287.536 732.954 288.093C733.17 288.65 733.278 289.335 733.278 290.15V290.718H726.551V289.559H731.914C731.914 289.066 731.816 288.627 731.619 288.241C731.426 287.854 731.149 287.549 730.789 287.326C730.433 287.102 730.013 286.991 729.528 286.991C728.994 286.991 728.532 287.123 728.142 287.388C727.755 287.65 727.458 287.991 727.25 288.411C727.041 288.831 726.937 289.282 726.937 289.763V290.536C726.937 291.195 727.051 291.754 727.278 292.212C727.509 292.667 727.829 293.013 728.238 293.252C728.647 293.487 729.123 293.604 729.664 293.604C730.017 293.604 730.335 293.555 730.619 293.456C730.907 293.354 731.155 293.203 731.363 293.002C731.572 292.797 731.733 292.544 731.846 292.241L733.142 292.604C733.005 293.044 732.776 293.43 732.454 293.763C732.132 294.093 731.735 294.35 731.261 294.536C730.788 294.718 730.255 294.809 729.664 294.809ZM739.401 297.9C739.174 297.9 738.972 297.881 738.794 297.843C738.616 297.809 738.492 297.775 738.424 297.741L738.765 296.559C739.091 296.642 739.379 296.672 739.629 296.65C739.879 296.627 740.1 296.515 740.294 296.314C740.491 296.117 740.67 295.797 740.833 295.354L741.083 294.672L737.856 285.9H739.311L741.72 292.854H741.811L744.22 285.9H745.674L741.97 295.9C741.803 296.35 741.597 296.724 741.35 297.019C741.104 297.318 740.818 297.54 740.492 297.684C740.17 297.828 739.807 297.9 739.401 297.9ZM750.037 294.809C749.249 294.809 748.558 294.621 747.963 294.246C747.372 293.871 746.91 293.347 746.577 292.672C746.247 291.998 746.083 291.21 746.083 290.309C746.083 289.4 746.247 288.606 746.577 287.928C746.91 287.25 747.372 286.724 747.963 286.349C748.558 285.974 749.249 285.786 750.037 285.786C750.825 285.786 751.514 285.974 752.105 286.349C752.7 286.724 753.162 287.25 753.492 287.928C753.825 288.606 753.992 289.4 753.992 290.309C753.992 291.21 753.825 291.998 753.492 292.672C753.162 293.347 752.7 293.871 752.105 294.246C751.514 294.621 750.825 294.809 750.037 294.809ZM750.037 293.604C750.636 293.604 751.128 293.451 751.514 293.144C751.901 292.837 752.187 292.434 752.372 291.934C752.558 291.434 752.651 290.892 752.651 290.309C752.651 289.725 752.558 289.182 752.372 288.678C752.187 288.174 751.901 287.767 751.514 287.456C751.128 287.146 750.636 286.991 750.037 286.991C749.439 286.991 748.946 287.146 748.56 287.456C748.173 287.767 747.887 288.174 747.702 288.678C747.516 289.182 747.423 289.725 747.423 290.309C747.423 290.892 747.516 291.434 747.702 291.934C747.887 292.434 748.173 292.837 748.56 293.144C748.946 293.451 749.439 293.604 750.037 293.604ZM760.898 291.059V285.9H762.239V294.627H760.898V293.15H760.808C760.603 293.593 760.285 293.97 759.853 294.28C759.421 294.587 758.876 294.741 758.217 294.741C757.671 294.741 757.186 294.621 756.762 294.383C756.338 294.14 756.005 293.777 755.762 293.292C755.52 292.803 755.398 292.188 755.398 291.445V285.9H756.739V291.354C756.739 291.991 756.917 292.498 757.273 292.877C757.633 293.256 758.092 293.445 758.648 293.445C758.982 293.445 759.321 293.36 759.666 293.189C760.014 293.019 760.306 292.758 760.541 292.405C760.779 292.053 760.898 291.604 760.898 291.059ZM764.055 294.627V285.9H765.351V287.218H765.442C765.601 286.786 765.889 286.436 766.305 286.167C766.722 285.898 767.192 285.763 767.714 285.763C767.813 285.763 767.936 285.765 768.084 285.769C768.231 285.773 768.343 285.778 768.419 285.786V287.15C768.374 287.138 768.269 287.121 768.106 287.099C767.947 287.072 767.779 287.059 767.601 287.059C767.177 287.059 766.798 287.148 766.464 287.326C766.135 287.5 765.874 287.742 765.68 288.053C765.491 288.36 765.396 288.71 765.396 289.104V294.627H764.055ZM775.797 294.831C775.244 294.831 774.742 294.727 774.291 294.519C773.84 294.307 773.482 294.002 773.217 293.604C772.952 293.203 772.819 292.718 772.819 292.15C772.819 291.65 772.918 291.244 773.115 290.934C773.312 290.619 773.575 290.373 773.905 290.195C774.234 290.017 774.598 289.885 774.996 289.797C775.397 289.706 775.8 289.635 776.206 289.581C776.736 289.513 777.166 289.462 777.496 289.428C777.829 289.39 778.071 289.328 778.223 289.241C778.378 289.153 778.456 289.002 778.456 288.786V288.741C778.456 288.18 778.302 287.744 777.996 287.434C777.693 287.123 777.232 286.968 776.615 286.968C775.975 286.968 775.473 287.108 775.109 287.388C774.746 287.669 774.49 287.968 774.342 288.286L773.069 287.831C773.297 287.301 773.6 286.888 773.978 286.593C774.361 286.294 774.778 286.085 775.228 285.968C775.683 285.847 776.13 285.786 776.569 285.786C776.85 285.786 777.172 285.82 777.535 285.888C777.903 285.953 778.257 286.087 778.598 286.292C778.943 286.496 779.228 286.805 779.456 287.218C779.683 287.631 779.797 288.184 779.797 288.877V294.627H778.456V293.445H778.388C778.297 293.635 778.145 293.837 777.933 294.053C777.721 294.269 777.439 294.453 777.086 294.604C776.734 294.756 776.304 294.831 775.797 294.831ZM776.001 293.627C776.532 293.627 776.978 293.523 777.342 293.314C777.71 293.106 777.986 292.837 778.172 292.508C778.361 292.178 778.456 291.831 778.456 291.468V290.241C778.399 290.309 778.274 290.371 778.081 290.428C777.891 290.481 777.672 290.528 777.422 290.57C777.175 290.608 776.935 290.642 776.7 290.672C776.469 290.699 776.282 290.722 776.138 290.741C775.789 290.786 775.463 290.86 775.16 290.962C774.861 291.061 774.619 291.21 774.433 291.411C774.251 291.608 774.16 291.877 774.16 292.218C774.16 292.684 774.333 293.036 774.677 293.275C775.026 293.51 775.467 293.627 776.001 293.627ZM781.604 297.9V285.9H782.9V287.286H783.059C783.157 287.135 783.294 286.941 783.468 286.706C783.646 286.468 783.9 286.256 784.229 286.07C784.562 285.881 785.013 285.786 785.581 285.786C786.316 285.786 786.964 285.97 787.525 286.337C788.085 286.705 788.523 287.225 788.837 287.9C789.151 288.574 789.309 289.369 789.309 290.286C789.309 291.21 789.151 292.011 788.837 292.689C788.523 293.364 788.087 293.886 787.53 294.258C786.973 294.625 786.331 294.809 785.604 294.809C785.044 294.809 784.595 294.716 784.258 294.53C783.92 294.341 783.661 294.127 783.479 293.888C783.297 293.646 783.157 293.445 783.059 293.286H782.945V297.9H781.604ZM782.922 290.263C782.922 290.922 783.019 291.504 783.212 292.008C783.405 292.508 783.687 292.9 784.059 293.184C784.43 293.464 784.884 293.604 785.422 293.604C785.983 293.604 786.451 293.456 786.826 293.161C787.204 292.862 787.489 292.46 787.678 291.956C787.871 291.449 787.968 290.885 787.968 290.263C787.968 289.65 787.873 289.097 787.684 288.604C787.498 288.108 787.216 287.716 786.837 287.428C786.462 287.136 785.99 286.991 785.422 286.991C784.877 286.991 784.419 287.129 784.047 287.405C783.676 287.678 783.396 288.061 783.206 288.553C783.017 289.042 782.922 289.612 782.922 290.263ZM790.714 297.9V285.9H792.01V287.286H792.169C792.267 287.135 792.403 286.941 792.578 286.706C792.756 286.468 793.01 286.256 793.339 286.07C793.672 285.881 794.123 285.786 794.691 285.786C795.426 285.786 796.074 285.97 796.635 286.337C797.195 286.705 797.633 287.225 797.947 287.9C798.261 288.574 798.419 289.369 798.419 290.286C798.419 291.21 798.261 292.011 797.947 292.689C797.633 293.364 797.197 293.886 796.64 294.258C796.083 294.625 795.441 294.809 794.714 294.809C794.153 294.809 793.705 294.716 793.368 294.53C793.03 294.341 792.771 294.127 792.589 293.888C792.407 293.646 792.267 293.445 792.169 293.286H792.055V297.9H790.714ZM792.032 290.263C792.032 290.922 792.129 291.504 792.322 292.008C792.515 292.508 792.797 292.9 793.169 293.184C793.54 293.464 793.994 293.604 794.532 293.604C795.093 293.604 795.561 293.456 795.936 293.161C796.314 292.862 796.599 292.46 796.788 291.956C796.981 291.449 797.078 290.885 797.078 290.263C797.078 289.65 796.983 289.097 796.794 288.604C796.608 288.108 796.326 287.716 795.947 287.428C795.572 287.136 795.1 286.991 794.532 286.991C793.987 286.991 793.528 287.129 793.157 287.405C792.786 287.678 792.506 288.061 792.316 288.553C792.127 289.042 792.032 289.612 792.032 290.263ZM803.37 294.809C802.582 294.809 801.89 294.621 801.296 294.246C800.705 293.871 800.243 293.347 799.909 292.672C799.58 291.998 799.415 291.21 799.415 290.309C799.415 289.4 799.58 288.606 799.909 287.928C800.243 287.25 800.705 286.724 801.296 286.349C801.89 285.974 802.582 285.786 803.37 285.786C804.157 285.786 804.847 285.974 805.438 286.349C806.032 286.724 806.495 287.25 806.824 287.928C807.157 288.606 807.324 289.4 807.324 290.309C807.324 291.21 807.157 291.998 806.824 292.672C806.495 293.347 806.032 293.871 805.438 294.246C804.847 294.621 804.157 294.809 803.37 294.809ZM803.37 293.604C803.968 293.604 804.46 293.451 804.847 293.144C805.233 292.837 805.519 292.434 805.705 291.934C805.89 291.434 805.983 290.892 805.983 290.309C805.983 289.725 805.89 289.182 805.705 288.678C805.519 288.174 805.233 287.767 804.847 287.456C804.46 287.146 803.968 286.991 803.37 286.991C802.771 286.991 802.279 287.146 801.892 287.456C801.506 287.767 801.22 288.174 801.034 288.678C800.849 289.182 800.756 289.725 800.756 290.309C800.756 290.892 800.849 291.434 801.034 291.934C801.22 292.434 801.506 292.837 801.892 293.144C802.279 293.451 802.771 293.604 803.37 293.604ZM808.731 294.627V285.9H810.072V294.627H808.731ZM809.413 284.445C809.151 284.445 808.926 284.356 808.737 284.178C808.551 284 808.458 283.786 808.458 283.536C808.458 283.286 808.551 283.072 808.737 282.894C808.926 282.716 809.151 282.627 809.413 282.627C809.674 282.627 809.898 282.716 810.083 282.894C810.273 283.072 810.367 283.286 810.367 283.536C810.367 283.786 810.273 284 810.083 284.178C809.898 284.356 809.674 284.445 809.413 284.445ZM813.229 289.377V294.627H811.888V285.9H813.183V287.263H813.297C813.501 286.82 813.812 286.464 814.229 286.195C814.645 285.922 815.183 285.786 815.842 285.786C816.433 285.786 816.95 285.907 817.394 286.15C817.837 286.388 818.181 286.752 818.428 287.241C818.674 287.725 818.797 288.339 818.797 289.081V294.627H817.456V289.172C817.456 288.487 817.278 287.953 816.922 287.57C816.566 287.184 816.077 286.991 815.456 286.991C815.028 286.991 814.645 287.083 814.308 287.269C813.975 287.455 813.712 287.725 813.519 288.081C813.325 288.438 813.229 288.869 813.229 289.377ZM824.403 285.9V287.036H819.88V285.9H824.403ZM821.198 283.809H822.539V292.127C822.539 292.506 822.594 292.79 822.704 292.979C822.817 293.165 822.961 293.29 823.136 293.354C823.314 293.415 823.501 293.445 823.698 293.445C823.846 293.445 823.967 293.438 824.062 293.422C824.156 293.403 824.232 293.388 824.289 293.377L824.562 294.581C824.471 294.616 824.344 294.65 824.181 294.684C824.018 294.722 823.812 294.741 823.562 294.741C823.183 294.741 822.812 294.659 822.448 294.496C822.088 294.333 821.789 294.085 821.55 293.752C821.316 293.419 821.198 292.998 821.198 292.491V283.809ZM825.78 294.627V285.9H827.075V287.263H827.189C827.371 286.797 827.664 286.436 828.07 286.178C828.475 285.917 828.962 285.786 829.53 285.786C830.105 285.786 830.585 285.917 830.967 286.178C831.354 286.436 831.655 286.797 831.871 287.263H831.962C832.185 286.813 832.52 286.455 832.967 286.189C833.414 285.921 833.95 285.786 834.575 285.786C835.355 285.786 835.994 286.03 836.49 286.519C836.986 287.004 837.234 287.76 837.234 288.786V294.627H835.893V288.786C835.893 288.142 835.717 287.682 835.365 287.405C835.013 287.129 834.598 286.991 834.121 286.991C833.507 286.991 833.032 287.176 832.695 287.547C832.357 287.915 832.189 288.381 832.189 288.945V294.627H830.825V288.65C830.825 288.153 830.664 287.754 830.342 287.451C830.02 287.144 829.605 286.991 829.098 286.991C828.749 286.991 828.424 287.083 828.121 287.269C827.821 287.455 827.579 287.712 827.393 288.042C827.212 288.367 827.121 288.744 827.121 289.172V294.627H825.78ZM842.705 294.809C841.864 294.809 841.139 294.623 840.529 294.252C839.923 293.877 839.455 293.354 839.126 292.684C838.8 292.01 838.637 291.225 838.637 290.331C838.637 289.438 838.8 288.65 839.126 287.968C839.455 287.282 839.913 286.748 840.501 286.366C841.091 285.979 841.781 285.786 842.569 285.786C843.023 285.786 843.472 285.862 843.915 286.013C844.358 286.165 844.762 286.411 845.126 286.752C845.489 287.089 845.779 287.536 845.995 288.093C846.211 288.65 846.319 289.335 846.319 290.15V290.718H839.591V289.559H844.955C844.955 289.066 844.857 288.627 844.66 288.241C844.466 287.854 844.19 287.549 843.83 287.326C843.474 287.102 843.054 286.991 842.569 286.991C842.035 286.991 841.572 287.123 841.182 287.388C840.796 287.65 840.499 287.991 840.29 288.411C840.082 288.831 839.978 289.282 839.978 289.763V290.536C839.978 291.195 840.091 291.754 840.319 292.212C840.55 292.667 840.87 293.013 841.279 293.252C841.688 293.487 842.163 293.604 842.705 293.604C843.057 293.604 843.376 293.555 843.66 293.456C843.947 293.354 844.196 293.203 844.404 293.002C844.612 292.797 844.773 292.544 844.887 292.241L846.182 292.604C846.046 293.044 845.817 293.43 845.495 293.763C845.173 294.093 844.775 294.35 844.302 294.536C843.828 294.718 843.296 294.809 842.705 294.809ZM849.059 289.377V294.627H847.718V285.9H849.014V287.263H849.128C849.332 286.82 849.643 286.464 850.059 286.195C850.476 285.922 851.014 285.786 851.673 285.786C852.264 285.786 852.781 285.907 853.224 286.15C853.667 286.388 854.012 286.752 854.258 287.241C854.504 287.725 854.628 288.339 854.628 289.081V294.627H853.287V289.172C853.287 288.487 853.109 287.953 852.753 287.57C852.397 287.184 851.908 286.991 851.287 286.991C850.859 286.991 850.476 287.083 850.139 287.269C849.806 287.455 849.542 287.725 849.349 288.081C849.156 288.438 849.059 288.869 849.059 289.377ZM860.233 285.9V287.036H855.711V285.9H860.233ZM857.029 283.809H858.37V292.127C858.37 292.506 858.425 292.79 858.534 292.979C858.648 293.165 858.792 293.29 858.966 293.354C859.144 293.415 859.332 293.445 859.529 293.445C859.676 293.445 859.798 293.438 859.892 293.422C859.987 293.403 860.063 293.388 860.12 293.377L860.392 294.581C860.301 294.616 860.175 294.65 860.012 294.684C859.849 294.722 859.642 294.741 859.392 294.741C859.014 294.741 858.642 294.659 858.279 294.496C857.919 294.333 857.62 294.085 857.381 293.752C857.146 293.419 857.029 292.998 857.029 292.491V283.809ZM863.36 291.354V291.286C863.368 290.563 863.444 289.987 863.588 289.559C863.732 289.131 863.936 288.784 864.201 288.519C864.466 288.254 864.785 288.01 865.156 287.786C865.379 287.65 865.58 287.489 865.758 287.303C865.936 287.114 866.076 286.896 866.179 286.65C866.285 286.403 866.338 286.131 866.338 285.831C866.338 285.46 866.251 285.138 866.076 284.866C865.902 284.593 865.669 284.383 865.377 284.235C865.086 284.087 864.762 284.013 864.406 284.013C864.095 284.013 863.796 284.078 863.508 284.206C863.22 284.335 862.98 284.538 862.786 284.814C862.593 285.091 862.482 285.453 862.451 285.9H861.019C861.05 285.256 861.216 284.705 861.519 284.246C861.826 283.788 862.23 283.438 862.73 283.195C863.233 282.953 863.792 282.831 864.406 282.831C865.072 282.831 865.652 282.964 866.144 283.229C866.641 283.494 867.023 283.858 867.292 284.32C867.565 284.782 867.701 285.309 867.701 285.9C867.701 286.316 867.637 286.693 867.508 287.03C867.383 287.367 867.201 287.669 866.963 287.934C866.728 288.199 866.444 288.434 866.11 288.638C865.777 288.847 865.51 289.066 865.309 289.297C865.108 289.525 864.963 289.796 864.872 290.11C864.781 290.424 864.732 290.816 864.724 291.286V291.354H863.36ZM864.088 294.718C863.807 294.718 863.567 294.617 863.366 294.417C863.165 294.216 863.065 293.975 863.065 293.695C863.065 293.415 863.165 293.174 863.366 292.974C863.567 292.773 863.807 292.672 864.088 292.672C864.368 292.672 864.608 292.773 864.809 292.974C865.01 293.174 865.11 293.415 865.11 293.695C865.11 293.881 865.063 294.051 864.968 294.206C864.877 294.362 864.754 294.487 864.599 294.581C864.447 294.672 864.277 294.718 864.088 294.718Z" fill="#62625D"/>
<path d="M959.604 258.127L1026.02 258.127" stroke="#CCCCC2"/>
<rect x="1053.02" y="238.932" width="64.7776" height="38.3888" rx="4.3472" fill="#5A36EC"/>
<path d="M1075.23 258.689L1077.62 253.252H1079.71L1076.15 260.564L1076.13 264.627H1074.29L1074.29 260.51L1070.76 253.252H1072.84L1075.23 258.689ZM1088.19 259.525H1083.48V263.08H1088.97V264.627H1081.6V253.252H1088.94V254.806H1083.48V258.01H1088.19V259.525ZM1097.36 261.697C1097.36 261.431 1097.3 261.197 1097.19 260.994C1097.08 260.791 1096.93 260.608 1096.73 260.447C1096.52 260.296 1096.28 260.161 1095.99 260.041C1095.71 259.916 1095.39 259.804 1095.04 259.705C1094.51 259.554 1094.01 259.369 1093.56 259.15C1093.11 258.926 1092.73 258.676 1092.41 258.4C1092.09 258.119 1091.84 257.801 1091.66 257.447C1091.48 257.088 1091.4 256.684 1091.4 256.236C1091.4 255.752 1091.5 255.317 1091.71 254.931C1091.92 254.541 1092.2 254.207 1092.55 253.931C1092.91 253.661 1093.32 253.455 1093.79 253.314C1094.26 253.168 1094.76 253.095 1095.28 253.095C1095.83 253.095 1096.34 253.181 1096.82 253.353C1097.3 253.52 1097.71 253.754 1098.07 254.056C1098.42 254.364 1098.7 254.731 1098.9 255.158C1099.11 255.58 1099.22 256.049 1099.22 256.564H1097.36C1097.33 256.278 1097.27 256.017 1097.17 255.783C1097.08 255.543 1096.94 255.338 1096.77 255.166C1096.59 254.999 1096.38 254.869 1096.12 254.775C1095.87 254.676 1095.58 254.627 1095.26 254.627C1094.97 254.627 1094.7 254.666 1094.46 254.744C1094.22 254.817 1094.01 254.921 1093.83 255.056C1093.66 255.197 1093.52 255.366 1093.42 255.564C1093.32 255.762 1093.27 255.983 1093.27 256.228C1093.28 256.489 1093.34 256.718 1093.47 256.916C1093.6 257.108 1093.78 257.278 1094 257.424C1094.22 257.569 1094.48 257.697 1094.76 257.806C1095.05 257.916 1095.36 258.017 1095.68 258.111C1096.08 258.226 1096.47 258.369 1096.85 258.541C1097.23 258.707 1097.59 258.911 1097.91 259.15C1098.31 259.452 1098.63 259.814 1098.87 260.236C1099.12 260.653 1099.24 261.135 1099.24 261.681C1099.24 262.187 1099.13 262.632 1098.92 263.017C1098.71 263.403 1098.43 263.723 1098.08 263.978C1097.72 264.244 1097.3 264.444 1096.83 264.58C1096.35 264.71 1095.85 264.775 1095.33 264.775C1094.77 264.775 1094.22 264.689 1093.68 264.517C1093.14 264.34 1092.66 264.085 1092.26 263.752C1091.89 263.439 1091.6 263.072 1091.38 262.65C1091.17 262.228 1091.06 261.744 1091.05 261.197H1092.93C1092.95 261.546 1093.03 261.851 1093.15 262.111C1093.27 262.366 1093.44 262.577 1093.65 262.744C1093.86 262.916 1094.11 263.043 1094.39 263.127C1094.67 263.21 1094.99 263.252 1095.33 263.252C1095.61 263.252 1095.88 263.218 1096.12 263.15C1096.37 263.082 1096.59 262.981 1096.77 262.845C1096.95 262.715 1097.09 262.554 1097.19 262.361C1097.3 262.168 1097.36 261.947 1097.36 261.697Z" fill="white"/>
</svg>
