<svg width="181" height="181" viewBox="0 0 181 181" fill="none" xmlns="http://www.w3.org/2000/svg">
<rect x="16.8682" y="16.9023" width="147.265" height="147.265" rx="73.6326" fill="#8F74FF"/>
<rect x="0.876953" y="0.587891" width="179.247" height="179.894" rx="89.6233" fill="#8F74FF" fill-opacity="0.38"/>
<rect x="38.3438" y="38.3794" width="104.311" height="104.311" rx="52.1557" fill="#5A36EC"/>
<path d="M80.3503 88.2527C83.0667 93.5912 87.4431 97.9488 92.7816 100.684L96.9317 96.534C97.441 96.0246 98.1956 95.8549 98.8558 96.0812C100.969 96.7792 103.251 97.1565 105.59 97.1565C106.628 97.1565 107.477 98.0054 107.477 99.0429V105.626C107.477 106.664 106.628 107.513 105.59 107.513C87.877 107.513 73.5215 93.1573 73.5215 75.444C73.5215 74.4065 74.3704 73.5576 75.4079 73.5576H82.0103C83.0478 73.5576 83.8967 74.4065 83.8967 75.444C83.8967 77.802 84.274 80.0657 84.9719 82.1785C85.1794 82.8387 85.0285 83.5744 84.5003 84.1026L80.3503 88.2527Z" fill="white"/>
</svg>
