<svg width="383" height="397" viewBox="0 0 383 397" fill="none" xmlns="http://www.w3.org/2000/svg">
<rect x="43.3667" y="51.0527" width="84.702" height="23.351" rx="3.06292" fill="#5A36EC"/>
<path d="M51.7467 67.7285V59.0183H54.337C54.696 59.0223 55.0469 59.0702 55.3899 59.1619C55.7329 59.2497 56.038 59.3872 56.3052 59.5747C56.5724 59.7621 56.7858 60.0014 56.9453 60.2926C57.1048 60.5837 57.1826 60.9327 57.1786 61.3395C57.1746 61.5668 57.1367 61.7742 57.065 61.9616C56.9972 62.1491 56.9034 62.3166 56.7838 62.4641C56.6602 62.6157 56.5226 62.7433 56.371 62.847C56.2235 62.9507 56.044 63.0484 55.8326 63.1401V63.1581C56.052 63.2099 56.2633 63.3036 56.4667 63.4392C56.6701 63.5748 56.8376 63.7244 56.9692 63.8879C57.1088 64.0674 57.2165 64.2688 57.2923 64.4921C57.372 64.7154 57.4119 64.9567 57.4119 65.216C57.4159 65.6228 57.3381 65.9817 57.1786 66.2928C57.0191 66.6038 56.8057 66.8631 56.5385 67.0705C56.2713 67.2818 55.9622 67.4434 55.6113 67.555C55.2643 67.6667 54.9054 67.7245 54.5345 67.7285H51.7467ZM52.8594 63.6546V66.7893H54.5644C54.7957 66.7853 55.015 66.7474 55.2224 66.6756C55.4298 66.5999 55.6133 66.4962 55.7728 66.3646C55.9323 66.2329 56.0579 66.0714 56.1497 65.88C56.2454 65.6886 56.2932 65.4712 56.2932 65.2279C56.2972 64.9807 56.2554 64.7613 56.1676 64.5699C56.0839 64.3784 55.9662 64.2149 55.8147 64.0793C55.6631 63.9477 55.4856 63.846 55.2822 63.7742C55.0788 63.7025 54.8595 63.6626 54.6242 63.6546H52.8594ZM52.8594 62.7333H54.4028C54.6102 62.7293 54.8136 62.6974 55.013 62.6376C55.2124 62.5738 55.3899 62.4821 55.5455 62.3624C55.701 62.2468 55.8266 62.1032 55.9223 61.9317C56.0181 61.7602 56.0659 61.5608 56.0659 61.3335C56.0659 61.0902 56.0181 60.8828 55.9223 60.7113C55.8306 60.5398 55.707 60.3982 55.5514 60.2866C55.3919 60.1789 55.2085 60.0991 55.0011 60.0473C54.7977 59.9954 54.5883 59.9675 54.3729 59.9635H52.8594V62.7333ZM58.8003 58.5398H62.1085V66.7714H64.2202V67.7285H58.8003V66.7714H61.0018V59.5029H58.8003V58.5398ZM69.7483 67.7285C69.7044 67.6448 69.6686 67.5411 69.6406 67.4174C69.6167 67.2898 69.5988 67.1582 69.5868 67.0226C69.4751 67.1343 69.3495 67.24 69.2099 67.3397C69.0743 67.4394 68.9248 67.5271 68.7612 67.6029C68.5937 67.6787 68.4163 67.7385 68.2288 67.7824C68.0414 67.8262 67.842 67.8482 67.6306 67.8482C67.2876 67.8482 66.9765 67.7983 66.6974 67.6986C66.4222 67.5989 66.1889 67.4633 65.9974 67.2918C65.802 67.1243 65.6505 66.9249 65.5428 66.6936C65.4391 66.4583 65.3872 66.205 65.3872 65.9338C65.3872 65.5789 65.457 65.2678 65.5966 65.0006C65.7402 64.7334 65.9416 64.5101 66.2008 64.3306C66.4601 64.1551 66.7711 64.0235 67.1341 63.9358C67.501 63.848 67.9098 63.8041 68.3604 63.8041H69.5688V63.2957C69.5688 63.1002 69.533 62.9248 69.4612 62.7692C69.3894 62.6137 69.2877 62.4801 69.1561 62.3684C69.0245 62.2607 68.8629 62.177 68.6715 62.1172C68.4841 62.0573 68.2727 62.0274 68.0374 62.0274C67.818 62.0274 67.6206 62.0553 67.4451 62.1112C67.2737 62.167 67.1281 62.2408 67.0084 62.3325C66.8888 62.4242 66.7951 62.5339 66.7273 62.6615C66.6635 62.7852 66.6316 62.9148 66.6316 63.0504H65.5189C65.5228 62.8151 65.5827 62.5838 65.6983 62.3564C65.818 62.1291 65.9895 61.9237 66.2128 61.7403C66.4321 61.5608 66.6994 61.4152 67.0144 61.3036C67.3335 61.1919 67.6944 61.1361 68.0972 61.1361C68.4641 61.1361 68.8051 61.1819 69.1202 61.2737C69.4352 61.3614 69.7084 61.495 69.9397 61.6745C70.1671 61.8579 70.3465 62.0852 70.4782 62.3564C70.6098 62.6276 70.6756 62.9447 70.6756 63.3076V66.3167C70.6756 66.5321 70.6955 66.7614 70.7354 67.0047C70.7753 67.244 70.8311 67.4533 70.9029 67.6328V67.7285H69.7483ZM67.7921 66.885C68.0075 66.885 68.2089 66.8571 68.3963 66.8013C68.5838 66.7454 68.7553 66.6716 68.9108 66.5799C69.0623 66.4882 69.194 66.3845 69.3056 66.2688C69.4173 66.1492 69.505 66.0256 69.5688 65.8979V64.5878H68.5399C68.157 64.5878 67.822 64.6217 67.5349 64.6895C67.2517 64.7533 67.0264 64.853 66.8589 64.9886C66.7392 65.0844 66.6475 65.198 66.5837 65.3296C66.5239 65.4612 66.494 65.6108 66.494 65.7783C66.494 65.9378 66.5199 66.0854 66.5717 66.221C66.6276 66.3566 66.7093 66.4722 66.817 66.568C66.9247 66.6677 67.0603 66.7454 67.2238 66.8013C67.3873 66.8571 67.5768 66.885 67.7921 66.885ZM72.363 67.7285V61.2557H73.3561L73.4339 62.2129C73.5296 62.0773 73.6333 61.9536 73.7449 61.842C73.8606 61.7263 73.9822 61.6266 74.1099 61.5429C74.3013 61.4152 74.5087 61.3175 74.732 61.2497C74.9593 61.1779 75.1986 61.14 75.4499 61.1361C75.7889 61.1361 76.096 61.1839 76.3712 61.2796C76.6503 61.3754 76.8876 61.5249 77.0831 61.7283C77.2785 61.9317 77.428 62.1909 77.5317 62.506C77.6394 62.8171 77.6932 63.188 77.6932 63.6187V67.7285H76.5865V63.6426C76.5865 63.3555 76.5546 63.1122 76.4908 62.9128C76.427 62.7134 76.3333 62.5519 76.2096 62.4282C76.082 62.3046 75.9265 62.2149 75.743 62.159C75.5636 62.1032 75.3562 62.0753 75.1209 62.0753C74.9175 62.0753 74.728 62.1052 74.5526 62.165C74.3771 62.2208 74.2156 62.2986 74.068 62.3983C73.9483 62.4861 73.8367 62.5878 73.733 62.7034C73.6333 62.8191 73.5455 62.9467 73.4698 63.0863V67.7285H72.363ZM79.0218 64.4383C79.0218 63.9557 79.0816 63.513 79.2013 63.1102C79.3249 62.7034 79.5004 62.3544 79.7277 62.0633C79.951 61.7722 80.2222 61.5448 80.5413 61.3813C80.8603 61.2178 81.2173 61.1361 81.6121 61.1361C81.999 61.1361 82.336 61.2019 82.6231 61.3335C82.9142 61.4611 83.1655 61.6485 83.3769 61.8958V58.5398H84.4836V67.7285H83.4666L83.4187 67.0465C83.2034 67.3098 82.9461 67.5092 82.647 67.6448C82.3479 67.7804 81.999 67.8482 81.6001 67.8482C81.2093 67.8482 80.8544 67.7644 80.5353 67.5969C80.2202 67.4294 79.951 67.1981 79.7277 66.903C79.5044 66.6078 79.3309 66.2609 79.2072 65.862C79.0836 65.4592 79.0218 65.0265 79.0218 64.5639V64.4383ZM80.1285 64.5639C80.1285 64.879 80.1624 65.1781 80.2302 65.4612C80.298 65.7444 80.4037 65.9937 80.5473 66.209C80.6868 66.4244 80.8663 66.5959 81.0857 66.7235C81.305 66.8471 81.5682 66.9089 81.8753 66.9089C82.2462 66.9089 82.5533 66.8252 82.7966 66.6577C83.0399 66.4902 83.2333 66.2649 83.3769 65.9817V62.9786C83.2333 62.7154 83.0399 62.5 82.7966 62.3325C82.5533 62.161 82.2502 62.0753 81.8873 62.0753C81.5762 62.0753 81.309 62.1391 81.0857 62.2667C80.8663 62.3943 80.6868 62.5658 80.5473 62.7812C80.4037 63.0005 80.298 63.2538 80.2302 63.5409C80.1624 63.8241 80.1285 64.1232 80.1285 64.4383V64.5639ZM92.8537 67.7285V59.0183H94.8698C95.2088 59.0223 95.5278 59.0582 95.8269 59.126C96.13 59.1898 96.4092 59.2816 96.6644 59.4012C97.0194 59.5647 97.3325 59.7801 97.6037 60.0473C97.8788 60.3105 98.0982 60.6156 98.2617 60.9626C98.4093 61.2577 98.5209 61.5807 98.5967 61.9317C98.6765 62.2827 98.7184 62.6575 98.7223 63.0564V63.6965C98.7223 64.0793 98.6845 64.4423 98.6087 64.7852C98.5369 65.1282 98.4312 65.4433 98.2916 65.7304C98.148 66.0296 97.9666 66.3007 97.7472 66.544C97.5279 66.7873 97.2826 66.9947 97.0114 67.1662C96.7243 67.3457 96.3992 67.4832 96.0363 67.579C95.6774 67.6747 95.2885 67.7245 94.8698 67.7285H92.8537ZM93.9784 59.9276V66.8252H94.8698C95.1888 66.8212 95.478 66.7813 95.7372 66.7055C96.0004 66.6298 96.2337 66.5221 96.4371 66.3825C96.6525 66.2389 96.8379 66.0635 96.9935 65.8561C97.153 65.6447 97.2786 65.4094 97.3703 65.1502C97.4501 64.9388 97.5099 64.7115 97.5498 64.4682C97.5897 64.2209 97.6116 63.9637 97.6156 63.6965V63.0444C97.6116 62.7732 97.5877 62.514 97.5438 62.2667C97.504 62.0155 97.4421 61.7821 97.3584 61.5668C97.2507 61.2876 97.1051 61.0364 96.9217 60.813C96.7422 60.5857 96.5209 60.4022 96.2576 60.2626C96.0702 60.159 95.8608 60.0792 95.6295 60.0234C95.3982 59.9635 95.1449 59.9316 94.8698 59.9276H93.9784ZM104.089 67.7285C104.045 67.6448 104.009 67.5411 103.981 67.4174C103.957 67.2898 103.939 67.1582 103.927 67.0226C103.816 67.1343 103.69 67.24 103.551 67.3397C103.415 67.4394 103.265 67.5271 103.102 67.6029C102.934 67.6787 102.757 67.7385 102.569 67.7824C102.382 67.8262 102.183 67.8482 101.971 67.8482C101.628 67.8482 101.317 67.7983 101.038 67.6986C100.763 67.5989 100.529 67.4633 100.338 67.2918C100.143 67.1243 99.9911 66.9249 99.8834 66.6936C99.7797 66.4583 99.7278 66.205 99.7278 65.9338C99.7278 65.5789 99.7976 65.2678 99.9372 65.0006C100.081 64.7334 100.282 64.5101 100.541 64.3306C100.801 64.1551 101.112 64.0235 101.475 63.9358C101.842 63.848 102.25 63.8041 102.701 63.8041H103.909V63.2957C103.909 63.1002 103.874 62.9248 103.802 62.7692C103.73 62.6137 103.628 62.4801 103.497 62.3684C103.365 62.2607 103.204 62.177 103.012 62.1172C102.825 62.0573 102.613 62.0274 102.378 62.0274C102.159 62.0274 101.961 62.0553 101.786 62.1112C101.614 62.167 101.469 62.2408 101.349 62.3325C101.229 62.4242 101.136 62.5339 101.068 62.6615C101.004 62.7852 100.972 62.9148 100.972 63.0504H99.8594C99.8634 62.8151 99.9233 62.5838 100.039 62.3564C100.159 62.1291 100.33 61.9237 100.553 61.7403C100.773 61.5608 101.04 61.4152 101.355 61.3036C101.674 61.1919 102.035 61.1361 102.438 61.1361C102.805 61.1361 103.146 61.1819 103.461 61.2737C103.776 61.3614 104.049 61.495 104.28 61.6745C104.508 61.8579 104.687 62.0852 104.819 62.3564C104.95 62.6276 105.016 62.9447 105.016 63.3076V66.3167C105.016 66.5321 105.036 66.7614 105.076 67.0047C105.116 67.244 105.172 67.4533 105.243 67.6328V67.7285H104.089ZM102.133 66.885C102.348 66.885 102.549 66.8571 102.737 66.8013C102.924 66.7454 103.096 66.6716 103.251 66.5799C103.403 66.4882 103.535 66.3845 103.646 66.2688C103.758 66.1492 103.846 66.0256 103.909 65.8979V64.5878H102.88C102.498 64.5878 102.163 64.6217 101.875 64.6895C101.592 64.7533 101.367 64.853 101.199 64.9886C101.08 65.0844 100.988 65.198 100.924 65.3296C100.864 65.4612 100.835 65.6108 100.835 65.7783C100.835 65.9378 100.86 66.0854 100.912 66.221C100.968 66.3566 101.05 66.4722 101.158 66.568C101.265 66.6677 101.401 66.7454 101.564 66.8013C101.728 66.8571 101.917 66.885 102.133 66.885ZM109.324 59.6884V61.2557H111.789V62.1112H109.324V65.6287C109.324 65.88 109.356 66.0874 109.42 66.2509C109.483 66.4144 109.571 66.544 109.683 66.6397C109.794 66.7394 109.922 66.8092 110.066 66.8491C110.213 66.889 110.369 66.9089 110.532 66.9089C110.652 66.9089 110.776 66.903 110.903 66.891C111.031 66.875 111.156 66.8571 111.28 66.8372C111.4 66.8172 111.511 66.7973 111.615 66.7773C111.723 66.7534 111.81 66.7335 111.878 66.7175L112.034 67.5012C111.942 67.557 111.83 67.6069 111.699 67.6507C111.567 67.6906 111.424 67.7245 111.268 67.7524C111.113 67.7844 110.947 67.8083 110.772 67.8242C110.6 67.8402 110.429 67.8482 110.257 67.8482C109.97 67.8482 109.701 67.8083 109.449 67.7285C109.202 67.6448 108.987 67.5132 108.803 67.3337C108.62 67.1582 108.474 66.9309 108.367 66.6517C108.263 66.3685 108.211 66.0276 108.211 65.6287V62.1112H106.512V61.2557H108.211V59.6884H109.324ZM117.825 67.7285C117.781 67.6448 117.745 67.5411 117.717 67.4174C117.694 67.2898 117.676 67.1582 117.664 67.0226C117.552 67.1343 117.426 67.24 117.287 67.3397C117.151 67.4394 117.002 67.5271 116.838 67.6029C116.671 67.6787 116.493 67.7385 116.306 67.7824C116.118 67.8262 115.919 67.8482 115.707 67.8482C115.364 67.8482 115.053 67.7983 114.774 67.6986C114.499 67.5989 114.266 67.4633 114.074 67.2918C113.879 67.1243 113.727 66.9249 113.62 66.6936C113.516 66.4583 113.464 66.205 113.464 65.9338C113.464 65.5789 113.534 65.2678 113.673 65.0006C113.817 64.7334 114.018 64.5101 114.278 64.3306C114.537 64.1551 114.848 64.0235 115.211 63.9358C115.578 63.848 115.987 63.8041 116.437 63.8041H117.646V63.2957C117.646 63.1002 117.61 62.9248 117.538 62.7692C117.466 62.6137 117.365 62.4801 117.233 62.3684C117.101 62.2607 116.94 62.177 116.748 62.1172C116.561 62.0573 116.35 62.0274 116.114 62.0274C115.895 62.0274 115.697 62.0553 115.522 62.1112C115.35 62.167 115.205 62.2408 115.085 62.3325C114.966 62.4242 114.872 62.5339 114.804 62.6615C114.74 62.7852 114.708 62.9148 114.708 63.0504H113.596C113.6 62.8151 113.659 62.5838 113.775 62.3564C113.895 62.1291 114.066 61.9237 114.29 61.7403C114.509 61.5608 114.776 61.4152 115.091 61.3036C115.41 61.1919 115.771 61.1361 116.174 61.1361C116.541 61.1361 116.882 61.1819 117.197 61.2737C117.512 61.3614 117.785 61.495 118.017 61.6745C118.244 61.8579 118.423 62.0852 118.555 62.3564C118.687 62.6276 118.752 62.9447 118.752 63.3076V66.3167C118.752 66.5321 118.772 66.7614 118.812 67.0047C118.852 67.244 118.908 67.4533 118.98 67.6328V67.7285H117.825ZM115.869 66.885C116.084 66.885 116.286 66.8571 116.473 66.8013C116.661 66.7454 116.832 66.6716 116.988 66.5799C117.139 66.4882 117.271 66.3845 117.382 66.2688C117.494 66.1492 117.582 66.0256 117.646 65.8979V64.5878H116.617C116.234 64.5878 115.899 64.6217 115.612 64.6895C115.329 64.7533 115.103 64.853 114.936 64.9886C114.816 65.0844 114.724 65.198 114.661 65.3296C114.601 65.4612 114.571 65.6108 114.571 65.7783C114.571 65.9378 114.597 66.0854 114.649 66.221C114.704 66.3566 114.786 66.4722 114.894 66.568C115.002 66.6677 115.137 66.7454 115.301 66.8013C115.464 66.8571 115.654 66.885 115.869 66.885Z" fill="white"/>
<ellipse cx="85.7177" cy="256.497" rx="85.2553" ry="44.2966" fill="#CCC2F3"/>
<ellipse cx="85.7177" cy="198.186" rx="85.2553" ry="44.2966" fill="#8F74FF"/>
<ellipse cx="85.7177" cy="138.7" rx="85.2553" ry="44.2966" fill="#5A36EC"/>
<ellipse cx="297.283" cy="257.42" rx="85.2553" ry="44.2966" fill="#6B6B69"/>
<ellipse cx="297.283" cy="199.109" rx="85.2553" ry="44.2966" fill="#E8E8E1"/>
<ellipse cx="297.283" cy="139.623" rx="85.2553" ry="44.2966" fill="#E1E1D9"/>
<rect x="258.432" y="321.716" width="77.702" height="23.351" rx="3.06292" fill="#E1E1D9"/>
<path d="M269.39 334.055L271.376 329.682H272.632L269.922 335.144L269.904 338.392H268.876L268.858 335.144L266.148 329.682H267.41L269.39 334.055ZM273.381 335.096C273.381 334.629 273.448 334.197 273.584 333.798C273.72 333.395 273.915 333.046 274.17 332.751C274.422 332.456 274.729 332.224 275.092 332.057C275.455 331.885 275.863 331.8 276.318 331.8C276.777 331.8 277.187 331.885 277.55 332.057C277.917 332.224 278.228 332.456 278.484 332.751C278.735 333.046 278.928 333.395 279.064 333.798C279.199 334.197 279.267 334.629 279.267 335.096V335.227C279.267 335.694 279.199 336.127 279.064 336.526C278.928 336.924 278.735 337.271 278.484 337.567C278.228 337.862 277.919 338.093 277.556 338.26C277.193 338.428 276.785 338.512 276.33 338.512C275.871 338.512 275.459 338.428 275.092 338.26C274.729 338.093 274.422 337.862 274.17 337.567C273.915 337.271 273.72 336.924 273.584 336.526C273.448 336.127 273.381 335.694 273.381 335.227V335.096ZM274.487 335.227C274.487 335.547 274.525 335.852 274.601 336.143C274.677 336.43 274.792 336.683 274.948 336.903C275.1 337.122 275.291 337.295 275.522 337.423C275.754 337.551 276.023 337.614 276.33 337.614C276.633 337.614 276.898 337.551 277.126 337.423C277.357 337.295 277.55 337.122 277.706 336.903C277.857 336.683 277.971 336.43 278.047 336.143C278.123 335.852 278.16 335.547 278.16 335.227V335.096C278.16 334.781 278.121 334.48 278.041 334.193C277.965 333.901 277.851 333.646 277.7 333.427C277.544 333.207 277.351 333.034 277.12 332.906C276.892 332.775 276.625 332.709 276.318 332.709C276.011 332.709 275.744 332.775 275.516 332.906C275.289 333.034 275.1 333.207 274.948 333.427C274.792 333.646 274.677 333.901 274.601 334.193C274.525 334.48 274.487 334.781 274.487 335.096V335.227ZM284.825 338.392L284.759 337.501C284.544 337.82 284.275 338.069 283.952 338.249C283.629 338.424 283.256 338.512 282.833 338.512C282.494 338.512 282.187 338.46 281.912 338.356C281.637 338.249 281.401 338.083 281.206 337.86C281.011 337.636 280.859 337.353 280.751 337.01C280.648 336.663 280.596 336.248 280.596 335.766V331.919H281.702V335.778C281.702 336.129 281.73 336.42 281.786 336.651C281.842 336.883 281.926 337.066 282.037 337.202C282.149 337.341 282.285 337.439 282.444 337.495C282.608 337.551 282.795 337.579 283.007 337.579C283.254 337.579 283.475 337.551 283.671 337.495C283.866 337.435 284.036 337.353 284.179 337.249C284.299 337.166 284.402 337.066 284.49 336.95C284.582 336.831 284.658 336.701 284.718 336.562V331.919H285.83V338.392H284.825ZM291.669 331.8C291.873 331.8 292.084 331.814 292.304 331.842C292.527 331.869 292.694 331.907 292.806 331.955L292.656 333.038C292.441 332.99 292.236 332.956 292.04 332.936C291.849 332.912 291.647 332.9 291.436 332.9C291.165 332.9 290.92 332.934 290.7 333.002C290.481 333.066 290.29 333.162 290.126 333.289C289.978 333.401 289.849 333.538 289.737 333.702C289.629 333.862 289.54 334.041 289.468 334.24V338.392H288.355V331.919H289.408L289.456 332.787L289.462 332.948C289.725 332.593 290.04 332.314 290.407 332.111C290.778 331.903 291.199 331.8 291.669 331.8ZM301.051 338.392V329.682H303.067C303.406 329.686 303.725 329.722 304.024 329.79C304.327 329.853 304.606 329.945 304.861 330.065C305.216 330.228 305.529 330.444 305.8 330.711C306.076 330.974 306.295 331.279 306.459 331.626C306.606 331.921 306.718 332.244 306.794 332.595C306.873 332.946 306.915 333.321 306.919 333.72V334.36C306.919 334.743 306.881 335.106 306.805 335.449C306.734 335.792 306.628 336.107 306.488 336.394C306.345 336.693 306.163 336.964 305.944 337.208C305.725 337.451 305.479 337.658 305.208 337.83C304.921 338.009 304.596 338.147 304.233 338.243C303.874 338.338 303.485 338.388 303.067 338.392H301.051ZM302.175 330.591V337.489H303.067C303.386 337.485 303.675 337.445 303.934 337.369C304.197 337.293 304.431 337.186 304.634 337.046C304.849 336.903 305.035 336.727 305.19 336.52C305.35 336.308 305.475 336.073 305.567 335.814C305.647 335.602 305.707 335.375 305.747 335.132C305.787 334.884 305.808 334.627 305.812 334.36V333.708C305.808 333.437 305.785 333.178 305.741 332.93C305.701 332.679 305.639 332.446 305.555 332.23C305.448 331.951 305.302 331.7 305.118 331.477C304.939 331.249 304.718 331.066 304.454 330.926C304.267 330.823 304.058 330.743 303.826 330.687C303.595 330.627 303.342 330.595 303.067 330.591H302.175ZM312.286 338.392C312.242 338.308 312.206 338.205 312.178 338.081C312.154 337.953 312.136 337.822 312.124 337.686C312.013 337.798 311.887 337.904 311.747 338.003C311.612 338.103 311.462 338.191 311.299 338.266C311.131 338.342 310.954 338.402 310.766 338.446C310.579 338.49 310.379 338.512 310.168 338.512C309.825 338.512 309.514 338.462 309.235 338.362C308.96 338.262 308.726 338.127 308.535 337.955C308.339 337.788 308.188 337.588 308.08 337.357C307.977 337.122 307.925 336.869 307.925 336.597C307.925 336.242 307.994 335.931 308.134 335.664C308.278 335.397 308.479 335.174 308.738 334.994C308.997 334.819 309.309 334.687 309.671 334.599C310.038 334.512 310.447 334.468 310.898 334.468H312.106V333.959C312.106 333.764 312.07 333.588 311.999 333.433C311.927 333.277 311.825 333.144 311.693 333.032C311.562 332.924 311.4 332.841 311.209 332.781C311.021 332.721 310.81 332.691 310.575 332.691C310.355 332.691 310.158 332.719 309.983 332.775C309.811 332.831 309.666 332.904 309.546 332.996C309.426 333.088 309.332 333.197 309.265 333.325C309.201 333.449 309.169 333.578 309.169 333.714H308.056C308.06 333.479 308.12 333.247 308.236 333.02C308.355 332.793 308.527 332.587 308.75 332.404C308.97 332.224 309.237 332.079 309.552 331.967C309.871 331.855 310.232 331.8 310.635 331.8C311.002 331.8 311.343 331.845 311.658 331.937C311.973 332.025 312.246 332.159 312.477 332.338C312.704 332.521 312.884 332.749 313.016 333.02C313.147 333.291 313.213 333.608 313.213 333.971V336.98C313.213 337.196 313.233 337.425 313.273 337.668C313.313 337.908 313.369 338.117 313.44 338.296V338.392H312.286ZM310.33 337.549C310.545 337.549 310.746 337.521 310.934 337.465C311.121 337.409 311.293 337.335 311.448 337.243C311.6 337.152 311.731 337.048 311.843 336.932C311.955 336.813 312.042 336.689 312.106 336.562V335.251H311.077C310.694 335.251 310.359 335.285 310.072 335.353C309.789 335.417 309.564 335.517 309.396 335.652C309.277 335.748 309.185 335.862 309.121 335.993C309.061 336.125 309.031 336.274 309.031 336.442C309.031 336.601 309.057 336.749 309.109 336.885C309.165 337.02 309.247 337.136 309.354 337.232C309.462 337.331 309.598 337.409 309.761 337.465C309.925 337.521 310.114 337.549 310.33 337.549ZM317.521 330.352V331.919H319.985V332.775H317.521V336.292C317.521 336.544 317.553 336.751 317.616 336.914C317.68 337.078 317.768 337.208 317.88 337.303C317.991 337.403 318.119 337.473 318.262 337.513C318.41 337.553 318.566 337.573 318.729 337.573C318.849 337.573 318.972 337.567 319.1 337.555C319.228 337.539 319.353 337.521 319.477 337.501C319.597 337.481 319.708 337.461 319.812 337.441C319.92 337.417 320.007 337.397 320.075 337.381L320.231 338.165C320.139 338.221 320.027 338.27 319.896 338.314C319.764 338.354 319.62 338.388 319.465 338.416C319.309 338.448 319.144 338.472 318.968 338.488C318.797 338.504 318.625 338.512 318.454 338.512C318.167 338.512 317.898 338.472 317.646 338.392C317.399 338.308 317.184 338.177 317 337.997C316.817 337.822 316.671 337.594 316.564 337.315C316.46 337.032 316.408 336.691 316.408 336.292V332.775H314.709V331.919H316.408V330.352H317.521ZM326.022 338.392C325.978 338.308 325.942 338.205 325.914 338.081C325.89 337.953 325.872 337.822 325.86 337.686C325.749 337.798 325.623 337.904 325.484 338.003C325.348 338.103 325.198 338.191 325.035 338.266C324.867 338.342 324.69 338.402 324.502 338.446C324.315 338.49 324.116 338.512 323.904 338.512C323.561 338.512 323.25 338.462 322.971 338.362C322.696 338.262 322.463 338.127 322.271 337.955C322.076 337.788 321.924 337.588 321.816 337.357C321.713 337.122 321.661 336.869 321.661 336.597C321.661 336.242 321.731 335.931 321.87 335.664C322.014 335.397 322.215 335.174 322.474 334.994C322.734 334.819 323.045 334.687 323.408 334.599C323.775 334.512 324.183 334.468 324.634 334.468H325.843V333.959C325.843 333.764 325.807 333.588 325.735 333.433C325.663 333.277 325.561 333.144 325.43 333.032C325.298 332.924 325.137 332.841 324.945 332.781C324.758 332.721 324.546 332.691 324.311 332.691C324.092 332.691 323.894 332.719 323.719 332.775C323.547 332.831 323.402 332.904 323.282 332.996C323.162 333.088 323.069 333.197 323.001 333.325C322.937 333.449 322.905 333.578 322.905 333.714H321.793C321.796 333.479 321.856 333.247 321.972 333.02C322.092 332.793 322.263 332.587 322.486 332.404C322.706 332.224 322.973 332.079 323.288 331.967C323.607 331.855 323.968 331.8 324.371 331.8C324.738 331.8 325.079 331.845 325.394 331.937C325.709 332.025 325.982 332.159 326.213 332.338C326.441 332.521 326.62 332.749 326.752 333.02C326.883 333.291 326.949 333.608 326.949 333.971V336.98C326.949 337.196 326.969 337.425 327.009 337.668C327.049 337.908 327.105 338.117 327.177 338.296V338.392H326.022ZM324.066 337.549C324.281 337.549 324.483 337.521 324.67 337.465C324.857 337.409 325.029 337.335 325.184 337.243C325.336 337.152 325.468 337.048 325.579 336.932C325.691 336.813 325.779 336.689 325.843 336.562V335.251H324.814C324.431 335.251 324.096 335.285 323.809 335.353C323.525 335.417 323.3 335.517 323.133 335.652C323.013 335.748 322.921 335.862 322.857 335.993C322.798 336.125 322.768 336.274 322.768 336.442C322.768 336.601 322.794 336.749 322.845 336.885C322.901 337.02 322.983 337.136 323.091 337.232C323.198 337.331 323.334 337.409 323.497 337.465C323.661 337.521 323.85 337.549 324.066 337.549Z" fill="#62625D"/>
<path d="M79.4307 41.4758V12.8003C79.4307 6.17287 84.8032 0.800293 91.4307 0.800293H278.512C285.139 0.800293 290.512 6.17288 290.512 12.8003V81.7148" stroke="#CCCCC2"/>
<path d="M290.511 355.524V384.2C290.511 390.827 285.139 396.2 278.511 396.2H91.4303C84.8029 396.2 79.4304 390.827 79.4304 384.2V315.285" stroke="#CCCCC2"/>
</svg>
