<svg width="575" height="277" viewBox="0 0 575 277" fill="none" xmlns="http://www.w3.org/2000/svg">
<rect width="185.333" height="48.2" transform="translate(0.343262)" fill="#9D8BFF" fill-opacity="0.04"/>
<circle cx="8.40698" cy="8.06372" r="2.06372" fill="#5A36EC"/>
<circle cx="14.3723" cy="8.06372" r="2.06372" fill="white"/>
<circle cx="20.3376" cy="8.06372" r="2.06372" fill="#52A435"/>
<rect width="185.333" height="48.2" transform="translate(0.343262 57.2002)" fill="#9D8BFF" fill-opacity="0.04"/>
<circle cx="8.40698" cy="65.2639" r="2.06372" fill="#5A36EC"/>
<circle cx="14.3723" cy="65.2639" r="2.06372" fill="white"/>
<rect width="185.333" height="48.2" transform="translate(0.343262 114.4)" fill="#9D8BFF" fill-opacity="0.04"/>
<circle cx="8.40698" cy="122.464" r="2.06372" fill="#5A36EC"/>
<circle cx="14.3723" cy="122.464" r="2.06372" fill="white"/>
<circle cx="20.3376" cy="122.464" r="2.06372" fill="white"/>
<rect width="185.333" height="48.2" transform="translate(0.343262 171.6)" fill="#9D8BFF" fill-opacity="0.04"/>
<circle cx="8.40698" cy="179.664" r="2.06372" fill="#5A36EC"/>
<rect width="185.333" height="48.2" transform="translate(0.343262 228.8)" fill="#9D8BFF" fill-opacity="0.04"/>
<circle cx="8.40698" cy="236.864" r="2.06372" fill="#5A36EC"/>
<circle cx="14.3723" cy="236.864" r="2.06372" fill="#52A435"/>
<rect width="185.333" height="48.2" transform="translate(194.677)" fill="#9D8BFF" fill-opacity="0.04"/>
<circle cx="202.622" cy="7.94571" r="1.94571" fill="#5A36EC"/>
<rect width="185.333" height="48.2" transform="translate(194.677 57.2002)" fill="#9D8BFF" fill-opacity="0.04"/>
<circle cx="202.622" cy="65.1459" r="1.94571" fill="#5A36EC"/>
<circle cx="208.246" cy="65.1459" r="1.94571" fill="#52A435"/>
<rect width="185.333" height="48.2" transform="translate(194.677 114.4)" fill="#9D8BFF" fill-opacity="0.04"/>
<circle cx="202.622" cy="122.346" r="1.94571" fill="#5A36EC"/>
<circle cx="208.246" cy="122.346" r="1.94571" fill="#52A435"/>
<circle cx="213.871" cy="122.346" r="1.94571" fill="#52A435"/>
<rect width="185.333" height="48.2" transform="translate(194.677 171.6)" fill="#9D8BFF" fill-opacity="0.04"/>
<circle cx="202.622" cy="179.546" r="1.94571" fill="#5A36EC"/>
<circle cx="208.246" cy="179.546" r="1.94571" fill="white"/>
<rect width="185.333" height="48.2" transform="translate(194.677 228.8)" fill="#9D8BFF" fill-opacity="0.04"/>
<circle cx="202.622" cy="236.746" r="1.94571" fill="#5A36EC"/>
<rect width="185.333" height="48.2" transform="translate(389.01)" fill="#9D8BFF" fill-opacity="0.04"/>
<circle cx="396.746" cy="7.73633" r="1.73633" fill="#5A36EC"/>
<rect width="185.333" height="48.2" transform="translate(389.01 57.2002)" fill="#9D8BFF" fill-opacity="0.04"/>
<circle cx="396.746" cy="64.9365" r="1.73633" fill="#5A36EC"/>
<circle cx="401.765" cy="64.9365" r="1.73633" fill="white"/>
<rect width="185.333" height="48.2" transform="translate(389.01 114.4)" fill="#9D8BFF" fill-opacity="0.04"/>
<circle cx="396.746" cy="122.136" r="1.73633" fill="#5A36EC"/>
<circle cx="401.765" cy="122.136" r="1.73633" fill="white"/>
<rect width="185.333" height="48.2" transform="translate(389.01 171.6)" fill="#9D8BFF" fill-opacity="0.04"/>
<circle cx="396.746" cy="179.336" r="1.73633" fill="#5A36EC"/>
<rect width="185.333" height="48.2" transform="translate(389.01 228.8)" fill="#9D8BFF" fill-opacity="0.04"/>
<circle cx="396.746" cy="236.536" r="1.73633" fill="#5A36EC"/>
<circle cx="401.765" cy="236.536" r="1.73633" fill="white"/>
<circle cx="406.784" cy="236.536" r="1.73633" fill="#52A435"/>
</svg>
